<svg width="4000" height="2667" viewBox="0 0 4000 2667" fill="none" xmlns="http://www.w3.org/2000/svg">
<path d="M3530.31 2369.51H549.129C549.129 2369.51 180.98 2123.44 429.865 1662.56C656.598 1242.7 820.564 1504.28 752 750.624C724.571 449.107 921.582 297.139 1194.53 296.901C1304.4 296.803 1416.28 315.865 1527.83 334.928C1690.36 362.705 1852.21 390.479 2006.2 358.984C2072.29 345.465 2135.84 334.911 2196.85 327.1C2204.05 326.162 2211.23 325.266 2218.34 324.432C2220.31 324.192 2222.27 323.954 2224.21 323.747C2452.84 297.139 2645.47 309.406 2805.15 348.386C3394.87 492.29 3535.16 1000.3 3379.78 1259.17C3164.44 1617.96 4018.99 1653.12 3530.31 2369.51Z" fill="#EBF3FA"/>
<path d="M2983.34 1767.63C2983.34 1767.63 2809.13 1820.69 2821 1852.51C2832.87 1884.32 3010.88 1779.37 3010.88 1779.37C3010.88 1779.37 3158.85 1889.71 3183.52 1950.48C3183.52 1950.48 2980.83 1940.03 3000.17 1967.93C3019.52 1995.84 3229.91 2016.51 3229.91 2016.51C3229.91 2016.51 3336.94 2153.03 3260.04 2224.12C3183.17 2295.21 3117.89 2279.44 3100.57 2259.97C3083.29 2240.51 3010.02 2095.84 2993.31 2109.33C2976.61 2122.83 2997.47 2235.47 3042.57 2280.8C3042.57 2280.8 2863.93 2298.17 2830.42 2215.89C2796.9 2133.61 2832.73 2083.99 2811.09 2033.52C2789.45 1983.05 2757.86 1954.43 2757.48 1985.52C2757.09 2016.61 2808.82 2094.12 2795.98 2150.72C2783.17 2207.33 2779.24 2249.79 2726.24 2184.81C2673.27 2119.84 2614.29 1984.35 2656.61 1928.95C2658.45 1926.53 2660.21 1924.23 2661.91 1922.03C2658.1 1926.03 2656.61 1928.95 2656.61 1928.95C2641.77 1919.61 2593.9 1919.01 2557.94 1920.03C2552.02 1920.59 2543.63 1920.96 2532.02 1921.07C2526.88 1921.35 2522.7 1921.6 2519.78 1921.79C2442.17 1929.69 2338.43 2001.24 2338.43 2001.24L2326.13 1987.88C2419.85 1895.01 2543.2 1907.47 2543.2 1907.47C2636.47 1908.6 2698.93 1873.56 2698.93 1873.56C2698.93 1873.56 2704.13 1692.63 2844.65 1702.32C2844.65 1702.32 2937.28 1720.43 2983.34 1767.63Z" fill="#D2E2F9"/>
<path d="M2289.37 1118.9L2436.02 1446.85L2873.21 1251.33L2873.23 1251.32L3057.42 1168.95L2910.78 841.013L2566.83 994.824L2289.37 1118.9Z" fill="#CFE7FF"/>
<path d="M2482.9 1372.56L2978.62 1150.87C2991.78 1144.99 2997.68 1129.56 2991.8 1116.4L2906.27 925.162C2900.34 911.895 2884.77 905.949 2871.5 911.882L2376.11 1133.42C2363.05 1139.25 2357.23 1154.54 2363.05 1167.58L2448.92 1359.58C2454.72 1372.55 2469.94 1378.36 2482.9 1372.56ZM2899.82 889.913L3013.67 1144.51L2455.13 1394.28L2341.27 1139.69L2899.82 889.913Z" fill="#C0D8FB"/>
<path d="M2708.11 1210.6C2745.94 1193.68 2762.89 1149.3 2745.98 1111.47C2729.06 1073.64 2684.69 1056.69 2646.84 1073.6C2609.02 1090.52 2592.07 1134.9 2608.99 1172.73C2625.9 1210.56 2670.28 1227.52 2708.11 1210.6Z" fill="#C0D8FB"/>
<path d="M2250.45 1064.03L2543.71 1271.5L2820.29 880.516V880.507L2936.85 715.772L2643.58 508.301L2425.98 815.895L2250.45 1064.03Z" fill="#DCEAFF"/>
<path d="M2546.2 1183.69L2859.83 740.368C2868.15 728.591 2865.35 712.315 2853.58 703.991L2682.57 582.997C2670.7 574.62 2654.27 577.418 2645.89 589.284L2332.48 1032.33C2324.22 1043.98 2327.01 1060.12 2338.66 1068.36L2510.36 1189.83C2521.96 1198.03 2538 1195.28 2546.2 1183.69ZM2659.05 555.971L2886.73 717.026L2533.38 1216.53L2305.7 1055.46L2659.05 555.971Z" fill="#C0D8FB"/>
<path d="M2657.48 929.587C2681.42 895.748 2673.39 848.914 2639.57 824.995C2605.73 801.06 2558.91 809.088 2534.97 842.91C2511.04 876.748 2519.07 923.566 2552.89 947.501C2586.73 971.437 2633.54 963.409 2657.48 929.587Z" fill="#C0D8FB"/>
<path d="M2984.31 1260.01C2984.31 1260.01 3037.74 1251.97 3063.59 1285.62C3089.49 1319.27 3078.62 1351.96 3122.03 1355.65C3165.44 1359.33 3172.93 1376.59 3163.77 1400.51C3154.57 1424.44 3208.82 1425.26 3220.5 1457.82C3232.2 1490.37 3226.35 1546.29 3143.72 1531.27C3061.09 1516.24 3030.83 1466.17 2992.54 1479.52C2954.27 1492.88 2900.02 1454.43 2919.21 1430.67C2938.41 1406.9 2907.54 1409.55 2910.03 1355.65C2912.53 1301.75 2947.81 1258.75 2984.31 1260.01Z" fill="#163560"/>
<path d="M2663.92 1560.34C2663.92 1560.34 2649.06 1544.77 2637.28 1541.73C2624.35 1538.4 2606.14 1535.29 2604.21 1539.48C2601.93 1544.45 2625.07 1552.64 2628.29 1558.1C2631.48 1563.56 2626.36 1563.08 2617.36 1562.44C2608.38 1561.78 2611.59 1564.68 2613.19 1565.16C2614.81 1565.64 2627.8 1572.38 2632.61 1573.34C2633.94 1573.61 2636 1573.76 2638.52 1573.88C2645.21 1574.18 2655.2 1574.33 2663.92 1576.08C2663.92 1576.08 2667.29 1565.96 2663.92 1560.34Z" fill="#FFB27D"/>
<path d="M2654.31 1563.92C2656.55 1571.59 2660.28 1575.44 2660.28 1575.44C2660.28 1575.44 2734.51 1603.95 2788.47 1595.69C2790.34 1595.41 2792.2 1595.08 2794.02 1594.69C2803.92 1592.63 2814.44 1590.04 2824.98 1587.19C2870.07 1574.97 2915.65 1557.97 2915.65 1557.97C2915.65 1557.97 2916.62 1554.2 2917.99 1548.01C2923.68 1522.29 2936.35 1454.92 2915.65 1444.29C2915.65 1444.29 2904.7 1449.07 2891.26 1459.91C2860.63 1484.57 2808.97 1531.21 2780.95 1538.36C2755.12 1544.96 2686.6 1551.59 2656.33 1553.29C2656.33 1553.29 2652.76 1558.49 2654.31 1563.92Z" fill="#F9DDBF"/>
<path d="M2866.21 1556.76C2849.79 1569.88 2839.05 1580.51 2824.98 1587.19C2870.08 1574.97 2915.66 1557.97 2915.66 1557.97C2915.66 1557.97 2916.6 1554.2 2917.98 1548.01L2913.15 1538.36C2913.15 1538.36 2892.51 1535.74 2866.21 1556.76Z" fill="#F2CCAA"/>
<path d="M2788.46 1595.69C2790.35 1595.41 2792.2 1595.08 2794.02 1594.69C2791.02 1594.91 2789.23 1595.24 2788.46 1595.69Z" fill="#F2CCAA"/>
<path d="M3198.66 2277.32C3198.66 2277.32 3218.45 2295.39 3214.6 2308.21C3210.73 2321.04 3192.88 2329.6 3190.47 2345.28C3188.04 2360.96 3178.38 2369.51 3169.71 2369.51C3161.03 2369.51 3128.29 2369.51 3128.29 2369.51C3128.29 2369.51 3121.89 2358.48 3137.33 2355.15C3152.77 2351.83 3158.6 2333.4 3157.65 2316.29C3156.66 2299.19 3159.09 2276.37 3159.09 2276.37L3191.91 2268.77L3198.66 2277.32Z" fill="#3E5B87"/>
<path d="M3031.2 2286.44C3031.2 2286.44 3038.32 2362.93 3029.63 2367.21L2918.46 2366.99C2918.46 2366.99 2918.46 2354.16 2936.32 2351.31C2954.18 2348.45 2985.55 2338 2990.84 2314.72C2996.16 2291.43 3031.2 2286.44 3031.2 2286.44Z" fill="#3E5B87"/>
<path d="M2935.3 1641.83L3004.97 1696.52L3071.42 1649.23H3071.44L3076.84 1647.28C3076.84 1647.28 3087.8 1641.84 3091.07 1615.94C3091.47 1612.72 3093.77 1585.38 3096.09 1557.8C3098.57 1528.04 3101.02 1498.07 3101.02 1498.07L3058.6 1435.12C2969.5 1416.3 2915.64 1444.3 2915.64 1444.3C2915.64 1444.3 2911.5 1477.47 2904.71 1524.79C2897.93 1572.11 2935.3 1641.83 2935.3 1641.83Z" fill="#F9DDBF"/>
<path d="M2940.42 1657.23C2940.42 1657.23 2908.37 1756.99 2906.31 1790.96C2904.26 1824.92 2967.59 2273.45 2970.12 2289.11C2972.52 2303.87 2990.85 2313.27 2990.85 2313.27C2990.85 2313.27 2999.27 2318.24 3011.3 2314.84C3027.98 2310.13 3033.25 2304.49 3033.25 2304.49C3033.25 2304.49 3058.21 1984.6 3042.76 1870.32C3027.32 1756.05 3027.14 1657.23 3027.14 1657.23H2940.42Z" fill="#ED7D2B"/>
<path d="M3076.24 1654.25C3076.24 1654.25 3125.11 1719.85 3129.68 1764.2C3134.22 1808.55 3136.82 1964.29 3146.52 2007.52C3156.25 2050.76 3191.91 2133.95 3191.91 2268.77C3191.91 2268.77 3188.21 2276.51 3176.77 2280.61C3173.09 2281.93 3168.2 2283.21 3163.44 2284.31C3154 2286.47 3144.3 2281.85 3140 2273.17C3115.87 2224.61 3039.05 2067.99 3035.09 2035.48C3032.31 2012.47 3008.05 1860.19 2955.14 1770.84C2942.43 1749.39 2962.93 1664.07 2962.93 1664.07L3076.24 1654.25Z" fill="#F99746"/>
<path d="M3009.87 1448.82C3019.07 1446.18 3023.78 1440.32 3023.28 1430.72C3022.52 1416.64 3019.35 1403.1 3021.67 1383.06L3018.68 1383.3L2968.63 1387.5L2966.38 1417.92C2964.83 1437.52 2966.14 1461.38 3009.87 1448.82Z" fill="#FFB27D"/>
<path d="M2968.62 1387.51C2968.62 1387.51 2968 1403.04 2966.41 1417.56C2993.89 1419.87 3011.17 1396.5 3018.67 1383.31L2968.62 1387.51Z" fill="#E8945B"/>
<path d="M2957.93 1400.23C2957.93 1400.23 3022.64 1408.58 3027.21 1368.2C3031.79 1327.83 3043.23 1301.71 3002.12 1294.67C2960.99 1287.63 2951.21 1302.12 2946.39 1315.23C2941.59 1328.33 2941.2 1397.02 2957.93 1400.23Z" fill="#FFB27D"/>
<path d="M2972.71 1290.36C2972.71 1290.36 2985.12 1339.73 3011.59 1349.8C3038.03 1359.87 3050.66 1353.89 3050.66 1353.89C3050.66 1353.89 3031.63 1334.95 3030.56 1305.48C3030.56 1305.48 2988.62 1269.32 2972.71 1290.36Z" fill="#163560"/>
<path d="M2976.66 1294.7C2976.66 1294.7 2962.95 1298.15 2956.47 1307.14C2950.11 1315.93 2944.19 1327.85 2943.54 1343.23C2943.54 1343.23 2933.77 1309.52 2950.84 1292.99C2968.96 1275.47 2976.66 1294.7 2976.66 1294.7Z" fill="#163560"/>
<path d="M3193.43 1729.69C3193.43 1729.69 3188.7 1747.99 3184.49 1750.8C3180.31 1753.61 3167.97 1769.61 3171.13 1776.44C3175.39 1785.63 3185.91 1799.05 3191.02 1797.55C3196.14 1796.03 3191.4 1782.72 3200.99 1773.01C3205.85 1768.11 3217.08 1759.16 3216.17 1749.52C3215.24 1739.87 3212.79 1727.79 3212.79 1727.79L3193.43 1729.69Z" fill="#FFB27D"/>
<path d="M3189.96 1740.78C3189.96 1740.78 3176.07 1750.49 3169.46 1753.42C3162.88 1756.36 3165.51 1758.72 3168.9 1758.75C3172.79 1758.77 3176.71 1758.14 3183.1 1754.35C3189.49 1750.56 3193.37 1740.7 3189.96 1740.78Z" fill="#FFB27D"/>
<path d="M3058.62 1435.1C3058.62 1435.1 3097.32 1444.45 3122.76 1468.34C3162.75 1505.94 3206.95 1542.22 3216.23 1579.89C3223.93 1611.1 3225.07 1654.25 3216.23 1737.41C3216.23 1737.41 3210.89 1739.65 3200.48 1739.18C3191.32 1738.79 3187.15 1735.44 3187.15 1735.44C3187.15 1735.44 3167.93 1626.62 3152.28 1596.84C3144.31 1581.65 3035.23 1523.96 3035.23 1523.96L3058.62 1435.1Z" fill="#F9DDBF"/>
<path d="M3071.41 1649.23H3071.43L3076.85 1647.28C3076.85 1647.28 3087.81 1641.84 3091.07 1615.94C3091.47 1612.72 3093.79 1585.38 3096.09 1557.8C3096.09 1557.8 3071.53 1533.35 3064.02 1547.96C3056.5 1562.56 3073.86 1590.11 3067.48 1606.38C3061.1 1622.65 3050.08 1644.49 3071.41 1649.23Z" fill="#F2CCAA"/>
<path d="M2935.31 1641.82C2935.31 1641.82 2948.17 1652.01 2973.74 1652.52C3004.27 1653.13 3079.92 1644.74 3079.92 1644.74C3079.92 1644.74 3083.29 1654.13 3083.15 1664.05C3083.15 1664.05 2990.75 1687.36 2937.22 1667.45C2937.22 1667.45 2930.31 1654.47 2935.31 1641.82Z" fill="#233862"/>
<path d="M2966.42 1651.92C2961.29 1651.92 2957.1 1656.92 2957.1 1663.06C2957.1 1669.21 2961.29 1674.21 2966.42 1674.21C2971.56 1674.21 2975.73 1669.21 2975.73 1663.06C2975.73 1656.92 2971.56 1651.92 2966.42 1651.92ZM2966.42 1678.84C2958.74 1678.84 2952.49 1671.76 2952.49 1663.06C2952.49 1654.37 2958.74 1647.29 2966.42 1647.29C2974.1 1647.29 2980.36 1654.37 2980.36 1663.06C2980.36 1671.76 2974.1 1678.84 2966.42 1678.84Z" fill="white"/>
<path d="M1508.51 1715.36C1505.63 1715.36 1502.84 1715.28 1500.19 1715.13C1458.72 1712.81 1474.45 1698.87 1493.21 1677.25C1504.64 1664.07 1526.23 1658.24 1544.12 1653.61L1553.93 1710.29C1538.29 1713.65 1522.28 1715.36 1508.51 1715.36ZM1448.89 1683.41C1408.83 1683.41 1368.8 1616.27 1368.8 1616.27C1371.59 1616.71 1374.52 1616.91 1377.57 1616.91C1408.8 1616.91 1451.16 1595.77 1451.56 1586.09C1451.69 1582.92 1444.73 1581.83 1434.56 1581.83C1423.43 1581.83 1408.45 1583.13 1394.72 1584.43C1380.99 1585.73 1368.49 1587.04 1362.31 1587.04C1361.4 1587.04 1360.61 1587 1360 1586.95C1347.15 1585.68 1321.64 1564.09 1327.29 1512.57C1332.32 1466.67 1401.04 1464.16 1415.96 1464.16C1417.79 1464.16 1418.8 1464.2 1418.8 1464.2C1418.8 1464.2 1488.69 1542.17 1505.71 1542.16C1505.75 1542.16 1505.79 1542.16 1505.83 1542.16C1522.64 1541.8 1458.76 1463.57 1458.76 1463.57C1462.72 1462.6 1467.55 1462.17 1472.99 1462.17C1484.19 1462.17 1497.93 1463.99 1511.75 1466.56L1541.05 1635.92C1539.21 1636.24 1537.33 1636.63 1535.41 1637.07C1508.96 1643.08 1499.76 1671.91 1457.13 1682.43C1454.39 1683.09 1451.65 1683.41 1448.89 1683.41Z" fill="#D9E5FC"/>
<path d="M1518.77 1772.12C1518.77 1772.12 1607.71 1852.07 1591.81 1867.69C1575.91 1883.32 1499.13 1771.47 1499.13 1771.47C1499.13 1771.47 1380.45 1796.04 1348.92 1825.36C1348.92 1825.36 1472.41 1875.41 1453.16 1886.64C1433.91 1897.88 1302.97 1851.77 1302.97 1851.77C1302.97 1851.77 1201.4 1903.29 1227.41 1966.93C1253.43 2030.57 1296.64 2039.31 1312.34 2032.53C1328.05 2025.76 1411.79 1960.01 1417.99 1972.68C1424.19 1985.35 1380.49 2046.57 1341.08 2061.04C1341.08 2061.04 1442.56 2120.96 1485.33 2081.31C1528.12 2041.65 1520.57 2002.17 1547.45 1978.15C1574.33 1954.13 1601.08 1945.87 1592.68 1964.47C1584.28 1983.08 1531.99 2014.84 1523.91 2052.08C1515.83 2089.32 1506.39 2115.68 1555.95 2091.73C1605.51 2067.77 1678.2 2003.52 1668.4 1958.81C1667.97 1956.87 1667.56 1955 1667.17 1953.23C1668.32 1956.65 1668.4 1958.81 1668.4 1958.81C1679.83 1957.39 1708.48 1970.31 1729.59 1980.89C1732.96 1982.87 1737.85 1985.43 1744.72 1988.72C1747.71 1990.29 1750.12 1991.61 1751.8 1992.53C1795.79 2018.77 1837.64 2090.15 1837.64 2090.15L1848.68 2085.61C1818.71 2004.35 1741.84 1977.51 1741.84 1977.51C1686.04 1952.29 1658.59 1914.11 1658.59 1914.11C1658.59 1914.11 1705.72 1805 1619.43 1771.77C1619.43 1771.77 1559.28 1756.83 1518.77 1772.12Z" fill="#D2E2F9"/>
<path d="M1007.65 1100.65C1006.36 1107.41 993.267 1113.99 990.067 1114.92C987.129 1106.65 980.731 1098.96 981.072 1099.31C981.387 1098.64 981.767 1097.87 982.199 1097.03C985.189 1091.23 990.932 1081.96 998.067 1079.81C1008.66 1076.59 1029.55 1074.6 1030.81 1079.04C1032.07 1083.45 1009.11 1093.04 1007.65 1100.65Z" fill="#FFB27D"/>
<path d="M1054.28 2366.04H919.079C909.392 2359.48 921.692 2295.25 921.692 2295.25C921.692 2295.25 958.592 2281.25 964.965 2309.72C971.359 2338.17 1011.97 2347.23 1033.46 2350.69C1048.16 2353.08 1052.81 2361.16 1054.28 2366.04Z" fill="#3E5B87"/>
<path d="M1250.32 2366.04H1115.12C1105.43 2359.48 1117.73 2295.25 1117.73 2295.25C1117.73 2295.25 1154.63 2281.25 1161.01 2309.72C1167.4 2338.17 1208.01 2347.23 1229.5 2350.69C1244.2 2353.08 1248.85 2361.16 1250.32 2366.04Z" fill="#3E5B87"/>
<path d="M1213.95 1710.83C1213.95 1710.83 1207.87 1786.65 1200.73 1877.79C1191.02 2001.6 1164.83 2308.55 1164.83 2308.55C1164.83 2308.55 1147.67 2323.2 1109.65 2315.19C1109.65 2315.19 1077.28 2209.29 1067.6 2088.43C1067.45 2086.45 1067.3 2084.45 1067.15 2082.45C1058.15 1959.41 1044.15 1700.33 1044.15 1700.33L1213.95 1710.83Z" fill="#FF9E55"/>
<path d="M1216.02 1684.63C1216.02 1684.63 1207.87 1786.65 1200.73 1877.79L1067.6 2088.43C1067.45 2086.45 1067.3 2084.45 1067.15 2082.45C1058.15 1959.41 1044.15 1700.33 1044.15 1700.33L1216.02 1684.63Z" fill="#ED823A"/>
<path d="M1186.33 1665.44L969.336 2307.53C969.336 2307.53 933.056 2326.11 918.195 2300.97C918.195 2300.97 921.636 2030.28 960.396 1963.11C982.299 1925.15 997.579 1818.68 994.973 1782.73C989.868 1712.28 1010.86 1646.69 1010.86 1646.69L1186.33 1665.44Z" fill="#FF9E55"/>
<path d="M1134.09 1330.35C1119.35 1338.11 1104.97 1338.59 1092.5 1335.95C1081.09 1333.55 1071.29 1328.51 1064.32 1324.05C1057.16 1319.48 1052.95 1315.48 1052.95 1315.48C1052.95 1315.48 1053.45 1314.76 1054.29 1313.35C1058.64 1305.91 1071.85 1279.12 1065.97 1236.09C1065.89 1235.53 1070.15 1236.33 1076.59 1237.85C1095.75 1242.4 1134.26 1253.32 1135.97 1253.8H1136.03C1136.03 1253.8 1136.51 1262.85 1138.09 1279.07C1138.22 1280.51 1138.37 1282 1138.53 1283.55C1138.72 1285.44 1138.92 1287.47 1139.15 1289.53C1140.94 1306.4 1134.09 1330.35 1134.09 1330.35Z" fill="#FFB27D"/>
<path d="M1138.09 1279.07C1109.49 1285.63 1066.81 1243.4 1066.81 1243.4C1069.93 1241.08 1073.21 1239.25 1076.59 1237.85C1095.75 1242.4 1134.26 1253.32 1135.97 1253.8H1136.03C1136.03 1253.8 1136.51 1262.85 1138.09 1279.07Z" fill="#ED975D"/>
<path d="M1176.94 1095.92C1176.94 1095.92 1165.72 1078.99 1154.69 1077.99C1143.67 1076.99 1120.79 1079.6 1122.47 1083.89C1127.87 1097.64 1147.11 1091.53 1151.98 1100.24C1156.16 1107.69 1170.95 1110.81 1170.95 1110.81L1176.94 1095.92Z" fill="#FFB27D"/>
<path d="M1147.81 1251.52C1147.81 1251.52 1136.05 1255.73 1121.06 1257.75C1099.13 1260.71 1070.3 1258.97 1061.24 1232.44C1045.99 1187.79 1026.5 1161.01 1071.39 1142.79C1095.42 1133.03 1110.8 1132.51 1121.24 1136.23C1130.31 1139.44 1135.66 1145.87 1139.71 1152.21C1148.43 1165.89 1165.97 1243.69 1147.81 1251.52Z" fill="#FFB27D"/>
<path d="M1143.63 1124.21C1156.06 1141.44 1141.59 1165.12 1120.62 1161.69C1112.42 1160.36 1105.73 1159.33 1101.92 1161.03C1090.75 1166 1088.75 1184.72 1088.55 1190.67C1088.35 1196.63 1087.56 1201.64 1072.4 1198.08C1069.92 1197.49 1068.13 1197.67 1066.89 1198.41C1061.29 1201.73 1067.07 1216.47 1070.1 1222.4C1070.94 1224.03 1071.47 1225.79 1071.67 1227.61C1072.15 1231.89 1072.03 1239.16 1066.81 1243.41C1065.88 1244.16 1050.67 1250.81 1014.02 1194.72C1008.25 1185.91 1002.75 1166.08 1011.65 1146.99C1020.54 1127.88 1060 1106.65 1092.73 1102.57C1127.73 1098.2 1142.07 1122.04 1143.63 1124.21Z" fill="#2A4E96"/>
<path d="M1226.92 1390.45C1119.56 1490.72 1138.42 1299.75 1138.42 1299.75C1138.42 1299.75 1179.31 1281.59 1192.19 1281.6C1205.07 1281.6 1214.51 1245.71 1255.36 1185.96L1255.37 1185.95L1255.35 1185.93L1169.47 1112.41C1169.47 1112.41 1173.45 1090.55 1178.19 1091.64C1184.84 1093.15 1197.5 1097.12 1212.66 1102.83C1251.93 1117.61 1307.91 1143.96 1319.23 1169.23C1319.23 1169.23 1321.37 1302.24 1226.92 1390.45Z" fill="#AEC3FF"/>
<path d="M1215.62 1689.67C1215.62 1689.67 1151.65 1711.4 1083.86 1711.92C1070.6 1712.03 1051.85 1709.45 1036.28 1706.85C1020.38 1704.16 1007.8 1701.43 1007.8 1701.43C994.176 1698.28 979.123 1689.87 981.141 1674.33C987.252 1627.12 983.305 1503.45 986.44 1426.21C986.44 1426.21 986.596 1411.15 977.011 1400.6L976.985 1400.57C975.412 1398.85 973.588 1397.27 971.451 1395.87C957.132 1386.53 890.176 1323.16 861.183 1222.08C857.76 1210.56 856.371 1203.48 856.292 1203.08L856.279 1203.03H856.292C864.513 1165.53 956.345 1108.55 978.572 1098.36C979.253 1098.05 980 1098.25 980.813 1098.83L980.84 1098.85C988.147 1105 991.225 1116.61 991.317 1116.83L991.357 1116.93L922.212 1206.41C974.388 1256.6 990.924 1289.81 1003.53 1287.19C1015.65 1284.67 1056.45 1293.28 1059.65 1293.97C1060.61 1293.76 1061.56 1293.53 1062.56 1293.36C1062.56 1293.36 1106.1 1317.89 1138.42 1299.73C1138.42 1299.73 1138.73 1299.79 1139.34 1299.88C1147.22 1301.13 1203.45 1310.47 1217.02 1324.81C1221.7 1329.75 1223.49 1359.83 1223.98 1393.15C1224.7 1439.56 1222.89 1492.32 1222.89 1492.33C1226.17 1542.88 1252.74 1681.96 1215.62 1689.67Z" fill="#AEC3FF"/>
<path d="M1059.87 1294.01C1059.87 1294.01 1108.04 1343.71 1142.48 1333.53C1142.48 1333.53 1147.07 1326.81 1131.56 1324.67C1116.05 1322.52 1099.3 1323.4 1059.87 1294.01Z" fill="#94B0ED"/>
<path d="M1036.28 1706.85C1020.38 1704.16 1007.8 1701.43 1007.8 1701.43C994.176 1698.28 979.123 1689.87 981.141 1674.33C987.252 1627.12 983.305 1503.45 986.44 1426.21C986.44 1426.21 986.596 1411.15 977.011 1400.6C992.039 1413.88 1033.08 1453.24 1043.14 1495.73C1053.88 1541.09 1046.25 1659.92 1036.28 1706.85Z" fill="#94B0ED"/>
<path d="M982.951 1097.44C982.951 1097.44 983.12 1083.89 985.484 1081.17C987.847 1078.44 989.483 1086.08 989.847 1088.44C990.211 1090.81 982.951 1097.44 982.951 1097.44Z" fill="#FFB27D"/>
<path d="M1173.7 1091.6C1173.7 1091.6 1170.25 1082.47 1169.43 1080.01C1168.61 1077.55 1166.87 1077.41 1166.66 1079.05C1166.46 1080.69 1165.94 1084.17 1167.17 1086.13C1168.4 1088.08 1173.7 1091.6 1173.7 1091.6Z" fill="#FFB27D"/>
<path d="M1419.25 507.62C1418.38 505.785 1417.31 504.111 1416.08 502.585L1416.06 502.571C1415.13 501.433 1414.1 500.402 1412.97 499.438L1408.31 494.711L1407.08 495.622C1383.23 483.945 1333.99 496.318 1284.17 528.844C1223.95 568.16 1185.3 622.286 1196.45 651.05L1194.75 652.309L1201.45 658.977C1201.76 659.312 1202.09 659.647 1202.43 659.968L1202.62 660.156L1202.68 660.196C1204.38 661.749 1206.32 663.089 1208.48 664.227L1208.51 664.254L1208.51 664.24C1232.06 676.587 1281.83 664.294 1332.2 631.419C1393.54 591.367 1432.51 535.942 1419.25 507.62Z" fill="#FFA412"/>
<path d="M1277 521.689C1338.33 481.649 1398.81 472.144 1412.07 500.47C1425.35 528.797 1386.37 584.212 1325.03 624.266C1263.7 664.306 1203.22 673.811 1189.95 645.484C1176.69 617.157 1215.66 561.742 1277 521.689Z" fill="#FFB93E"/>
<path d="M1369.22 498.983C1346.98 498.983 1314.31 511.123 1282.86 531.718C1257.64 548.239 1235.93 568.1 1221.75 587.653C1208.11 606.458 1203.02 623.193 1207.77 633.557C1210.02 638.458 1214.37 641.864 1220.7 643.694C1224.25 644.709 1228.32 645.216 1232.81 645.216C1255.06 645.216 1287.72 633.076 1319.17 612.481C1344.4 595.96 1366.09 576.1 1380.28 556.547C1393.92 537.742 1399.01 521.007 1394.26 510.643C1392.02 505.741 1387.65 502.335 1381.32 500.506C1377.78 499.477 1373.7 498.983 1369.22 498.983ZM1232.96 649.731C1227.98 649.731 1223.45 649.17 1219.46 648.021C1211.81 645.817 1206.5 641.584 1203.68 635.44C1198.15 623.379 1203.27 605.469 1218.11 585.021C1232.6 565.028 1254.72 544.767 1280.4 527.952C1319.83 502.135 1359.93 489.661 1382.57 496.178C1390.23 498.382 1395.53 502.616 1398.35 508.759C1403.88 520.82 1398.76 538.73 1383.92 559.178C1369.43 579.172 1347.3 599.432 1321.63 616.247C1289.15 637.51 1256.21 649.731 1232.96 649.731Z" fill="#FFA412"/>
<path d="M1276.3 587.573C1278.2 586.747 1279.88 585.827 1281.36 584.84C1282.83 583.853 1284.2 582.693 1285.45 581.36C1286.7 580.04 1287.88 578.52 1289 576.8C1290.12 575.08 1291.24 573.093 1292.36 570.827C1294.34 566.907 1296.37 563.253 1298.44 559.853C1300.52 556.453 1302.84 553.307 1305.41 550.4C1307.98 547.507 1310.91 544.84 1314.21 542.413C1317.51 539.987 1321.37 537.8 1325.79 535.853C1329.62 534.173 1333.07 533.093 1336.15 532.613C1339.21 532.133 1341.83 532.227 1344.01 532.88C1346.2 533.547 1347.91 534.733 1349.13 536.44C1350.37 538.147 1351.05 540.373 1351.17 543.12L1365.65 536.76L1364.89 544.56L1350.23 551C1349.41 554.027 1348.05 557.053 1346.17 560.053C1344.28 563.053 1341.93 565.947 1339.12 568.693C1336.31 571.453 1333.04 574.067 1329.33 576.52C1325.62 578.973 1321.51 581.187 1317 583.173L1318.36 569.093C1323.77 566.72 1327.9 564.147 1330.73 561.36C1333.57 558.573 1335.12 555.827 1335.39 553.133C1335.52 551.68 1335.35 550.547 1334.84 549.76C1334.33 548.973 1333.57 548.48 1332.59 548.253C1331.59 548.04 1330.39 548.08 1328.98 548.4C1327.57 548.707 1326.03 549.227 1324.36 549.96C1322.69 550.693 1321.17 551.52 1319.78 552.44C1318.4 553.36 1317.09 554.467 1315.87 555.76C1314.64 557.067 1313.46 558.6 1312.31 560.36C1311.17 562.12 1309.97 564.213 1308.7 566.627C1306.63 570.547 1304.55 574.213 1302.45 577.6C1300.35 581 1298.01 584.147 1295.42 587.053C1292.83 589.973 1289.88 592.64 1286.58 595.067C1283.28 597.493 1279.45 599.667 1275.07 601.587C1271.11 603.333 1267.59 604.44 1264.53 604.893C1261.46 605.36 1258.86 605.253 1256.72 604.573C1254.59 603.893 1252.94 602.667 1251.77 600.893C1250.6 599.12 1249.96 596.867 1249.84 594.12L1236.38 600.027L1237.13 592.293L1250.52 586.413C1251.19 583.533 1252.32 580.547 1253.91 577.427C1255.51 574.32 1257.67 571.24 1260.41 568.16C1263.15 565.107 1266.51 562.133 1270.5 559.253C1274.49 556.387 1279.19 553.76 1284.6 551.387L1283.24 565.467C1280.03 566.867 1277.33 568.347 1275.14 569.88C1272.94 571.427 1271.15 572.973 1269.76 574.547C1268.38 576.12 1267.37 577.667 1266.73 579.173C1266.08 580.68 1265.7 582.107 1265.57 583.427C1265.42 584.96 1265.58 586.173 1266.06 587.067C1266.53 587.96 1267.25 588.573 1268.21 588.893C1269.17 589.213 1270.35 589.253 1271.73 589.027C1273.11 588.787 1274.63 588.307 1276.3 587.573Z" fill="#FFA412"/>
<path d="M1350.99 777.187C1351.61 775.853 1352.39 774.64 1353.29 773.533V773.52C1353.97 772.693 1354.72 771.947 1355.53 771.253L1358.92 767.813L1359.81 768.48C1377.12 760 1412.88 768.987 1449.05 792.6C1492.77 821.133 1520.83 860.44 1512.73 881.32L1513.97 882.227L1509.11 887.08C1508.88 887.32 1508.64 887.56 1508.39 887.787L1508.25 887.933L1508.21 887.96C1506.97 889.08 1505.57 890.067 1504 890.88L1503.97 890.907V890.893C1486.88 899.853 1450.75 890.947 1414.17 867.067C1369.65 837.987 1341.36 797.76 1350.99 777.187Z" fill="#FFA412"/>
<path d="M1454.25 787.4C1409.72 758.32 1365.81 751.427 1356.19 771.987C1346.56 792.56 1374.85 832.787 1419.37 861.867C1463.91 890.947 1507.81 897.84 1517.45 877.28C1527.08 856.707 1498.79 816.467 1454.25 787.4Z" fill="#FFB93E"/>
<path d="M1378.51 772.013C1373.91 773.347 1370.75 775.814 1369.12 779.374C1365.67 786.894 1369.37 799.04 1379.27 812.694C1389.56 826.894 1405.32 841.32 1423.64 853.307C1446.47 868.253 1470.19 877.08 1486.33 877.08C1489.59 877.08 1492.55 876.72 1495.12 875.973C1499.72 874.653 1502.88 872.173 1504.51 868.613C1507.96 861.093 1504.27 848.947 1494.36 835.294C1484.07 821.094 1468.31 806.667 1450 794.68C1427.17 779.733 1403.45 770.907 1387.31 770.907C1384.04 770.907 1381.08 771.28 1378.51 772.013ZM1421.85 856.04C1403.21 843.84 1387.15 829.12 1376.63 814.613C1365.85 799.76 1362.13 786.76 1366.15 778.013C1368.2 773.547 1372.05 770.48 1377.6 768.88C1394.04 764.147 1423.16 773.2 1451.79 791.947C1470.43 804.147 1486.48 818.867 1497 833.373C1507.77 848.227 1511.49 861.227 1507.48 869.973C1505.44 874.44 1501.59 877.507 1496.03 879.107C1493.13 879.947 1489.84 880.347 1486.23 880.347C1469.35 880.347 1445.43 871.48 1421.85 856.04Z" fill="#FFA412"/>
<path d="M1458.08 836.28C1459.08 836.453 1459.93 836.427 1460.63 836.187C1461.33 835.947 1461.85 835.507 1462.2 834.853C1462.53 834.213 1462.65 833.333 1462.55 832.227C1462.45 831.253 1462.17 830.227 1461.71 829.133C1461.24 828.027 1460.51 826.92 1459.51 825.773C1458.51 824.627 1457.2 823.507 1455.6 822.387C1454.01 821.267 1452.05 820.2 1449.72 819.173L1448.73 808.96C1452.67 810.68 1456.08 812.587 1458.97 814.667C1461.87 816.76 1464.31 818.92 1466.29 821.147C1468.28 823.36 1469.85 825.613 1471.01 827.867C1472.17 830.12 1472.99 832.293 1473.48 834.387L1483.2 838.653L1483.75 844.28L1473.97 839.987C1473.88 841.973 1473.41 843.613 1472.57 844.893C1471.72 846.187 1470.52 847.08 1468.97 847.573C1467.43 848.053 1465.53 848.147 1463.31 847.8C1461.08 847.467 1458.53 846.667 1455.65 845.4C1452.48 844.013 1449.69 842.427 1447.29 840.667C1444.89 838.907 1442.76 836.96 1440.88 834.853C1439 832.747 1437.29 830.453 1435.77 827.987C1434.25 825.533 1432.73 822.867 1431.24 820.027C1430.32 818.267 1429.44 816.747 1428.61 815.467C1427.79 814.187 1426.92 813.08 1426.04 812.133C1425.15 811.187 1424.2 810.387 1423.19 809.72C1422.19 809.053 1421.08 808.453 1419.87 807.92C1418.65 807.387 1417.53 807.013 1416.52 806.787C1415.49 806.56 1414.61 806.533 1413.89 806.68C1413.17 806.84 1412.63 807.213 1412.27 807.773C1411.89 808.347 1411.76 809.16 1411.87 810.227C1412.05 812.187 1413.19 814.173 1415.24 816.2C1417.31 818.213 1420.29 820.093 1424.23 821.813L1425.21 832.027C1421.93 830.6 1418.96 828.987 1416.25 827.2C1413.56 825.427 1411.2 823.533 1409.15 821.52C1407.11 819.52 1405.4 817.427 1404.03 815.253C1402.67 813.067 1401.68 810.88 1401.09 808.68L1390.44 804L1389.89 798.347L1400.4 802.96C1400.48 800.96 1400.97 799.347 1401.88 798.107C1402.77 796.867 1404.01 796 1405.6 795.52C1407.19 795.053 1409.09 794.987 1411.32 795.333C1413.55 795.68 1416.05 796.453 1418.83 797.68C1422.04 799.093 1424.84 800.68 1427.23 802.44C1429.63 804.2 1431.76 806.133 1433.63 808.24C1435.49 810.347 1437.17 812.64 1438.68 815.107C1440.19 817.573 1441.67 820.227 1443.09 823.067C1443.92 824.707 1444.73 826.16 1445.53 827.413C1446.35 828.653 1447.21 829.76 1448.12 830.72C1449.03 831.68 1450.01 832.52 1451.09 833.24C1452.16 833.96 1453.39 834.627 1454.76 835.227C1455.97 835.76 1457.08 836.107 1458.08 836.28Z" fill="#FFA412"/>
<path d="M2731.49 2148.92L1661.9 2334.07L1432.41 1008.28L2501.99 823.13L2731.49 2148.92Z" fill="#F8FCFF"/>
<path d="M2510.16 1603.22L2393.03 1623.49L2459.96 1933.06L2551.21 1917.26L2510.16 1603.22ZM2585.45 2020.12C2584.05 2011.94 2581.29 2004.66 2577.16 1998.25C2573.04 1991.81 2567.91 1986.52 2561.7 1982.37C2555.5 1978.24 2548.34 1975.38 2540.23 1973.85C2532.14 1972.33 2523.39 1972.37 2514.03 1974C2504.63 1975.63 2496.45 1978.5 2489.48 1982.65C2482.5 1986.78 2476.78 1991.85 2472.34 1997.85C2467.89 2003.84 2464.82 2010.56 2463.07 2017.98C2461.37 2025.42 2461.23 2033.23 2462.64 2041.38C2464.05 2049.54 2466.8 2056.78 2470.89 2063.08C2474.99 2069.38 2480.13 2074.6 2486.34 2078.76C2492.56 2082.9 2499.62 2085.77 2507.6 2087.32C2515.57 2088.85 2524.23 2088.84 2533.63 2087.21C2542.99 2085.58 2551.25 2082.68 2558.36 2078.52C2565.48 2074.36 2571.24 2069.28 2575.69 2063.29C2580.15 2057.31 2583.24 2050.65 2584.97 2043.34C2586.7 2036.02 2586.88 2028.29 2585.45 2020.12Z" fill="#F78248"/>
<path d="M2429.77 990.877L2130.02 1042.76C2126.87 1043.3 2123.87 1041.19 2123.33 1038.04C2122.78 1034.89 2124.9 1031.9 2128.05 1031.35L2427.8 979.464C2430.95 978.911 2433.96 981.032 2434.49 984.184C2435.05 987.336 2432.92 990.324 2429.77 990.877Z" fill="#AEC3FF"/>
<path d="M2436.53 1029.95L2136.77 1081.83C2133.63 1082.38 2130.63 1080.27 2130.09 1077.11C2129.55 1073.97 2131.67 1070.97 2134.81 1070.43L2434.57 1018.54C2437.72 1018 2440.71 1020.11 2441.25 1023.26C2441.8 1026.4 2439.69 1029.4 2436.53 1029.95Z" fill="#AEC3FF"/>
<path d="M2443.31 1069.03L2143.55 1120.92C2140.39 1121.46 2137.4 1119.35 2136.86 1116.2C2136.32 1113.05 2138.42 1110.06 2141.58 1109.5L2441.32 1057.61C2444.48 1057.07 2447.47 1059.19 2448.02 1062.33C2448.56 1065.49 2446.46 1068.49 2443.31 1069.03Z" fill="#AEC3FF"/>
<path d="M2274.58 1218.4L2067.6 1254.22C2063.08 1255.01 2058.77 1251.97 2057.98 1247.43C2057.2 1242.91 2060.24 1238.6 2064.76 1237.82L2271.74 1201.99C2276.27 1201.2 2280.58 1204.24 2281.37 1208.78C2282.15 1213.3 2279.11 1217.61 2274.58 1218.4Z" fill="#AEC3FF"/>
<path d="M2461.01 1186.12L2333.72 1208.16C2329.17 1208.94 2324.87 1205.9 2324.09 1201.37C2323.3 1196.84 2326.34 1192.52 2330.87 1191.74L2458.16 1169.7C2462.7 1168.92 2467.02 1171.96 2467.79 1176.49C2468.58 1181.03 2465.54 1185.34 2461.01 1186.12Z" fill="#AEC3FF"/>
<path d="M1986.53 1268.25L1593.15 1336.35C1588.61 1337.13 1584.31 1334.09 1583.52 1329.56C1582.73 1325.03 1585.77 1320.72 1590.31 1319.93L1983.69 1251.84C1988.23 1251.05 1992.55 1254.09 1993.33 1258.63C1994.11 1263.16 1991.07 1267.47 1986.53 1268.25Z" fill="#AEC3FF"/>
<path d="M1920.93 1338.09L1602.97 1393.13C1598.44 1393.92 1594.13 1390.88 1593.35 1386.35C1592.56 1381.81 1595.6 1377.49 1600.13 1376.71L1918.09 1321.68C1922.63 1320.89 1926.95 1323.93 1927.72 1328.47C1928.51 1333 1925.47 1337.31 1920.93 1338.09Z" fill="#AEC3FF"/>
<path d="M2291.55 1273.94L1973.59 1328.98C1969.05 1329.76 1964.74 1326.72 1963.95 1322.19C1963.17 1317.65 1966.22 1313.34 1970.75 1312.56L2288.72 1257.52C2293.24 1256.74 2297.55 1259.77 2298.34 1264.31C2299.13 1268.84 2296.08 1273.15 2291.55 1273.94Z" fill="#AEC3FF"/>
<path d="M2299.9 1387.96L2092.93 1423.77C2088.4 1424.56 2084.09 1421.52 2083.29 1416.98C2082.53 1412.45 2085.56 1408.14 2090.1 1407.36L2297.05 1371.53C2301.6 1370.74 2305.91 1373.78 2306.69 1378.32C2307.47 1382.85 2304.43 1387.17 2299.9 1387.96Z" fill="#AEC3FF"/>
<path d="M2486.33 1355.68L2359.03 1377.72C2354.5 1378.5 2350.17 1375.46 2349.41 1370.93C2348.63 1366.4 2351.66 1362.09 2356.2 1361.3L2483.48 1339.26C2488.02 1338.48 2492.32 1341.52 2493.12 1346.05C2493.9 1350.58 2490.86 1354.9 2486.33 1355.68Z" fill="#AEC3FF"/>
<path d="M2011.85 1437.81L1618.47 1505.91C1613.93 1506.69 1609.61 1503.65 1608.83 1499.12C1608.05 1494.59 1611.09 1490.28 1615.63 1489.49L2009.01 1421.4C2013.55 1420.61 2017.85 1423.65 2018.64 1428.19C2019.43 1432.72 2016.39 1437.03 2011.85 1437.81Z" fill="#AEC3FF"/>
<path d="M1946.25 1507.65L1628.29 1562.69C1623.76 1563.47 1619.44 1560.43 1618.67 1555.89C1617.88 1551.36 1620.92 1547.05 1625.45 1546.27L1943.41 1491.23C1947.95 1490.44 1952.25 1493.48 1953.04 1498.01C1953.83 1502.56 1950.79 1506.87 1946.25 1507.65Z" fill="#AEC3FF"/>
<path d="M2495.98 1412.5L1998.88 1498.54C1994.35 1499.32 1990.05 1496.28 1989.26 1491.75C1988.48 1487.22 1991.5 1482.91 1996.05 1482.13L2493.12 1396.09C2497.65 1395.3 2501.98 1398.34 2502.77 1402.87C2503.55 1407.41 2500.51 1411.71 2495.98 1412.5Z" fill="#AEC3FF"/>
<path d="M2320.8 1508.67L2113.82 1544.49C2109.29 1545.28 2104.98 1542.24 2104.18 1537.71C2103.41 1533.18 2106.45 1528.85 2110.99 1528.07L2317.94 1492.24C2322.47 1491.47 2326.8 1494.51 2327.59 1499.04C2328.36 1503.56 2325.33 1507.88 2320.8 1508.67Z" fill="#AEC3FF"/>
<path d="M2507.21 1476.4L2379.91 1498.43C2375.39 1499.21 2371.07 1496.17 2370.29 1491.64C2369.5 1487.11 2372.54 1482.8 2377.07 1482.01L2504.37 1459.97C2508.91 1459.19 2513.21 1462.23 2514 1466.76C2514.79 1471.29 2511.75 1475.61 2507.21 1476.4Z" fill="#AEC3FF"/>
<path d="M2032.75 1558.52L1639.36 1626.61C1634.83 1627.4 1630.51 1624.36 1629.72 1619.83C1628.95 1615.29 1631.99 1610.99 1636.52 1610.2L2029.91 1542.11C2034.44 1541.32 2038.75 1544.36 2039.53 1548.89C2040.32 1553.43 2037.28 1557.73 2032.75 1558.52Z" fill="#AEC3FF"/>
<path d="M1967.15 1628.36L1649.19 1683.4C1644.65 1684.19 1640.33 1681.15 1639.56 1676.61C1638.77 1672.08 1641.81 1667.76 1646.35 1666.97L1964.31 1611.95C1968.84 1611.16 1973.15 1614.2 1973.93 1618.73C1974.72 1623.27 1971.68 1627.57 1967.15 1628.36Z" fill="#AEC3FF"/>
<path d="M2337.76 1564.21L2019.79 1619.23C2015.26 1620.02 2010.96 1616.98 2010.16 1612.45C2009.39 1607.92 2012.42 1603.61 2016.96 1602.82L2334.91 1547.78C2339.45 1546.99 2343.78 1550.03 2344.55 1554.57C2345.33 1559.1 2342.3 1563.42 2337.76 1564.21Z" fill="#AEC3FF"/>
<path d="M1767.55 708.44C1767.55 708.44 1816.27 762.787 1818.93 787.653C1821.6 812.507 1796.56 867.28 1808.35 891.267C1812.01 898.733 1867.92 973.107 1885.15 977.387C1896.8 980.267 1913.77 951.173 1897.2 922.68C1880.43 893.827 1877.36 836.68 1880.21 811.547C1885.07 768.667 1915.92 669.027 1921.37 687.787L2016.13 673.2L1926.64 636.08L1767.55 708.44Z" fill="#E59365"/>
<path d="M1736.68 839.52C1736.68 839.52 1727.79 948.174 1735.91 989.694C1739.16 1006.35 1754.99 1059.95 1770.84 1065.8C1797.03 1075.45 1811.57 1029.44 1800.4 979.36C1797.35 965.654 1819.28 881.293 1833.84 842.747C1870.01 746.92 1891.84 689.24 1891.84 689.24L1736.68 839.52Z" fill="#F2A36D"/>
<path d="M2520.33 493.108C2497.03 506.622 2475.26 519.44 2456.31 530.805C2445.78 537.16 2436.11 543.051 2427.59 548.37C2413.81 556.951 2403 564.018 2396.17 569.027C2378.69 581.83 2350.03 597.431 2328.83 618.924L2328.81 618.955L2328.71 619.047C2287.45 647.931 2285.44 682.21 2283.8 703.146C2279.69 755.052 2231.09 831.188 2165.18 907.323C2129.24 948.839 2097.38 1009.67 2086.38 1033.76C2082.78 1041.67 2076.02 1060.03 2068.23 1079.43C2057.39 1106.48 2044.59 1135.57 2035.53 1141.28C2032.91 1142.93 2028.54 1142.4 2023.47 1140.45C2010.56 1135.55 1992.99 1121.63 1987.87 1110.91C1972.54 1078.83 1984.83 1029.98 2014.76 952.798C2043.32 879.26 2039.39 842.042 2028.65 809.108C2021.64 787.708 2011.45 767.128 1979.93 754.542C1976.22 753.073 1964.79 747.553 1949.22 743.162C1933.97 738.864 1914.74 735.647 1894.93 738.415C1888.07 739.374 1881.12 741.044 1874.24 743.657C1858.58 749.563 1843.27 760.278 1830.04 778.168C1829.6 778.725 1829.19 779.297 1828.74 779.838L1828.72 779.869V779.885C1823.5 786.688 1817.48 793.027 1811.08 799.042C1798.32 811.041 1783.91 821.818 1770.72 832.734C1757.74 843.511 1745.83 854.381 1737.79 866.735V866.751C1732.98 874.095 1729.53 881.965 1728.02 890.624C1723.08 918.812 1708.57 946.597 1694.11 977.444L1694.09 977.46C1683.61 999.756 1673.16 1023.66 1666.39 1050.47C1650.07 1115 1613.46 1121.64 1594.36 1102.07C1594.13 1101.84 1593.88 1101.57 1593.65 1101.31C1587.79 1094.96 1587.9 1059.98 1589.62 1028.53C1590.9 1005 1593.06 983.413 1594.32 977.274C1598.15 958.132 1630.39 883.001 1646.07 805.227C1657.76 747.228 1748.92 660.919 1813.41 546.731C1845.51 489.923 1968.05 474.786 2096.37 401.109C2103.28 397.166 2110.83 394.46 2117.99 391.012L2118 390.996C2138.49 381.101 2158.54 370.416 2178.15 358.99C2206.79 358.928 2235.64 360.428 2264.65 363.35C2284.13 365.329 2303.66 367.927 2323.26 371.189H2323.28C2354.39 376.354 2385.58 383.064 2416.76 391.228C2456.19 424.951 2490.39 458.983 2520.33 493.108Z" fill="#FFB27D"/>
<path d="M2464.02 540.039L2441.81 554.218L2435.99 557.922L2333 623.71L2328.69 619.054L2117.38 391.533L2118 391.004H2118.01L2196.84 327.106C2204.04 326.168 2211.22 325.276 2218.34 324.445C2220.29 324.203 2222.26 323.961 2224.21 323.75C2234.67 332.411 2251.04 346.712 2270.42 363.96C2332.55 419.211 2425.68 504.757 2454.92 531.649C2460.74 537.016 2464.02 540.039 2464.02 540.039Z" fill="#9FC1F4"/>
<path d="M2805.14 348.397L2487.04 574.151C2487.04 574.151 2466.39 566.406 2441.82 554.205C2437.6 552.105 2433.28 549.885 2428.91 547.545C2413.64 539.37 2398.02 529.785 2385.7 519.493C2328.58 471.926 2276.16 405.636 2244.18 361.528C2232.67 345.661 2223.82 332.667 2218.35 324.441C2220.3 324.2 2222.26 323.959 2224.2 323.753C2452.83 297.147 2645.47 309.4 2805.14 348.397Z" fill="#F99746"/>
<path d="M2354.47 560.708C2357.95 555.105 2365.35 553.384 2370.95 556.885C2376.57 560.387 2378.28 567.77 2374.79 573.373C2371.29 578.99 2363.91 580.712 2358.29 577.21C2352.67 573.708 2350.96 566.326 2354.47 560.708Z" fill="#2A4E96"/>
<path d="M1432.41 1008.28L2006.2 908.96L1934.11 1225.81L1526.67 1314.41L1432.41 1008.28Z" fill="#F8FCFF"/>
<path d="M1643.57 1178.17L1639.51 1154.61L1583.28 1164.33L1578.93 1139.27L1642.73 1128.23L1638.65 1104.65L1635.65 1105.17L1606.89 1110.16L1548.93 1120.19L1569.32 1238L1595.27 1233.52L1587.36 1187.92L1643.57 1178.17Z" fill="#F78248"/>
<path d="M1686.45 1096.39L1660.53 1100.87L1680.92 1218.68L1706.84 1214.2L1686.45 1096.39Z" fill="#F78248"/>
<path d="M1841 1190.99L1820.61 1073.17L1795.01 1077.59L1807.56 1150.13L1739.8 1087.15L1715.91 1091.28L1736.32 1209.12L1761.88 1204.68L1748.92 1129.79L1818.96 1194.81L1841 1190.99Z" fill="#F78248"/>
<path d="M1955 1147.51L1951.8 1148.07L1891.04 1158.59L1886.75 1133.84L1942.31 1124.21L1938.32 1101.15L1882.77 1110.79L1878.63 1086.87L1941.75 1075.93L1937.76 1052.88L1848.88 1068.27L1869.28 1186.08L1946.17 1172.77L1959 1170.56L1955 1147.51Z" fill="#F78248"/>
<path d="M1981.63 1196.99L1571.81 1267.93L1570.8 1262.03L1980.6 1191.09L1981.63 1196.99Z" fill="#F78248"/>
<path d="M2348.18 2333.99V2356.41C2348.18 2358.19 2347.53 2359.84 2346.42 2361.23C2345.24 2362.68 2343.57 2363.81 2341.59 2364.45C2340.97 2364.67 2340.37 2364.81 2339.71 2364.91C2339.12 2365 2338.51 2365.04 2337.88 2365.04H1912.76C1907.61 2365.04 1903.32 2361.84 1902.57 2357.69C1902.53 2357.41 1902.49 2357.14 1902.47 2356.84C1902.47 2356.69 1902.46 2356.55 1902.46 2356.41V2333.99C1902.46 2333.84 1902.47 2333.7 1902.47 2333.55C1902.49 2333.25 1902.53 2332.97 1902.57 2332.71C1903.32 2328.56 1907.61 2325.36 1912.76 2325.36H2337.88C2338.51 2325.36 2339.12 2325.4 2339.71 2325.5C2340.37 2325.59 2340.97 2325.75 2341.59 2325.95C2343.57 2326.57 2345.24 2327.72 2346.42 2329.17C2347.53 2330.55 2348.18 2332.21 2348.18 2333.99Z" fill="#FFB93E"/>
<path d="M2139.43 2365.04H1911.67C1907.44 2365.04 1903.88 2362.31 1902.83 2358.64C1902.72 2358.33 1902.64 2358.01 1902.57 2357.69C1902.53 2357.41 1902.49 2357.13 1902.48 2356.84C1902.48 2356.69 1902.47 2356.55 1902.47 2356.41V2333.99C1902.47 2333.84 1902.48 2333.69 1902.48 2333.55C1902.49 2333.25 1902.53 2332.97 1902.57 2332.71C1902.64 2332.37 1902.72 2332.07 1902.83 2331.75C1903.88 2328.08 1907.44 2325.36 1911.67 2325.36H2111.45C2114.64 2337.04 2122.08 2353.19 2139.43 2365.04Z" fill="#FFA412"/>
<path d="M2296.45 2365.04H2291.62V2325.36H2296.45V2365.04Z" fill="#FFA412"/>
<path d="M2280.09 2365.04H2275.26V2325.36H2280.09V2365.04Z" fill="#FFA412"/>
<path d="M2260.48 2365.04H2255.66V2325.36H2260.48V2365.04Z" fill="#FFA412"/>
<path d="M2230.43 2365.04H2225.58V2325.36H2230.43V2365.04Z" fill="#FFA412"/>
<path d="M2198.63 2365.04H2193.8V2325.36H2198.63V2365.04Z" fill="#FFA412"/>
<path d="M2149.89 2365.04H2145.07V2325.36H2149.89V2365.04Z" fill="#FFA412"/>
<path d="M2104.27 2365.04H2099.43V2325.36H2104.27V2365.04Z" fill="#FFA412"/>
<path d="M2063.51 2365.04H2058.68V2325.36H2063.51V2365.04Z" fill="#FFA412"/>
<path d="M2312.04 2365.04H2307.2V2325.36H2312.04V2365.04Z" fill="#FFA412"/>
<path d="M2322.32 2365.04H2317.49V2325.36H2322.32V2365.04Z" fill="#FFA412"/>
<path d="M2332.25 2365.04H2327.43V2325.36H2332.25V2365.04Z" fill="#FFA412"/>
<path d="M2339.72 2325.49V2364.91C2339.12 2365 2338.52 2365.04 2337.92 2365.04H2334.89V2325.36H2337.92C2338.52 2325.36 2339.12 2325.4 2339.72 2325.49Z" fill="#FFA412"/>
<path d="M2346.42 2329.17V2361.23C2345.24 2362.68 2343.57 2363.83 2341.6 2364.47V2325.94C2343.57 2326.57 2345.24 2327.72 2346.42 2329.17Z" fill="#FFA412"/>
<path d="M2302.73 2294.31V2316.71C2302.73 2318.51 2302.08 2320.16 2300.97 2321.55C2300.69 2321.91 2300.35 2322.25 2300.01 2322.57C2298.95 2323.52 2297.63 2324.29 2296.15 2324.77C2295.54 2324.97 2294.91 2325.12 2294.26 2325.21C2293.66 2325.31 2293.07 2325.36 2292.45 2325.36H1867.31C1862.18 2325.36 1857.9 2322.15 1857.13 2318C1857.09 2317.72 1857.05 2317.44 1857.03 2317.16C1857.02 2317.01 1857.02 2316.87 1857.02 2316.71V2294.31C1857.02 2294.16 1857.02 2294 1857.03 2293.85C1857.05 2293.57 1857.09 2293.29 1857.13 2293.01C1857.9 2288.88 1862.18 2285.67 1867.31 2285.67H2292.45C2292.72 2285.67 2293 2285.67 2293.27 2285.71L2293.55 2285.73H2293.59C2293.72 2285.73 2293.85 2285.73 2293.99 2285.77L2294.26 2285.8C2294.91 2285.91 2295.54 2286.04 2296.15 2286.24C2296.5 2286.36 2296.84 2286.49 2297.17 2286.64H2297.18C2297.41 2286.75 2297.63 2286.85 2297.86 2286.96L2298.23 2287.17L2298.58 2287.39C2299.03 2287.65 2299.44 2287.96 2299.82 2288.31C2299.96 2288.41 2300.06 2288.53 2300.18 2288.64L2300.39 2288.84L2300.49 2288.96L2300.59 2289.05C2300.73 2289.19 2300.85 2289.32 2300.97 2289.48C2302.08 2290.87 2302.73 2292.51 2302.73 2294.31Z" fill="#FFB93E"/>
<path d="M2093.97 2325.36H1866.2C1861.99 2325.36 1858.44 2322.61 1857.37 2318.95C1857.28 2318.64 1857.19 2318.32 1857.13 2318C1857.09 2317.72 1857.05 2317.44 1857.04 2317.16C1857.03 2317.01 1857.03 2316.87 1857.03 2316.71V2294.31C1857.03 2294.16 1857.03 2294 1857.04 2293.85C1857.05 2293.57 1857.09 2293.29 1857.13 2293.01C1857.19 2292.69 1857.28 2292.39 1857.37 2292.07C1858.44 2288.4 1861.99 2285.67 1866.2 2285.67H2066C2066.08 2285.99 2066.17 2286.31 2066.28 2286.64C2069.61 2298.24 2077.11 2313.84 2093.97 2325.36Z" fill="#FFA412"/>
<path d="M2251.01 2325.36H2246.17V2285.66H2251.01V2325.36Z" fill="#FFA412"/>
<path d="M2234.64 2325.36H2229.82V2285.67H2234.64V2325.36Z" fill="#FFA412"/>
<path d="M2215.02 2325.36H2210.19V2285.67H2215.02V2325.36Z" fill="#FFA412"/>
<path d="M2184.96 2325.36H2180.14V2285.67H2184.96V2325.36Z" fill="#FFA412"/>
<path d="M2153.17 2325.36H2148.35V2285.67H2153.17V2325.36Z" fill="#FFA412"/>
<path d="M2104.44 2325.36H2099.61V2285.67H2104.44V2325.36Z" fill="#FFA412"/>
<path d="M2058.8 2325.36H2053.97V2285.67H2058.8V2325.36Z" fill="#FFA412"/>
<path d="M2018.05 2325.36H2013.23V2285.67H2018.05V2325.36Z" fill="#FFA412"/>
<path d="M2266.57 2325.36H2261.73V2285.67H2266.57V2325.36Z" fill="#FFA412"/>
<path d="M2276.85 2325.36H2272.02V2285.67H2276.85V2325.36Z" fill="#FFA412"/>
<path d="M2286.78 2325.36H2281.96V2285.67H2286.78V2325.36Z" fill="#FFA412"/>
<path d="M2294.26 2285.8V2325.21C2293.65 2325.31 2293.06 2325.35 2292.43 2325.35H2289.42V2285.67H2292.43C2293.06 2285.67 2293.65 2285.71 2294.26 2285.8Z" fill="#FFA412"/>
<path d="M2300.97 2289.48V2321.53C2299.8 2322.99 2298.12 2324.13 2296.15 2324.77V2286.24C2298.12 2286.89 2299.8 2288.03 2300.97 2289.48Z" fill="#FFA412"/>
<path d="M2324.68 2255.59V2278.02C2324.68 2279.79 2324.03 2281.46 2322.93 2282.83C2321.75 2284.28 2320.08 2285.43 2318.1 2286.05C2317.5 2286.25 2316.85 2286.4 2316.21 2286.51C2315.63 2286.59 2315.01 2286.64 2314.4 2286.64H1889.26C1887.57 2286.64 1885.95 2286.28 1884.52 2285.67C1881.71 2284.43 1879.63 2282.12 1879.1 2279.39C1879.06 2279.2 1879.04 2279.01 1879.01 2278.83C1879 2278.72 1878.99 2278.59 1878.99 2278.45C1878.99 2278.31 1878.99 2278.16 1878.99 2278.02V2255.59C1878.99 2255.45 1878.99 2255.31 1878.99 2255.15C1879 2254.88 1879.03 2254.59 1879.09 2254.32C1879.84 2250.16 1884.14 2246.96 1889.26 2246.96H2314.4C2315.01 2246.96 2315.63 2247 2316.21 2247.1C2316.85 2247.19 2317.5 2247.33 2318.1 2247.53C2320.08 2248.19 2321.75 2249.32 2322.93 2250.77C2324.03 2252.15 2324.68 2253.81 2324.68 2255.59Z" fill="#FFB93E"/>
<path d="M2115.93 2286.64H1888.17C1886.64 2286.64 1885.21 2286.28 1883.95 2285.67C1881.43 2284.43 1879.57 2282.12 1879.11 2279.39C1879.07 2279.2 1879.05 2279.01 1879.03 2278.83C1879.01 2278.72 1879 2278.59 1879 2278.45C1878.99 2278.31 1878.99 2278.16 1878.99 2278.01V2255.59C1878.99 2255.45 1878.99 2255.31 1879 2255.15C1879.01 2254.88 1879.04 2254.59 1879.09 2254.32C1879.16 2254 1879.24 2253.69 1879.33 2253.4C1880.37 2249.71 1883.93 2246.96 1888.17 2246.96H2087.96C2091.07 2258.32 2098.19 2273.92 2114.55 2285.67C2114.99 2285.99 2115.45 2286.32 2115.93 2286.64Z" fill="#FFA412"/>
<path d="M2272.96 2286.64H2268.13V2246.96H2272.96V2286.64Z" fill="#FFA412"/>
<path d="M2256.62 2286.64H2251.77V2246.96H2256.62V2286.64Z" fill="#FFA412"/>
<path d="M2236.99 2286.64H2232.15V2246.96H2236.99V2286.64Z" fill="#FFA412"/>
<path d="M2206.93 2286.64H2202.11V2246.96H2206.93V2286.64Z" fill="#FFA412"/>
<path d="M2175.14 2286.64H2170.29V2246.96H2175.14V2286.64Z" fill="#FFA412"/>
<path d="M2126.4 2286.64H2121.57V2246.96H2126.4V2286.64Z" fill="#FFA412"/>
<path d="M2080.77 2286.64H2075.95V2246.96H2080.77V2286.64Z" fill="#FFA412"/>
<path d="M2040.03 2286.64H2035.19V2246.96H2040.03V2286.64Z" fill="#FFA412"/>
<path d="M2288.54 2286.64H2283.71V2246.96H2288.54V2286.64Z" fill="#FFA412"/>
<path d="M2298.82 2286.64H2293.98V2246.96H2298.82V2286.64Z" fill="#FFA412"/>
<path d="M2308.75 2286.64H2303.91V2246.96H2308.75V2286.64Z" fill="#FFA412"/>
<path d="M2316.23 2247.09V2286.51C2315.65 2286.6 2315.04 2286.64 2314.41 2286.64H2311.38V2246.96H2314.41C2315.04 2246.96 2315.65 2247 2316.23 2247.09Z" fill="#FFA412"/>
<path d="M2322.92 2250.77V2282.83C2321.76 2284.28 2320.07 2285.43 2318.09 2286.07V2247.54C2320.07 2248.18 2321.76 2249.32 2322.92 2250.77Z" fill="#FFA412"/>
<path d="M2334.88 2215.91V2238.32C2334.88 2240.11 2334.22 2241.76 2333.12 2243.13C2332.97 2243.32 2332.81 2243.49 2332.66 2243.67C2331.84 2244.53 2330.84 2245.27 2329.72 2245.8C2329.26 2246.01 2328.79 2246.21 2328.29 2246.37C2327.67 2246.57 2327.07 2246.72 2326.41 2246.81C2326.11 2246.85 2325.82 2246.89 2325.52 2246.92C2325.21 2246.95 2324.89 2246.96 2324.58 2246.96H1899.44C1894.32 2246.96 1890.02 2243.75 1889.26 2239.6C1889.23 2239.32 1889.19 2239.04 1889.17 2238.76V2215.45C1889.43 2211.25 1893.31 2207.83 1898.24 2207.33C1898.64 2207.29 1899.04 2207.27 1899.44 2207.27H2324.58C2324.89 2207.27 2325.21 2207.28 2325.52 2207.31C2325.82 2207.33 2326.11 2207.36 2326.41 2207.41C2327.07 2207.51 2327.67 2207.65 2328.29 2207.85C2330.26 2208.48 2331.94 2209.63 2333.12 2211.08C2334.22 2212.45 2334.88 2214.12 2334.88 2215.91Z" fill="#FFB93E"/>
<path d="M2126.12 2246.96H1898.36C1894.13 2246.96 1890.57 2244.23 1889.52 2240.56C1889.41 2240.24 1889.33 2239.92 1889.27 2239.6C1889.23 2239.32 1889.19 2239.04 1889.17 2238.76V2215.45C1889.41 2211.27 1892.88 2207.83 1897.27 2207.33C1897.63 2207.29 1897.99 2207.27 1898.36 2207.27H2098.15L2098.16 2207.33C2101.36 2219 2108.8 2235.13 2126.12 2246.96Z" fill="#FFA412"/>
<path d="M2283.15 2246.96H2278.32V2207.27H2283.15V2246.96Z" fill="#FFA412"/>
<path d="M2266.81 2246.96H2261.97V2207.27H2266.81V2246.96Z" fill="#FFA412"/>
<path d="M2247.18 2246.96H2242.34V2207.27H2247.18V2246.96Z" fill="#FFA412"/>
<path d="M2217.13 2246.96H2212.28V2207.27H2217.13V2246.96Z" fill="#FFA412"/>
<path d="M2185.33 2246.96H2180.5V2207.26H2185.33V2246.96Z" fill="#FFA412"/>
<path d="M2136.59 2246.96H2131.76V2207.27H2136.59V2246.96Z" fill="#FFA412"/>
<path d="M2090.96 2246.96H2086.12V2207.27H2090.96V2246.96Z" fill="#FFA412"/>
<path d="M2045.37 2246.96H2050.21V2207.27H2045.37V2246.96Z" fill="#FFA412"/>
<path d="M2298.71 2246.96H2293.89V2207.27H2298.71V2246.96Z" fill="#FFA412"/>
<path d="M2308.99 2246.96H2304.16V2207.27H2308.99V2246.96Z" fill="#FFA412"/>
<path d="M2318.92 2246.96H2314.1V2207.27H2318.92V2246.96Z" fill="#FFA412"/>
<path d="M2326.42 2207.4V2246.81C2325.82 2246.91 2325.22 2246.94 2324.61 2246.94H2321.58V2207.27H2324.61C2325.22 2207.27 2325.82 2207.31 2326.42 2207.4Z" fill="#FFA412"/>
<path d="M2333.12 2211.08V2243.13C2331.94 2244.59 2330.27 2245.73 2328.29 2246.37V2207.84C2330.27 2208.49 2331.94 2209.63 2333.12 2211.08Z" fill="#FFA412"/>
<path d="M2303.6 2176.28V2198.68C2303.6 2200.48 2302.98 2202.12 2301.85 2203.51C2300.68 2204.96 2299.01 2206.11 2297.02 2206.75C2296.42 2206.95 2295.79 2207.1 2295.15 2207.19C2294.95 2207.23 2294.76 2207.25 2294.54 2207.27H2294.47L2294.15 2207.3L2293.87 2207.32C2293.68 2207.32 2293.51 2207.34 2293.34 2207.34H1868.21C1862.71 2207.34 1858.2 2203.68 1857.92 2199.14C1857.91 2198.99 1857.91 2198.84 1857.91 2198.68V2176.28C1857.91 2176.13 1857.91 2175.98 1857.92 2175.83L1857.95 2175.47C1858.37 2171.81 1861.52 2168.79 1865.66 2167.91L1865.96 2167.84C1866.68 2167.71 1867.43 2167.64 1868.21 2167.64H2293.34C2293.64 2167.64 2293.94 2167.64 2294.25 2167.67C2294.37 2167.69 2294.52 2167.71 2294.63 2167.71H2294.66H2294.67C2294.83 2167.72 2295 2167.75 2295.15 2167.78C2295.79 2167.87 2296.42 2168.02 2297.02 2168.22C2299.01 2168.86 2300.68 2170 2301.85 2171.46C2302.98 2172.84 2303.6 2174.5 2303.6 2176.28Z" fill="#FFB93E"/>
<path d="M2094.85 2207.33H1867.11C1862.2 2207.33 1858.19 2203.68 1857.93 2199.13C1857.92 2198.99 1857.92 2198.84 1857.92 2198.68V2176.28C1857.92 2176.13 1857.92 2175.97 1857.93 2175.83L1857.96 2175.47C1858.32 2171.72 1861.27 2168.67 1865.09 2167.85C1865.21 2167.83 1865.33 2167.79 1865.47 2167.77C1866 2167.69 1866.55 2167.64 1867.11 2167.64H2066.89L2066.97 2167.92C2070.2 2179.56 2077.63 2195.52 2094.76 2207.27L2094.85 2207.33Z" fill="#FFA412"/>
<path d="M2251.9 2207.33H2247.08V2167.64H2251.9V2207.33Z" fill="#FFA412"/>
<path d="M2235.53 2207.33H2230.71V2167.64H2235.53V2207.33Z" fill="#FFA412"/>
<path d="M2215.93 2207.33H2211.1V2167.64H2215.93V2207.33Z" fill="#FFA412"/>
<path d="M2185.87 2207.33H2181.03V2167.64H2185.87V2207.33Z" fill="#FFA412"/>
<path d="M2154.07 2207.33H2149.24V2167.64H2154.07V2207.33Z" fill="#FFA412"/>
<path d="M2105.33 2207.33H2100.51V2167.64H2105.33V2207.33Z" fill="#FFA412"/>
<path d="M2059.69 2207.33H2054.87V2167.64H2059.69V2207.33Z" fill="#FFA412"/>
<path d="M2014.12 2207.32H2018.95V2167.64H2014.12V2207.32Z" fill="#FFA412"/>
<path d="M2267.46 2207.33H2262.62V2167.64H2267.46V2207.33Z" fill="#FFA412"/>
<path d="M2277.74 2207.33H2272.92V2167.64H2277.74V2207.33Z" fill="#FFA412"/>
<path d="M2287.67 2207.33H2282.84V2167.64H2287.67V2207.33Z" fill="#FFA412"/>
<path d="M2295.17 2167.77V2207.18C2294.56 2207.28 2293.97 2207.33 2293.34 2207.33H2290.33V2167.64H2293.34C2293.97 2167.64 2294.56 2167.68 2295.17 2167.77Z" fill="#FFA412"/>
<path d="M2301.86 2171.45V2203.51C2300.69 2204.96 2299.01 2206.11 2297.03 2206.75V2168.23C2299.01 2168.85 2300.69 2170 2301.86 2171.45Z" fill="#FFA412"/>
<path d="M2302.73 2136.88V2159.28C2302.73 2161.07 2302.08 2162.72 2300.97 2164.11C2300.69 2164.45 2300.35 2164.8 2300.01 2165.13C2298.95 2166.09 2297.63 2166.87 2296.15 2167.35C2295.67 2167.51 2295.18 2167.61 2294.68 2167.71H2294.67H2294.64C2294.51 2167.73 2294.38 2167.76 2294.26 2167.77C2293.66 2167.87 2293.07 2167.92 2292.45 2167.92H1867.31C1866.87 2167.92 1866.42 2167.89 1865.98 2167.84C1865.79 2167.83 1865.62 2167.8 1865.47 2167.77C1861.15 2167.12 1857.73 2164.16 1857.12 2160.48C1857.08 2160.23 1857.05 2159.99 1857.03 2159.73C1857.02 2159.57 1857.02 2159.43 1857.02 2159.28V2136.88C1857.02 2136.72 1857.02 2136.57 1857.03 2136.43C1857.05 2136.15 1857.09 2135.87 1857.13 2135.59C1857.9 2131.44 1862.18 2128.23 1867.31 2128.23H2292.45C2292.72 2128.23 2293 2128.24 2293.27 2128.25L2293.37 2128.27L2293.59 2128.28C2293.72 2128.29 2293.85 2128.31 2293.99 2128.33L2294.26 2128.37C2294.91 2128.47 2295.54 2128.61 2296.15 2128.81C2296.5 2128.93 2296.84 2129.07 2297.17 2129.21H2297.18C2298.52 2129.8 2299.68 2130.61 2300.59 2131.6C2300.73 2131.75 2300.85 2131.89 2300.97 2132.04C2302.08 2133.43 2302.73 2135.08 2302.73 2136.88Z" fill="#FFB93E"/>
<path d="M2093.97 2167.92H1866.2C1866.03 2167.92 1865.84 2167.91 1865.67 2167.91C1865.47 2167.89 1865.27 2167.87 1865.09 2167.85C1860.97 2167.37 1857.68 2164.32 1857.12 2160.48C1857.08 2160.23 1857.05 2159.99 1857.04 2159.73C1857.03 2159.57 1857.03 2159.43 1857.03 2159.28V2136.88C1857.03 2136.72 1857.03 2136.57 1857.04 2136.43C1857.05 2136.15 1857.09 2135.87 1857.13 2135.59C1857.19 2135.27 1857.28 2134.95 1857.37 2134.64C1858.44 2130.97 1861.99 2128.23 1866.2 2128.23H2066C2066.08 2128.56 2066.17 2128.88 2066.28 2129.21C2069.59 2140.71 2076.99 2156.15 2093.56 2167.64C2093.69 2167.73 2093.84 2167.83 2093.97 2167.92Z" fill="#FFA412"/>
<path d="M2251.01 2167.92H2246.17V2128.22H2251.01V2167.92Z" fill="#FFA412"/>
<path d="M2234.64 2167.92H2229.82V2128.23H2234.64V2167.92Z" fill="#FFA412"/>
<path d="M2215.02 2167.92H2210.19V2128.23H2215.02V2167.92Z" fill="#FFA412"/>
<path d="M2184.96 2167.92H2180.14V2128.23H2184.96V2167.92Z" fill="#FFA412"/>
<path d="M2153.17 2167.92H2148.35V2128.23H2153.17V2167.92Z" fill="#FFA412"/>
<path d="M2104.44 2167.92H2099.61V2128.23H2104.44V2167.92Z" fill="#FFA412"/>
<path d="M2053.97 2167.92H2058.8V2128.23H2053.97V2167.92Z" fill="#FFA412"/>
<path d="M2013.23 2167.92H2018.05V2128.23H2013.23V2167.92Z" fill="#FFA412"/>
<path d="M2266.57 2167.92H2261.73V2128.23H2266.57V2167.92Z" fill="#FFA412"/>
<path d="M2276.85 2167.92H2272.02V2128.23H2276.85V2167.92Z" fill="#FFA412"/>
<path d="M2286.78 2167.92H2281.96V2128.23H2286.78V2167.92Z" fill="#FFA412"/>
<path d="M2294.26 2128.38V2167.79C2293.65 2167.87 2293.06 2167.92 2292.43 2167.92H2289.42V2128.23H2292.43C2293.06 2128.23 2293.65 2128.28 2294.26 2128.38Z" fill="#FFA412"/>
<path d="M2300.97 2132.05V2164.11C2299.8 2165.56 2298.12 2166.69 2296.15 2167.33V2128.81C2298.12 2129.45 2299.8 2130.6 2300.97 2132.05Z" fill="#FFA412"/>
<path d="M2324.68 2098.16V2120.58C2324.68 2122.36 2324.03 2124.02 2322.93 2125.4C2321.75 2126.86 2320.08 2127.99 2318.1 2128.63C2317.5 2128.83 2316.85 2128.98 2316.21 2129.07C2315.63 2129.16 2315.01 2129.22 2314.4 2129.22H1889.26C1887.57 2129.22 1885.95 2128.85 1884.52 2128.23C1881.71 2127 1879.63 2124.68 1879.1 2121.96C1879.06 2121.77 1879.04 2121.59 1879.01 2121.4C1879 2121.27 1878.99 2121.15 1878.99 2121.01C1878.99 2120.87 1878.99 2120.74 1878.99 2120.58V2098.16C1878.99 2098.01 1878.99 2097.85 1878.99 2097.71C1879 2097.43 1879.03 2097.15 1879.09 2096.88C1879.84 2092.73 1884.14 2089.52 1889.26 2089.52H2314.4C2315.01 2089.52 2315.63 2089.58 2316.21 2089.67C2316.85 2089.76 2317.5 2089.91 2318.1 2090.11C2320.08 2090.74 2321.75 2091.88 2322.93 2093.35C2324.03 2094.72 2324.68 2096.38 2324.68 2098.16Z" fill="#FFB93E"/>
<path d="M2115.93 2129.21H1888.17C1886.64 2129.21 1885.21 2128.85 1883.95 2128.23C1881.43 2127 1879.57 2124.68 1879.11 2121.96C1879.07 2121.77 1879.05 2121.59 1879.03 2121.4C1879.01 2121.27 1879 2121.15 1879 2121.01C1878.99 2120.87 1878.99 2120.73 1878.99 2120.57V2098.16C1878.99 2098.01 1878.99 2097.85 1879 2097.71C1879.01 2097.43 1879.04 2097.15 1879.09 2096.88C1879.16 2096.56 1879.24 2096.25 1879.33 2095.95C1880.37 2092.27 1883.93 2089.52 1888.17 2089.52H2087.96C2091.07 2100.88 2098.19 2116.49 2114.55 2128.23C2114.99 2128.56 2115.45 2128.88 2115.93 2129.21Z" fill="#FFA412"/>
<path d="M2272.96 2129.21H2268.13V2089.52H2272.96V2129.21Z" fill="#FFA412"/>
<path d="M2256.62 2129.21H2251.77V2089.52H2256.62V2129.21Z" fill="#FFA412"/>
<path d="M2236.99 2129.22H2232.15V2089.52H2236.99V2129.22Z" fill="#FFA412"/>
<path d="M2206.93 2129.21H2202.11V2089.52H2206.93V2129.21Z" fill="#FFA412"/>
<path d="M2175.14 2129.22H2170.29V2089.52H2175.14V2129.22Z" fill="#FFA412"/>
<path d="M2126.4 2129.21H2121.57V2089.52H2126.4V2129.21Z" fill="#FFA412"/>
<path d="M2080.77 2129.21H2075.95V2089.52H2080.77V2129.21Z" fill="#FFA412"/>
<path d="M2035.19 2129.21H2040.03V2089.52H2035.19V2129.21Z" fill="#FFA412"/>
<path d="M2288.54 2129.21H2283.71V2089.52H2288.54V2129.21Z" fill="#FFA412"/>
<path d="M2298.82 2129.21H2293.98V2089.52H2298.82V2129.21Z" fill="#FFA412"/>
<path d="M2308.75 2129.21H2303.91V2089.52H2308.75V2129.21Z" fill="#FFA412"/>
<path d="M2316.23 2089.67V2129.07C2315.65 2129.16 2315.04 2129.21 2314.41 2129.21H2311.38V2089.52H2314.41C2315.04 2089.52 2315.65 2089.57 2316.23 2089.67Z" fill="#FFA412"/>
<path d="M2322.92 2093.34V2125.4C2321.76 2126.85 2320.07 2127.99 2318.09 2128.63V2090.11C2320.07 2090.75 2321.76 2091.88 2322.92 2093.34Z" fill="#FFA412"/>
<path d="M2359.44 2058.47V2080.88C2359.44 2082.67 2358.78 2084.31 2357.67 2085.69L2357.66 2085.71C2357.51 2085.89 2357.37 2086.07 2357.21 2086.24C2356.56 2086.92 2355.8 2087.52 2354.93 2088.01C2354.5 2088.25 2354.07 2088.48 2353.59 2088.67L2353.57 2088.68C2353.34 2088.77 2353.1 2088.87 2352.85 2088.95C2352.24 2089.15 2351.6 2089.29 2350.95 2089.39C2350.39 2089.48 2349.77 2089.52 2349.16 2089.52H1924.01C1918.89 2089.52 1914.6 2086.32 1913.84 2082.18C1913.78 2081.89 1913.76 2081.61 1913.75 2081.32C1913.73 2081.17 1913.73 2081.03 1913.73 2080.88V2058.47C1913.73 2058.32 1913.73 2058.17 1913.75 2058.03C1913.99 2053.83 1917.87 2050.39 1922.8 2049.89C1923.2 2049.84 1923.59 2049.83 1924.01 2049.83H2349.16C2349.77 2049.83 2350.39 2049.88 2350.95 2049.96C2351.6 2050.07 2352.24 2050.21 2352.85 2050.42C2354.57 2050.97 2356.06 2051.92 2357.21 2053.11C2357.37 2053.28 2357.51 2053.45 2357.66 2053.64L2357.67 2053.65C2358.78 2055.04 2359.44 2056.68 2359.44 2058.47Z" fill="#FFB93E"/>
<path d="M2150.68 2089.52H1922.91C1918.68 2089.52 1915.12 2086.77 1914.08 2083.09C1913.99 2082.79 1913.89 2082.48 1913.84 2082.17C1913.79 2081.89 1913.76 2081.61 1913.75 2081.32C1913.73 2081.17 1913.73 2081.03 1913.73 2080.88V2058.47C1913.73 2058.32 1913.73 2058.17 1913.75 2058.03C1913.97 2053.83 1917.44 2050.39 1921.83 2049.89C1922.19 2049.84 1922.53 2049.83 1922.91 2049.83H2122.71L2122.72 2049.89C2125.92 2061.57 2133.36 2077.69 2150.68 2089.52Z" fill="#FFA412"/>
<path d="M2307.71 2089.52H2302.88V2049.84H2307.71V2089.52Z" fill="#FFA412"/>
<path d="M2291.37 2089.52H2286.53V2049.84H2291.37V2089.52Z" fill="#FFA412"/>
<path d="M2271.74 2089.52H2266.91V2049.84H2271.74V2089.52Z" fill="#FFA412"/>
<path d="M2241.68 2089.52H2236.84V2049.84H2241.68V2089.52Z" fill="#FFA412"/>
<path d="M2209.89 2089.52H2205.06V2049.84H2209.89V2089.52Z" fill="#FFA412"/>
<path d="M2161.15 2089.52H2156.32V2049.84H2161.15V2089.52Z" fill="#FFA412"/>
<path d="M2115.52 2089.52H2110.68V2049.84H2115.52V2089.52Z" fill="#FFA412"/>
<path d="M2074.77 2089.52H2069.93V2049.84H2074.77V2089.52Z" fill="#FFA412"/>
<path d="M2323.27 2089.52H2318.44V2049.84H2323.27V2089.52Z" fill="#FFA412"/>
<path d="M2333.55 2089.52H2328.73V2049.84H2333.55V2089.52Z" fill="#FFA412"/>
<path d="M2343.48 2089.52H2338.65V2049.84H2343.48V2089.52Z" fill="#FFA412"/>
<path d="M2350.98 2049.97V2089.38C2350.38 2089.46 2349.78 2089.52 2349.16 2089.52H2346.14V2049.82H2349.16C2349.78 2049.82 2350.38 2049.88 2350.98 2049.97Z" fill="#FFA412"/>
<path d="M2357.68 2053.65V2085.71C2356.5 2087.16 2354.83 2088.29 2352.84 2088.93V2050.42C2354.83 2051.05 2356.5 2052.2 2357.68 2053.65Z" fill="#FFA412"/>
<path d="M2303.6 2018.86V2041.26C2303.6 2043.06 2302.98 2044.7 2301.85 2046.08C2300.68 2047.54 2299.01 2048.68 2297.02 2049.32C2296.42 2049.52 2295.79 2049.66 2295.15 2049.75C2294.95 2049.78 2294.76 2049.8 2294.54 2049.83H2294.47C2294.33 2049.86 2294.2 2049.86 2294.06 2049.87L2293.82 2049.88C2293.65 2049.88 2293.51 2049.9 2293.34 2049.9H1868.21C1864.51 2049.9 1861.25 2048.26 1859.45 2045.79C1858.56 2044.59 1858.02 2043.19 1857.92 2041.71C1857.91 2041.55 1857.91 2041.4 1857.91 2041.26V2018.86C1857.91 2018.7 1857.91 2018.55 1857.92 2018.4C1858.15 2014.72 1861.17 2011.63 1865.21 2010.59C1866.14 2010.34 1867.16 2010.2 1868.21 2010.2H2293.34C2293.51 2010.2 2293.68 2010.22 2293.87 2010.22L2294.13 2010.24C2294.49 2010.26 2294.81 2010.3 2295.15 2010.35C2295.79 2010.44 2296.42 2010.59 2297.02 2010.79C2297.33 2010.88 2297.61 2010.99 2297.89 2011.12H2297.91C2299.04 2011.59 2300.06 2012.23 2300.89 2012.99L2300.92 2013.04L2301.05 2013.15C2301.34 2013.42 2301.6 2013.71 2301.85 2014.02C2302.98 2015.4 2303.6 2017.06 2303.6 2018.86Z" fill="#FFB93E"/>
<path d="M2094.85 2049.89H1867.11C1863.91 2049.89 1861.07 2048.33 1859.43 2045.99C1858.55 2044.73 1858.01 2043.27 1857.93 2041.71C1857.92 2041.55 1857.92 2041.4 1857.92 2041.25V2018.85C1857.92 2018.69 1857.92 2018.55 1857.93 2018.4C1858.16 2014.44 1861.23 2011.17 1865.24 2010.39C1865.84 2010.27 1866.47 2010.2 1867.11 2010.2H2066.89C2066.97 2010.51 2067.07 2010.81 2067.16 2011.12C2070.47 2022.71 2077.93 2038.29 2094.76 2049.83L2094.85 2049.89Z" fill="#FFA412"/>
<path d="M2251.9 2049.89H2247.08V2010.2H2251.9V2049.89Z" fill="#FFA412"/>
<path d="M2235.53 2049.89H2230.71V2010.2H2235.53V2049.89Z" fill="#FFA412"/>
<path d="M2215.93 2049.89H2211.1V2010.2H2215.93V2049.89Z" fill="#FFA412"/>
<path d="M2185.87 2049.89H2181.03V2010.2H2185.87V2049.89Z" fill="#FFA412"/>
<path d="M2154.07 2049.89H2149.24V2010.2H2154.07V2049.89Z" fill="#FFA412"/>
<path d="M2105.33 2049.89H2100.51V2010.2H2105.33V2049.89Z" fill="#FFA412"/>
<path d="M2059.69 2049.89H2054.87V2010.2H2059.69V2049.89Z" fill="#FFA412"/>
<path d="M2014.12 2049.89H2018.95V2010.2H2014.12V2049.89Z" fill="#FFA412"/>
<path d="M2267.46 2049.9H2262.62V2010.2H2267.46V2049.9Z" fill="#FFA412"/>
<path d="M2277.74 2049.9H2272.92V2010.2H2277.74V2049.9Z" fill="#FFA412"/>
<path d="M2287.67 2049.89H2282.84V2010.2H2287.67V2049.89Z" fill="#FFA412"/>
<path d="M2295.17 2010.34V2049.76C2294.56 2049.84 2293.97 2049.89 2293.34 2049.89H2290.33V2010.2H2293.34C2293.97 2010.2 2294.56 2010.25 2295.17 2010.34Z" fill="#FFA412"/>
<path d="M2301.86 2014.03V2046.08C2300.69 2047.53 2299.01 2048.67 2297.03 2049.31V2010.79C2299.01 2011.43 2300.69 2012.57 2301.86 2014.03Z" fill="#FFA412"/>
<path d="M2334.88 1980.07V2002.48C2334.88 2004.27 2334.22 2005.93 2333.12 2007.31C2331.94 2008.76 2330.26 2009.89 2328.29 2010.53C2327.69 2010.73 2327.06 2010.89 2326.41 2010.99C2325.81 2011.08 2325.21 2011.12 2324.59 2011.12H1899.44C1897.81 2011.12 1896.24 2010.79 1894.86 2010.2C1891.75 2008.91 1889.55 2006.31 1889.22 2003.28L1889.19 2002.93C1889.17 2002.79 1889.17 2002.63 1889.17 2002.48V1980.07C1889.17 1979.92 1889.17 1979.77 1889.19 1979.63C1889.43 1975.41 1893.31 1971.99 1898.24 1971.49C1898.64 1971.45 1899.04 1971.43 1899.44 1971.43H2324.59C2325.21 1971.43 2325.81 1971.48 2326.41 1971.57C2327.06 1971.67 2327.69 1971.81 2328.29 1972.01C2330.26 1972.65 2331.94 1973.8 2333.12 1975.25C2334.22 1976.63 2334.88 1978.28 2334.88 1980.07Z" fill="#FFB93E"/>
<path d="M2126.12 2011.12H1898.36C1896.88 2011.12 1895.49 2010.79 1894.25 2010.2C1891.49 2008.91 1889.52 2006.31 1889.21 2003.28L1889.19 2002.93C1889.17 2002.79 1889.17 2002.63 1889.17 2002.48V1980.07C1889.17 1979.92 1889.17 1979.77 1889.19 1979.63C1889.41 1975.43 1892.88 1971.99 1897.27 1971.49C1897.63 1971.45 1897.99 1971.43 1898.36 1971.43H2098.15L2098.16 1971.49C2101.28 1982.87 2108.43 1998.47 2124.81 2010.2C2125.24 2010.52 2125.68 2010.81 2126.12 2011.12Z" fill="#FFA412"/>
<path d="M2283.15 2011.12H2278.32V1971.42H2283.15V2011.12Z" fill="#FFA412"/>
<path d="M2266.81 2011.12H2261.97V1971.42H2266.81V2011.12Z" fill="#FFA412"/>
<path d="M2247.18 2011.12H2242.34V1971.43H2247.18V2011.12Z" fill="#FFA412"/>
<path d="M2217.13 2011.12H2212.28V1971.43H2217.13V2011.12Z" fill="#FFA412"/>
<path d="M2185.33 2011.12H2180.5V1971.42H2185.33V2011.12Z" fill="#FFA412"/>
<path d="M2136.59 2011.12H2131.76V1971.43H2136.59V2011.12Z" fill="#FFA412"/>
<path d="M2090.96 2011.12H2086.12V1971.43H2090.96V2011.12Z" fill="#FFA412"/>
<path d="M2050.21 2011.12H2045.37V1971.43H2050.21V2011.12Z" fill="#FFA412"/>
<path d="M2298.71 2011.12H2293.89V1971.43H2298.71V2011.12Z" fill="#FFA412"/>
<path d="M2308.99 2011.12H2304.16V1971.43H2308.99V2011.12Z" fill="#FFA412"/>
<path d="M2318.92 2011.12H2314.1V1971.43H2318.92V2011.12Z" fill="#FFA412"/>
<path d="M2326.42 1971.57V2010.98C2325.82 2011.06 2325.22 2011.12 2324.61 2011.12H2321.58V1971.42H2324.61C2325.22 1971.42 2325.82 1971.48 2326.42 1971.57Z" fill="#FFA412"/>
<path d="M2333.12 1975.25V2007.31C2331.94 2008.76 2330.27 2009.89 2328.29 2010.53V1972.01C2330.27 1972.65 2331.94 1973.8 2333.12 1975.25Z" fill="#FFA412"/>
<path d="M2348.18 1940.44V1962.86C2348.18 1964.64 2347.53 1966.3 2346.42 1967.68C2345.24 1969.14 2343.57 1970.27 2341.59 1970.91C2340.99 1971.11 2340.36 1971.27 2339.71 1971.36C2339.51 1971.39 2339.32 1971.42 2339.12 1971.43L2338.77 1971.47L2338.43 1971.48C2338.25 1971.5 2338.06 1971.5 2337.89 1971.5H1912.76C1907.27 1971.5 1902.77 1967.84 1902.49 1963.31C1902.47 1963.16 1902.47 1963 1902.47 1962.86V1940.44C1902.47 1940.3 1902.47 1940.15 1902.49 1940C1902.77 1935.46 1907.27 1931.8 1912.76 1931.8H2337.89C2338.51 1931.8 2339.12 1931.86 2339.71 1931.95C2340.36 1932.04 2340.99 1932.19 2341.59 1932.39C2343.57 1933.03 2345.24 1934.18 2346.42 1935.63C2347.53 1937 2348.18 1938.66 2348.18 1940.44Z" fill="#FFB93E"/>
<path d="M2139.43 1971.49H1911.67C1906.77 1971.49 1902.73 1967.84 1902.49 1963.31C1902.48 1963.16 1902.48 1963 1902.48 1962.85V1940.44C1902.48 1940.29 1902.48 1940.15 1902.49 1940C1902.73 1935.45 1906.77 1931.8 1911.67 1931.8H2111.45C2114.64 1943.47 2122.05 1959.59 2139.33 1971.43L2139.43 1971.49Z" fill="#FFA412"/>
<path d="M2296.45 1971.49H2291.62V1931.8H2296.45V1971.49Z" fill="#FFA412"/>
<path d="M2280.11 1971.49H2275.27V1931.8H2280.11V1971.49Z" fill="#FFA412"/>
<path d="M2260.48 1971.5H2255.64V1931.8H2260.48V1971.5Z" fill="#FFA412"/>
<path d="M2230.43 1971.49H2225.58V1931.8H2230.43V1971.49Z" fill="#FFA412"/>
<path d="M2198.63 1971.49H2193.8V1931.8H2198.63V1971.49Z" fill="#FFA412"/>
<path d="M2149.89 1971.49H2145.07V1931.8H2149.89V1971.49Z" fill="#FFA412"/>
<path d="M2104.27 1971.49H2099.43V1931.8H2104.27V1971.49Z" fill="#FFA412"/>
<path d="M2063.51 1931.8V1971.49H2058.68V1931.8H2063.51Z" fill="#FFA412"/>
<path d="M2312.04 1971.49H2307.2V1931.8H2312.04V1971.49Z" fill="#FFA412"/>
<path d="M2322.32 1971.49H2317.49V1931.8H2322.32V1971.49Z" fill="#FFA412"/>
<path d="M2332.25 1971.49H2327.43V1931.8H2332.25V1971.49Z" fill="#FFA412"/>
<path d="M2339.72 1931.94V1971.36C2339.12 1971.44 2338.52 1971.49 2337.92 1971.49H2334.89V1931.8H2337.92C2338.52 1931.8 2339.12 1931.85 2339.72 1931.94Z" fill="#FFA412"/>
<path d="M2346.42 1935.62V1967.68C2345.24 1969.14 2343.57 1970.27 2341.6 1970.91V1932.39C2343.57 1933.03 2345.24 1934.18 2346.42 1935.62Z" fill="#FFA412"/>
<path d="M2213.43 1705.62C2213.43 1705.62 2191.09 1737.06 2170.63 1737.5C2150.17 1737.94 2119.01 1722.93 2119.01 1722.93C2119.01 1722.93 2100.22 1681.04 2112.96 1664.65C2112.96 1664.65 2125.75 1659.04 2139.13 1668.94C2141.42 1670.65 2143.76 1672.81 2146.05 1675.57C2149.28 1679.48 2152.92 1681.69 2156.79 1682.86C2171.39 1687.3 2188.74 1676.85 2195.22 1686.94C2199.01 1692.81 2203.12 1697.21 2206.51 1700.3C2210.51 1703.88 2213.43 1705.62 2213.43 1705.62Z" fill="#FFEDDC"/>
<path d="M1922.33 1932.38C1922.33 1932.38 2001.24 1741.14 2143.31 1737.5C2143.31 1737.5 2274.45 1752.08 2281.74 1932.38H1922.33Z" fill="#FFEDDC"/>
<path d="M2104.4 1743.34C2104.4 1743.34 2161.35 1756 2178.91 1748.56C2178.91 1748.56 2181.57 1724.76 2157.59 1728.09C2141.16 1730.37 2130.47 1722.49 2124.19 1719.29C2115.29 1714.76 2102.03 1733.38 2104.4 1743.34Z" fill="#DB6A1D"/>
<path d="M2153.95 1707.45C2150.29 1710.19 2139.12 1668.95 2139.12 1668.95C2141.41 1670.65 2143.75 1672.81 2146.04 1675.57C2149.28 1679.48 2152.92 1681.69 2156.79 1682.87C2156.83 1684.07 2157.48 1704.79 2153.95 1707.45Z" fill="#E5C1A1"/>
<path d="M2206.5 1700.31C2205.7 1700.79 2179.37 1716.56 2175.8 1716.56C2172.16 1716.56 2195.21 1686.95 2195.21 1686.95C2198.99 1692.82 2203.11 1697.22 2206.5 1700.31Z" fill="#E5C1A1"/>
<path d="M1999.41 1878.96C1997.96 1877.72 2055.28 1794.57 2071.06 1793.96C2086.84 1793.36 2122.31 1812.17 2147.98 1814.61C2173.66 1817.04 2198.56 1809.75 2203.42 1824.93C2208.27 1840.11 2221.62 1893.92 2213.42 1902.53C2205.23 1911.13 2030.93 1905.88 1999.41 1878.96Z" fill="#F9DDBF"/>
<mask id="mask0_6_868" style="mask-type:luminance" maskUnits="userSpaceOnUse" x="1902" y="2325" width="56" height="27">
<path d="M1902.47 2351.44V2333.99C1902.47 2333.84 1902.48 2333.69 1902.48 2333.55C1902.49 2333.25 1902.53 2332.97 1902.57 2332.71C1902.64 2332.37 1902.72 2332.07 1902.83 2331.75C1903.88 2328.08 1907.44 2325.36 1911.67 2325.36H1957.08C1953.31 2327.65 1949.44 2329.84 1945.48 2331.93C1942.79 2333.33 1940.09 2334.67 1937.39 2335.96C1934.8 2337.45 1932.07 2338.75 1929.48 2340.32C1922 2344.91 1912.64 2348.55 1902.47 2351.44Z" fill="white"/>
</mask>
<g mask="url(#mask0_6_868)">
<path d="M1902.47 2351.44H1957.08V2325.36H1902.47V2351.44Z" fill="#F09210"/>
</g>
<path d="M1957.08 2325.36H1866.2C1861.99 2325.36 1858.44 2322.61 1857.37 2318.95C1857.28 2318.64 1857.19 2318.32 1857.13 2318C1857.09 2317.72 1857.05 2317.44 1857.04 2317.16C1857.03 2317.03 1857.03 2316.89 1857.03 2316.75C1857.03 2316.73 1857.03 2316.72 1857.03 2316.71V2294.31C1857.03 2294.16 1857.03 2294 1857.04 2293.85C1857.05 2293.57 1857.09 2293.29 1857.13 2293.01C1857.19 2292.69 1857.28 2292.39 1857.37 2292.07C1858.44 2288.4 1861.99 2285.67 1866.2 2285.67H1883.95C1885.21 2286.28 1886.64 2286.64 1888.17 2286.64H2003.79C1990.61 2301.4 1974.99 2314.51 1957.08 2325.36Z" fill="#F09210"/>
<path d="M2003.79 2286.64H1888.17C1886.64 2286.64 1885.21 2286.28 1883.95 2285.67C1881.43 2284.43 1879.57 2282.12 1879.11 2279.39C1879.07 2279.2 1879.05 2279.01 1879.03 2278.83C1879.01 2278.72 1879 2278.59 1879 2278.45C1878.99 2278.31 1878.99 2278.17 1878.99 2278.04C1878.99 2278.03 1878.99 2278.01 1878.99 2278.01V2255.59C1878.99 2255.45 1878.99 2255.31 1879 2255.15C1879.01 2254.88 1879.04 2254.59 1879.09 2254.32C1879.16 2254 1879.24 2253.69 1879.33 2253.4C1880.37 2249.71 1883.93 2246.96 1888.17 2246.96H1898.36H2031.36C2024.12 2260.71 2015.2 2273.72 2004.65 2285.67C2004.37 2285.99 2004.08 2286.32 2003.79 2286.64Z" fill="#F09210"/>
<path d="M2031.36 2246.96H1898.36C1894.13 2246.96 1890.57 2244.23 1889.52 2240.56C1889.41 2240.24 1889.33 2239.92 1889.27 2239.6C1889.23 2239.32 1889.19 2239.04 1889.17 2238.76V2215.45C1889.41 2211.27 1892.88 2207.83 1897.27 2207.33H2045.37V2212.89C2041.81 2224.61 2037.12 2236.01 2031.36 2246.96Z" fill="#F09210"/>
<path d="M2045.37 2212.89V2207.33H2046.99C2046.48 2209.19 2045.95 2211.04 2045.37 2212.89Z" fill="#F09210"/>
<path d="M2046.99 2207.33H1867.11C1862.2 2207.33 1858.19 2203.68 1857.93 2199.13C1857.92 2199 1857.92 2198.87 1857.92 2198.72C1857.92 2198.71 1857.92 2198.69 1857.92 2198.68V2176.28C1857.92 2176.13 1857.92 2175.97 1857.93 2175.83L1857.96 2175.47C1858.32 2171.72 1861.27 2168.67 1865.09 2167.85C1865.27 2167.87 1865.47 2167.89 1865.67 2167.91C1865.84 2167.91 1866.03 2167.92 1866.2 2167.92H2014.12V2207.32H2018.95V2167.92H2053.37C2052.63 2181.24 2050.49 2194.43 2047 2207.27L2046.99 2207.33Z" fill="#F09210"/>
<path d="M2014.12 2207.32H2018.95V2167.92H2014.12V2207.32Z" fill="#F09210"/>
<path d="M1865.24 2010.39L1873.45 1960.17C1882.97 1961.45 1892.39 1963.35 1901.63 1965.84C1902.16 1965.99 1902.69 1966.13 1903.24 1966.28C1904.51 1969.04 1907.27 1971.05 1910.55 1971.43H1899.45H1898.36C1897.99 1971.43 1897.63 1971.45 1897.27 1971.49C1892.88 1971.99 1889.41 1975.43 1889.19 1979.63C1889.17 1979.77 1889.17 1979.92 1889.17 1980.07V2002.48C1889.17 2002.63 1889.17 2002.79 1889.19 2002.93L1889.21 2003.28C1889.52 2006.31 1891.48 2008.91 1894.25 2010.2H1868.21H1867.11C1866.47 2010.2 1865.84 2010.27 1865.24 2010.39Z" fill="#EDBE86"/>
<path d="M2053.37 2167.92H1866.2C1866.03 2167.92 1865.84 2167.91 1865.67 2167.91C1865.47 2167.89 1865.27 2167.87 1865.09 2167.85C1860.97 2167.37 1857.68 2164.32 1857.12 2160.48C1857.08 2160.23 1857.05 2159.99 1857.04 2159.73C1857.03 2159.59 1857.03 2159.44 1857.03 2159.31C1857.03 2159.29 1857.03 2159.29 1857.03 2159.28V2136.88C1857.03 2136.72 1857.03 2136.57 1857.04 2136.43C1857.05 2136.15 1857.09 2135.87 1857.13 2135.59C1857.19 2135.27 1857.28 2134.95 1857.37 2134.64C1858.44 2130.97 1861.99 2128.23 1866.2 2128.23H1883.95C1885.21 2128.85 1886.64 2129.21 1888.17 2129.21H2013.23V2167.92H2018.05V2129.21H2035.19H2040.03H2051.57C2053.51 2142.03 2054.08 2154.89 2053.4 2167.64L2053.37 2167.92Z" fill="#F09210"/>
<path d="M2013.23 2167.92H2018.05V2129.21H2013.23V2167.92Z" fill="#F09210"/>
<path d="M2051.57 2129.21H2040.03V2089.52H2035.19V2129.21H2018.05H2013.23H1888.17C1886.64 2129.21 1885.21 2128.85 1883.95 2128.23C1881.43 2127 1879.57 2124.68 1879.11 2121.96C1879.07 2121.77 1879.05 2121.59 1879.03 2121.4C1879.01 2121.27 1879 2121.15 1879 2121.01C1878.99 2120.88 1878.99 2120.75 1878.99 2120.6C1878.99 2120.59 1878.99 2120.57 1878.99 2120.57V2098.16C1878.99 2098.01 1878.99 2097.85 1879 2097.71C1879.01 2097.43 1879.04 2097.15 1879.09 2096.88C1879.16 2096.56 1879.24 2096.25 1879.33 2095.95C1880.37 2092.27 1883.93 2089.52 1888.17 2089.52H1922.91H2041.11C2045.99 2102.23 2049.4 2115.19 2051.41 2128.23C2051.48 2128.56 2051.52 2128.88 2051.57 2129.21Z" fill="#F09210"/>
<path d="M2035.19 2129.21H2040.03V2089.52H2035.19V2129.21Z" fill="#F09210"/>
<path d="M2041.11 2089.52H1922.91C1918.68 2089.52 1915.12 2086.77 1914.08 2083.09C1913.99 2082.79 1913.89 2082.48 1913.84 2082.17C1913.79 2081.89 1913.76 2081.61 1913.75 2081.32C1913.73 2081.19 1913.73 2081.05 1913.73 2080.91C1913.73 2080.91 1913.73 2080.89 1913.73 2080.88V2058.47C1913.73 2058.32 1913.73 2058.17 1913.75 2058.03C1913.97 2053.83 1917.44 2050.39 1921.83 2049.89H2020.51C2023.03 2053.6 2025.4 2057.4 2027.65 2061.31C2032.99 2070.51 2037.45 2079.93 2041.11 2089.52Z" fill="#F09210"/>
<path d="M2020.51 2049.89H1867.11C1863.91 2049.89 1861.07 2048.33 1859.43 2045.99L1859.45 2045.79L1865.21 2010.59L1865.24 2010.39C1865.84 2010.27 1866.47 2010.2 1867.11 2010.2H1868.21H1894.25C1895.49 2010.79 1896.88 2011.12 1898.36 2011.12H1986.45C1996.56 2020 2005.85 2029.96 2014.12 2040.93V2049.89H2018.95V2047.6C2019.47 2048.33 2019.99 2049.08 2020.47 2049.83L2020.51 2049.89Z" fill="#F09210"/>
<path d="M2018.95 2049.89H2014.12V2040.93C2015.79 2043.11 2017.39 2045.33 2018.95 2047.59C2018.95 2047.59 2018.95 2047.59 2018.95 2047.6V2049.89Z" fill="#F09210"/>
<path d="M1986.45 2011.12H1898.36C1896.88 2011.12 1895.49 2010.79 1894.25 2010.2C1891.48 2008.91 1889.52 2006.31 1889.21 2003.28L1889.19 2002.93C1889.17 2002.79 1889.17 2002.63 1889.17 2002.48V1980.07C1889.17 1979.92 1889.17 1979.77 1889.19 1979.63C1889.41 1975.43 1892.88 1971.99 1897.27 1971.49C1897.63 1971.45 1897.99 1971.43 1898.36 1971.43H1899.45H1910.55C1910.92 1971.48 1911.28 1971.49 1911.67 1971.49H1919.44C1943.52 1980.28 1965.96 1993.31 1985.43 2010.2C1985.77 2010.49 1986.12 2010.8 1986.45 2011.12Z" fill="#F09210"/>
<path d="M1919.44 1971.49H1911.67C1911.28 1971.49 1910.92 1971.48 1910.55 1971.43C1907.27 1971.05 1904.51 1969.04 1903.24 1966.28L1903.35 1966.32C1908.73 1967.83 1914.04 1969.52 1919.27 1971.44L1919.41 1971.49C1919.43 1971.49 1919.43 1971.49 1919.44 1971.49Z" fill="#F09210"/>
<path d="M1614.25 2248.11C1558.49 2146.96 1595.28 2019.77 1696.43 1964.01C1797.57 1908.27 1924.76 1945.05 1980.51 2046.2C2036.27 2147.35 1999.47 2274.53 1898.33 2330.28C1797.19 2386.04 1670 2349.24 1614.25 2248.11Z" fill="#E2810E"/>
<path d="M1890.21 2334.53C1887.64 2336.11 1885.01 2337.63 1882.36 2339.09C1881.45 2339.59 1880.55 2340.08 1879.65 2340.55C1877.59 2341.65 1875.52 2342.71 1873.45 2343.73C1773.87 2392.64 1652.4 2355.11 1598.27 2256.91C1546.63 2163.24 1574.39 2047.23 1659.11 1986.31C1665.87 1981.44 1672.97 1976.93 1680.45 1972.83C1683.13 1971.35 1685.84 1969.93 1688.55 1968.59C1691.19 1967.28 1693.85 1966.03 1696.52 1964.84C1704.71 1961.19 1713.03 1958.11 1721.43 1955.6C1733.91 1951.84 1746.59 1949.31 1759.28 1947.96C1798.68 1943.79 1838.31 1950.99 1873.45 1968.17C1910.73 1986.41 1942.97 2015.89 1964.53 2055C2018.81 2153.49 1985.37 2276.65 1890.21 2334.53Z" fill="#FFB93E"/>
<path d="M1782.29 1975.84C1752.55 1975.84 1722.41 1983.12 1694.59 1998.45C1651.93 2021.97 1621 2060.68 1607.47 2107.45C1593.93 2154.24 1599.43 2203.49 1622.93 2246.13C1646.44 2288.79 1685.15 2319.72 1731.93 2333.25C1778.71 2346.79 1827.96 2341.29 1870.61 2317.79C1958.65 2269.25 1990.79 2158.15 1942.25 2070.11C1909.07 2009.91 1846.61 1975.84 1782.29 1975.84ZM1782.87 2345.57C1765.37 2345.57 1747.79 2343.11 1730.53 2338.11C1682.45 2324.2 1642.67 2292.4 1618.51 2248.57C1594.35 2204.75 1588.69 2154.13 1602.61 2106.05C1616.52 2057.97 1648.31 2018.2 1692.15 1994.04C1782.63 1944.16 1896.81 1977.19 1946.68 2067.67C1996.56 2158.15 1963.53 2272.33 1873.05 2322.21C1844.96 2337.69 1814.08 2345.57 1782.87 2345.57Z" fill="#FFA412"/>
<path d="M1874.75 2176.32C1874.33 2175.29 1873.89 2174.29 1873.45 2173.32C1870.05 2165.87 1865.83 2159.81 1860.76 2155.2C1855.04 2149.97 1848.39 2146.05 1840.8 2143.45C1833.21 2140.84 1824.76 2139.25 1815.43 2138.68C1806.09 2138.11 1795.93 2137.97 1784.96 2138.29C1778.17 2138.49 1772.39 2138.37 1767.56 2137.93C1762.76 2137.49 1758.67 2136.6 1755.32 2135.25C1751.96 2133.91 1749.24 2132.07 1747.15 2129.72C1745.04 2127.39 1743.32 2124.52 1741.95 2121.15C1740.57 2117.77 1739.79 2114.43 1739.59 2111.11C1739.37 2107.79 1739.88 2104.64 1741.07 2101.64C1742.27 2098.67 1744.2 2095.91 1746.91 2093.39C1749.59 2090.85 1753.15 2088.68 1757.57 2086.89C1765.72 2083.57 1773.35 2083.65 1780.41 2087.11C1787.48 2090.57 1793.23 2097.77 1797.68 2108.72L1840.28 2091.43C1836.57 2082.31 1831.93 2074.6 1826.33 2068.29C1820.76 2062.01 1814.45 2057.15 1807.45 2053.72C1800.45 2050.29 1792.83 2048.28 1784.57 2047.69C1776.33 2047.12 1767.75 2047.99 1758.87 2050.32L1746.8 2020.61L1723.21 2030.19L1735.11 2059.49C1726.6 2063.91 1719.39 2069.04 1713.47 2074.89C1707.55 2080.76 1702.99 2087.09 1699.81 2093.92C1696.63 2100.75 1694.96 2107.91 1694.8 2115.41C1694.64 2122.92 1696.13 2130.55 1699.29 2138.31C1702.92 2147.25 1707.6 2154.33 1713.33 2159.56C1719.07 2164.79 1725.71 2168.68 1733.27 2171.24C1740.84 2173.81 1749.29 2175.35 1758.65 2175.84C1768.01 2176.35 1778.2 2176.33 1789.2 2175.81C1795.59 2175.44 1801.12 2175.48 1805.83 2175.92C1810.52 2176.35 1814.57 2177.25 1818 2178.63C1821.41 2180 1824.25 2181.93 1826.52 2184.41C1828.79 2186.89 1830.71 2190.05 1832.27 2193.88C1833.64 2197.27 1834.32 2200.63 1834.29 2203.99C1834.29 2207.35 1833.53 2210.55 1832.03 2213.6C1830.52 2216.65 1828.27 2219.49 1825.25 2222.09C1822.25 2224.69 1818.44 2226.93 1813.81 2228.81C1809.79 2230.44 1805.63 2231.52 1801.31 2232.05C1797 2232.59 1792.8 2232.16 1788.69 2230.8C1784.59 2229.43 1780.76 2226.95 1777.19 2223.35C1773.6 2219.76 1770.49 2214.72 1767.87 2208.24L1725.27 2225.53C1729.71 2236.48 1735.29 2245.17 1742.03 2251.57C1748.75 2257.99 1756.11 2262.59 1764.09 2265.35C1772.09 2268.11 1780.44 2269.32 1789.17 2268.96C1797.89 2268.6 1806.51 2267.19 1815 2264.69L1826 2291.8L1849.44 2282.28L1838.37 2255.04C1846.89 2250.63 1854.17 2245.53 1860.25 2239.77C1865.88 2234.44 1870.27 2228.71 1873.45 2222.55C1873.71 2222.04 1873.96 2221.55 1874.2 2221.04C1877.41 2214.32 1879.12 2207.19 1879.33 2199.65C1879.53 2192.13 1878.01 2184.35 1874.75 2176.32Z" fill="#FFA412"/>
<path d="M3627.33 2373.91H433.55C431.518 2373.91 429.858 2372.24 429.858 2370.21V2368.8C429.858 2366.77 431.518 2365.12 433.55 2365.12H3627.33C3629.36 2365.12 3631.03 2366.77 3631.03 2368.8V2370.21C3631.03 2372.24 3629.36 2373.91 3627.33 2373.91Z" fill="#2E3552"/>
<path d="M2638.51 1573.88C2638.51 1573.88 2628.35 1574.16 2620.77 1569.67C2613.18 1565.18 2605.12 1562.22 2607.84 1560.23C2610.58 1558.24 2611.95 1559.23 2616.16 1560.84C2620.39 1562.46 2632.69 1562.96 2636.67 1558.62C2640.64 1554.26 2638.51 1573.88 2638.51 1573.88Z" fill="#FFB27D"/>
</svg>
