<svg width="4198" height="2639" viewBox="0 0 4198 2639" fill="none" xmlns="http://www.w3.org/2000/svg">
<path d="M3735.08 2489.89L475.688 2488.78C475.688 2488.78 -75.1243 1731.75 218.637 1225.33C512.398 718.884 941.466 1076.38 977.237 710.503C978.459 698.129 977.482 685.863 977.482 673.896C977.465 671.044 977.519 668.246 977.67 665.434C988.661 455.313 1126.15 319.507 1307.58 241.389C1313.44 238.849 1319.34 236.404 1325.28 234C1614.6 117.075 2005.82 141.131 2179 241.661C2473.66 412.716 2471.83 618.612 3080.3 550.695C3688.76 482.792 3804.81 1050.7 3646.42 1340.02C3421.67 1750.59 4269.63 1683.15 3735.08 2489.89Z" fill="#EBF3FA"/>
<path d="M2468.11 1231.19L2388.89 1153.43L2311.15 1077.12C2307.38 1072.63 2306.6 1068.1 2307.89 1063.57C2311.89 1049.35 2336.07 1035.21 2350.19 1023.35L2351.61 1022.15C2370.21 1006.5 2398.27 1008.87 2413.95 1027.43L2508.98 1139.76H2509L2537.18 1173.08C2552.87 1191.64 2550.49 1219.62 2531.88 1235.25L2530.46 1236.46C2511.86 1252.11 2483.8 1249.73 2468.11 1231.19Z" fill="#FFB27D"/>
<path d="M2491.15 730.756C2490.24 740.658 2479.03 756.605 2458.87 758.996C2357.02 771.098 2293.58 739.042 2290.63 739.082C2213.19 739.449 2158.36 711.318 2141.77 725.88C2141.15 726.409 2141.32 727.564 2142.19 729.194C2157.37 758.575 2392.36 953.957 2395.78 975.636C2399.39 998.524 1958.67 1106.21 1958.67 1106.21C1958.67 1106.21 1893.57 1065.73 1820.65 1012.61C1783.67 985.701 1744.72 955.546 1711.22 925.745C1677.44 895.766 1649.2 866.1 1634.1 840.536L1634.02 840.373C1631.75 836.543 1629.79 832.808 1628.16 829.154C1627.91 828.583 1627.66 828.067 1627.47 827.578C1615.67 799.963 1595.58 775.649 1572.74 754.948C1513.56 701.307 1435.93 671.831 1435.93 671.831L1759.55 499.622C1759.55 499.622 2056.69 534.436 2104.23 563.206C2173.5 605.164 2318.59 635.917 2346.5 652.176C2367.22 664.225 2476.4 703.318 2484.38 706.822C2487.8 708.357 2492.35 718.382 2491.15 730.756Z" fill="#FFB27D"/>
<path d="M1657.18 450.233C1657.18 450.233 1657.1 450.885 1656.92 452.121V452.135C1655.6 461.847 1648.91 507.419 1633.89 559.389V559.402C1633.31 561.317 1632.75 563.26 1632.17 565.189V565.216C1631.91 566.072 1631.64 566.955 1631.38 567.81V567.838C1612.69 629.506 1582.29 697.857 1535.38 725.418H1535.35C1532.67 726.993 1529.93 728.433 1527.13 729.751C1520.63 732.766 1513.83 735.008 1506.72 736.366C1501.48 737.398 1496.1 737.914 1490.51 737.914C1490.51 737.914 1449.36 732.984 1387.8 725.513C1384.43 725.105 1381 724.671 1377.5 724.236C1266.2 710.693 1096.11 689.707 977.482 673.896C977.463 671.044 977.519 668.246 977.67 665.434C988.661 455.313 1126.15 319.507 1307.58 241.389C1403.94 298.847 1494.22 352.786 1558.9 391.458L1558.96 391.472L1559.11 391.567C1563.23 394.039 1567.28 396.457 1571.19 398.779L1571.43 398.929C1624.38 430.592 1657.18 450.233 1657.18 450.233Z" fill="#F99746"/>
<path d="M1682.42 694.054C1682.55 694.339 1682.74 694.597 1682.8 694.896C1713.21 886.638 1824.85 855.003 1824.85 855.003L1820.65 1012.61C1783.67 985.702 1744.72 955.547 1711.22 925.745C1677.44 895.766 1649.2 866.1 1634.1 840.536L1634.02 840.373C1631.39 835.619 1629.42 831.816 1628.16 829.154C1627.91 828.583 1627.66 828.067 1627.47 827.578C1615.67 799.963 1595.58 775.649 1572.74 754.948C1584.62 734.695 1598.5 711.685 1612.21 689.164C1628.93 661.766 1669.93 664.496 1682.42 694.054Z" fill="#EFA26F"/>
<path d="M1559.11 391.281C1559.11 391.281 1454.69 481.339 1411.69 544.623L1442.85 598.522L1389.84 593.537C1389.84 593.537 1362.84 691.242 1377.51 724.25L1522.07 737.819L1688.7 471.898L1559.11 391.281Z" fill="#ED7D2B"/>
<path d="M1387.02 746.404C1382.74 707.216 1420.86 627.21 1420.86 627.21L1549.03 652.72L1450.34 548.998C1472.61 503.018 1526.05 432.846 1559.11 391.281C1575.57 370.58 1586.98 356.983 1586.98 356.983C1681.9 428.921 1770.27 500.627 1770.27 500.627C1731.52 515.596 1695.26 556.251 1665.09 601.171C1614.94 675.811 1581.61 762.256 1581.61 762.256C1504.68 755.002 1387.02 746.404 1387.02 746.404Z" fill="#DCEAFF"/>
<path d="M1387.02 746.404C1382.74 707.216 1420.86 627.21 1420.86 627.21L1549.03 652.72L1450.34 548.998C1472.61 503.018 1526.05 432.846 1559.11 391.281C1560.8 505.911 1665.09 601.171 1665.09 601.171C1614.94 675.811 1581.61 762.256 1581.61 762.256C1504.68 755.002 1387.02 746.404 1387.02 746.404Z" fill="#CBE1FD"/>
<path d="M1529.5 493.632C1538.12 494.515 1544.38 502.203 1543.5 510.815C1542.6 519.413 1534.89 525.661 1526.27 524.765C1517.64 523.882 1511.38 516.18 1512.26 507.582C1513.16 498.984 1520.87 492.735 1529.5 493.632Z" fill="#F99746"/>
<path d="M1715.13 857.027L1835.98 1279.51L2758.22 1017.16L2637.37 594.678L1715.13 857.027Z" fill="#82B378"/>
<path d="M2788.25 1089.34L1845.13 1262.79L1765.23 830.743L2708.35 657.284L2788.25 1089.34Z" fill="#A8D29F"/>
<path d="M2685.47 1057.03L2494.97 1092.06H2494.93L2472.18 1096.24H2472.15L2352.98 1118.17L2341.92 1120.2L2257.84 1135.66L2231.24 1140.55L2214.17 1143.7L2201.96 1145.94L2162.18 1153.25L2145.73 1156.27L2135.73 1158.13L2126.24 1159.87L2118.64 1161.25L2084.97 1167.46L2075.42 1169.21L1929.58 1196.03C1906.79 1200.22 1884.92 1185.2 1880.71 1162.48L1857.92 1039.19L1834.36 911.808C1830.15 889.083 1845.23 867.255 1868.01 863.058L2212.21 799.759L2373.37 770.12L2419.25 761.672H2419.29L2477 751.077L2478.88 750.71H2478.91L2623.9 724.059C2646.69 719.862 2668.56 734.885 2672.77 757.61L2719.13 1008.28C2720.42 1015.31 2719.87 1022.3 2717.82 1028.65C2713.24 1042.85 2701.2 1054.12 2685.47 1057.03ZM2737.87 1022.96L2697.63 805.369L2697.6 805.288L2677.8 698.142L2667.52 700.03L2490.89 732.522H2490.87L2488.86 732.902L2356.55 757.216L2339.64 760.327H2339.61L2197.76 786.42L1824.85 855.003L1824.78 855.016L1824.54 855.071L1818.2 856.239L1818.01 856.252L1817.86 856.293L1808.38 858.032L1822.71 935.538L1839.46 1026.17L1875.67 1221.94L2079.46 1184.47L2088.54 1182.8L2122.33 1176.57L2129.85 1175.19L2139.76 1173.37L2148.82 1171.71L2166.11 1168.52L2208.28 1160.76L2220.23 1158.58L2236.83 1155.52L2251.3 1152.86L2335.94 1137.29H2335.97L2353.16 1134.13L2366.7 1131.63L2483.88 1110.08L2589.17 1090.73L2627.65 1083.65L2745.1 1062.04L2737.87 1022.96Z" fill="#82B378"/>
<path d="M2294.48 1067.09C2234.31 1077.04 2177.45 1036.44 2167.48 976.424C2157.52 916.413 2198.24 859.716 2258.4 849.787C2318.58 839.844 2375.43 880.444 2385.4 940.455C2395.36 1000.47 2354.66 1057.16 2294.48 1067.09Z" fill="#82B378"/>
<path d="M2064.36 1041.66C2042.14 1045.33 2021.15 1030.35 2017.48 1008.2C2013.8 986.041 2028.82 965.109 2051.04 961.442C2073.25 957.774 2094.24 972.756 2097.92 994.924C2101.6 1017.07 2086.57 1038 2064.36 1041.66Z" fill="#82B378"/>
<path d="M2502.88 961.021C2480.67 964.688 2459.68 949.706 2456 927.551C2452.32 905.397 2467.34 884.465 2489.56 880.798C2511.78 877.13 2532.77 892.112 2536.44 914.267C2540.12 936.421 2525.1 957.353 2502.88 961.021Z" fill="#82B378"/>
<path d="M2175.23 1242.63L2171.74 1233.28L2148.37 1170.46C2147.83 1169 2147.36 1167.5 2147 1166.02C2141.75 1145.24 2153.02 1123.26 2173.6 1115.64L2176.01 1114.74C2198.07 1106.58 2222.82 1117.89 2231.01 1139.89L2252.8 1198.46L2254.38 1202.71L2257.86 1212.05C2266.04 1234.06 2254.7 1258.73 2232.64 1266.89L2230.22 1267.79C2208.17 1275.95 2183.42 1264.64 2175.23 1242.63Z" fill="#FFB27D"/>
<path d="M2174.18 1191.76C2170.29 1181.27 2163.4 1162.3 2162.01 1152.17C2161.62 1149.3 2163.22 1144.03 2168.67 1139.15C2171.94 1136.22 2176.57 1133.42 2182.98 1131.38C2185.99 1130.42 2189 1129.63 2192.09 1129.3C2195.7 1128.95 2199.33 1129.09 2202.9 1129.74C2206.12 1130.34 2209.04 1132.55 2210.56 1135.77L2210.59 1135.82C2215.66 1146.62 2221.83 1161.17 2225.23 1173.93C2227.59 1182.74 2223.64 1191.6 2215.9 1194.33L2212.28 1195.62L2193.77 1202.19C2186.07 1204.91 2177.34 1200.32 2174.18 1191.76Z" fill="#FFD3B6"/>
<path d="M2174.18 1191.76C2170.29 1181.27 2163.4 1162.3 2162.01 1152.17C2161.62 1149.3 2163.22 1144.03 2168.67 1139.15C2169.91 1138.64 2171.2 1138.16 2172.59 1137.71C2175.61 1136.75 2178.61 1135.96 2181.7 1135.65C2185.32 1135.28 2188.93 1135.42 2192.52 1136.07C2195.74 1136.67 2198.66 1138.88 2200.19 1142.1L2200.21 1142.15C2205.28 1152.95 2211.45 1167.51 2214.85 1180.26C2216.37 1185.91 2215.29 1191.56 2212.28 1195.62L2193.77 1202.19C2186.07 1204.91 2177.34 1200.32 2174.18 1191.76Z" fill="#FFC197"/>
<path d="M2087.15 1213.52L2074.34 1165.12C2070.45 1150.41 2079.33 1135.2 2094.08 1131.32L2099.57 1129.88C2114.32 1125.99 2129.57 1134.85 2133.46 1149.56L2146.27 1197.97C2150.17 1212.67 2141.27 1227.88 2126.54 1231.76L2121.03 1233.2C2106.3 1237.09 2091.04 1228.23 2087.15 1213.52Z" fill="#FFB27D"/>
<path d="M2089.72 1187.43C2087.42 1178.53 2083.36 1162.46 2082.96 1154.05C2082.81 1151 2085.46 1144.88 2093.55 1140.96C2095.51 1139.99 2097.77 1139.17 2100.4 1138.54C2102.78 1137.97 2105.14 1137.55 2107.52 1137.52C2110.33 1137.48 2113.09 1137.86 2115.8 1138.65C2118.24 1139.37 2120.34 1141.42 2121.29 1144.16L2121.32 1144.21C2124.51 1153.44 2128.29 1165.83 2130.09 1176.53C2131.33 1183.94 2127.71 1190.92 2121.59 1192.59L2117.22 1193.81L2104.09 1197.43C2098.02 1199.1 2091.6 1194.68 2089.72 1187.43Z" fill="#FFD3B6"/>
<path d="M2089.72 1187.43C2087.42 1178.53 2083.36 1162.46 2082.96 1154.05C2082.81 1151 2085.46 1144.88 2093.55 1140.96C2095.77 1140.44 2097.99 1140.06 2100.24 1140.04C2103.04 1139.99 2105.81 1140.38 2108.52 1141.18C2110.94 1141.9 2113.05 1143.93 2114.01 1146.68L2114.03 1146.73C2117.22 1155.96 2121.01 1168.36 2122.79 1179.06C2123.83 1185.19 2121.51 1191.03 2117.22 1193.81L2104.09 1197.43C2098.02 1199.1 2091.6 1194.68 2089.72 1187.43Z" fill="#FFC197"/>
<path d="M2268.07 1241.83C2267.94 1241.49 2267.83 1241.14 2267.72 1240.78L2251.9 1177.34C2244.96 1149.44 2260.28 1120.76 2285.98 1113.6L2299.14 1109.93C2323.81 1103.06 2349.43 1118.45 2357.57 1144.38L2362.8 1165.34L2373.39 1207.84C2380.35 1235.74 2365.01 1264.42 2339.32 1271.56L2326.15 1275.23C2301.82 1282.01 2276.57 1267.13 2268.07 1241.83Z" fill="#FFB27D"/>
<path d="M2286.02 1212.95L2272.36 1182.08L2272.31 1181.89C2271.99 1180.64 2271.75 1179.39 2271.57 1178.15C2271.49 1177.63 2271.44 1177.12 2271.39 1176.6C2271.37 1176.37 2271.37 1176.15 2271.38 1175.94C2271.52 1172.55 2275.14 1170.26 2278.36 1171.75C2284.68 1174.7 2292.02 1175.56 2299.25 1173.65L2301.95 1172.93L2302.03 1172.92L2310.8 1170.6C2317.8 1168.76 2323.67 1164.8 2327.93 1159.58C2328.47 1158.96 2328.94 1158.3 2329.41 1157.65C2333.68 1151.61 2343.23 1153.22 2345.17 1160.36L2345.22 1160.56L2350.08 1194.36C2352.29 1202.72 2345.78 1210.71 2337.4 1212.92L2327.4 1215.56L2306.09 1221.17C2297.68 1223.37 2288.23 1221.3 2286.02 1212.95Z" fill="#FFD3B6"/>
<path d="M2286.02 1212.95L2272.36 1182.08L2272.31 1181.89C2272.18 1181.15 2271.82 1178.9 2271.38 1175.94C2271.52 1172.55 2275.14 1170.26 2278.35 1171.75C2284.67 1174.7 2292.02 1175.56 2299.25 1173.65L2301.95 1172.93L2302.03 1172.92L2310.8 1170.6C2317.8 1168.76 2323.67 1164.8 2327.93 1159.58C2329.53 1160.68 2330.78 1162.33 2331.35 1164.46L2331.41 1164.65L2336.27 1198.46C2338.14 1205.49 2333.81 1212.26 2327.4 1215.56L2306.09 1221.17C2297.68 1223.37 2288.23 1221.3 2286.02 1212.95Z" fill="#FFC197"/>
<path d="M2072.29 655.817C2072.29 655.817 2056.69 534.422 2104.23 563.219C2173.5 605.178 2318.58 635.917 2346.5 652.163C2367.22 664.211 2476.42 703.318 2484.37 706.836C2487.8 708.357 2494.42 721.723 2488.03 734.777C2483.66 743.728 2472.77 760.205 2453.85 767.54C2386 793.85 2293.58 739.055 2290.63 739.069C2213.18 739.449 2137.92 730.81 2116.05 733.934C2108.44 735.021 2072.29 655.817 2072.29 655.817Z" fill="#FFB27D"/>
<path d="M2492.49 708.833L2415.83 681.027C2415.83 681.027 2408.35 696.214 2412.03 705.776C2415.69 715.339 2486.7 732.169 2492.49 708.833Z" fill="#FFC197"/>
<path d="M1100.23 1653.53L1115.49 1665.87C1115.49 1665.87 1157.23 1650.95 1166.64 1700.4C1166.64 1700.4 1169.15 1721.48 1155.76 1721.52C1142.37 1721.57 1147.9 1719.22 1128.94 1719.77C1109.98 1720.33 1094.27 1710.36 1091.49 1695.02L1082.42 1682.02L1100.23 1653.53Z" fill="#EA8E50"/>
<path d="M1098.51 1680.04C1110.68 1667.37 1109.7 1658 1109.7 1658C1109.7 1658 968.754 1542.92 954.462 1533.54C944.72 1527.16 840.923 1435.39 792.402 1379.44C768.334 1351.69 738.523 1362.46 704.415 1372.22L676.326 1380.26C642.41 1389.96 633.589 1437.27 661.418 1460.25C739.793 1524.99 870.175 1597.81 894.57 1613.12C955.132 1651.11 1073.67 1696.25 1073.67 1696.25C1073.67 1696.25 1088.05 1690.92 1098.51 1680.04Z" fill="#1E3D70"/>
<path d="M1259.35 2387.04C1259.35 2387.04 1293.56 2412.6 1345.97 2399.1C1345.97 2399.1 1388.22 2389.5 1397.5 2410.51C1397.5 2410.51 1332.69 2443.34 1316.29 2452.32C1303.92 2459.09 1291.02 2469.78 1281.91 2478.03C1274.69 2484.57 1263.45 2483.69 1257.3 2476.13C1254.45 2472.64 1251.18 2468.49 1247.61 2463.65C1237.61 2450.15 1214.34 2406.52 1214.34 2406.52L1259.35 2387.04Z" fill="#204272"/>
<path d="M869.11 1453.36C869.11 1321.64 976.182 1214.88 1108.26 1214.88C1240.34 1214.88 1347.41 1321.64 1347.41 1453.36C1347.41 1585.08 1240.34 1691.86 1108.26 1691.86C976.182 1691.86 869.11 1585.08 869.11 1453.36Z" fill="#E2810E"/>
<path d="M848.247 1453.36C848.247 1321.64 955.317 1214.88 1087.4 1214.88C1219.47 1214.88 1326.54 1321.64 1326.54 1453.36C1326.54 1585.08 1219.47 1691.86 1087.4 1691.86C955.317 1691.86 848.247 1585.08 848.247 1453.36Z" fill="#FFC76C"/>
<path d="M1087.4 1251.85C974.419 1251.85 882.504 1343.51 882.504 1456.19C882.504 1568.85 974.419 1660.51 1087.4 1660.51C1200.37 1660.51 1292.29 1568.85 1292.29 1456.19C1292.29 1343.51 1200.37 1251.85 1087.4 1251.85ZM1087.4 1673.48C1029.2 1673.48 974.479 1650.88 933.324 1609.83C892.17 1568.79 869.505 1514.23 869.505 1456.19C869.505 1398.15 892.17 1343.58 933.324 1302.53C974.479 1261.5 1029.2 1238.89 1087.4 1238.89C1145.6 1238.89 1200.32 1261.5 1241.47 1302.53C1282.62 1343.58 1305.28 1398.15 1305.28 1456.19C1305.28 1514.23 1282.62 1568.79 1241.47 1609.83C1200.32 1650.88 1145.6 1673.48 1087.4 1673.48Z" fill="#FFA412"/>
<path d="M1117.39 1519.25C1117.95 1514.57 1117.78 1510.36 1116.88 1506.64C1115.98 1502.9 1114.19 1499.41 1111.53 1496.15C1108.86 1492.9 1105.3 1489.77 1100.83 1486.74C1096.37 1483.72 1090.84 1480.64 1084.26 1477.49C1072.94 1471.96 1062.74 1466.36 1053.64 1460.71C1044.54 1455.05 1036.91 1448.85 1030.75 1442.13C1024.59 1435.4 1020.08 1427.85 1017.23 1419.49C1014.38 1411.12 1013.6 1401.46 1014.91 1390.53C1016.03 1381.04 1018.75 1372.6 1023.05 1365.18C1027.35 1357.78 1032.98 1351.54 1039.93 1346.47C1046.88 1341.42 1054.94 1337.59 1064.11 1335C1073.27 1332.4 1083.34 1331.25 1094.29 1331.52L1098.56 1295.71L1127.46 1299.14L1123.14 1335.45C1133.34 1338.01 1142.41 1341.86 1150.35 1346.98C1158.29 1352.11 1164.82 1358.31 1169.94 1365.59C1175.05 1372.88 1178.67 1381.19 1180.8 1390.55C1182.92 1399.91 1183.32 1410.18 1181.99 1421.33L1129.78 1415.15C1131.37 1401.76 1129.58 1391.39 1124.41 1384.05C1119.24 1376.71 1111.65 1372.45 1101.66 1371.26C1096.24 1370.61 1091.48 1370.82 1087.39 1371.86C1083.29 1372.91 1079.83 1374.59 1076.98 1376.92C1074.14 1379.24 1071.91 1382.1 1070.28 1385.54C1068.65 1388.96 1067.59 1392.74 1067.1 1396.87C1066.61 1401 1066.76 1404.82 1067.57 1408.29C1068.38 1411.78 1070.08 1415.13 1072.7 1418.33C1075.31 1421.52 1078.91 1424.66 1083.49 1427.74C1088.06 1430.84 1093.81 1434.14 1100.72 1437.69C1111.88 1443.42 1121.98 1449.14 1131.01 1454.84C1140.04 1460.55 1147.64 1466.8 1153.79 1473.57C1159.94 1480.35 1164.45 1487.93 1167.3 1496.3C1170.15 1504.68 1170.93 1514.27 1169.65 1525.1C1168.48 1534.92 1165.71 1543.53 1161.35 1550.93C1156.99 1558.33 1151.34 1564.51 1144.4 1569.46C1137.46 1574.4 1129.35 1578.08 1120.09 1580.5C1110.83 1582.91 1100.72 1583.98 1089.76 1583.69L1085.79 1617L1057.07 1613.6L1061.01 1580.46C1051.13 1578.27 1041.72 1574.96 1032.79 1570.5C1023.85 1566.05 1016.15 1560.25 1009.67 1553.09C1003.19 1545.93 998.36 1537.29 995.165 1527.19C991.971 1517.08 991.17 1505.33 992.762 1491.95L1044.97 1498.12C1044.03 1506.05 1044.36 1512.79 1045.96 1518.34C1047.55 1523.91 1050.03 1528.51 1053.39 1532.13C1056.74 1535.75 1060.72 1538.49 1065.33 1540.34C1069.93 1542.17 1074.7 1543.39 1079.64 1543.98C1085.3 1544.64 1090.36 1544.51 1094.81 1543.57C1099.25 1542.62 1103.07 1541.03 1106.27 1538.81C1109.47 1536.59 1112 1533.8 1113.86 1530.46C1115.73 1527.12 1116.9 1523.38 1117.39 1519.25Z" fill="#FFA412"/>
<path d="M1279.43 2374.05C1279.43 2374.05 1258.6 2421.95 1210.52 2413.15C1210.52 2413.15 1112.42 2332.35 1045.13 2248.42C1023.27 2221.16 1004.66 2193.57 993.727 2168.32C949.101 2065.28 828.657 1911.61 752.078 1833.72L943.671 1764.6C943.671 1764.6 1005.04 1887.72 1086.7 2038.93C1145.54 2147.89 1214.91 2271.45 1279.43 2374.05Z" fill="#2B478B"/>
<path d="M1086.7 2038.93L1045.13 2248.42C1023.27 2221.16 1004.66 2193.57 993.727 2168.32C949.101 2065.28 828.657 1911.61 752.078 1833.72L943.671 1764.6C943.671 1764.6 1005.04 1887.72 1086.7 2038.93Z" fill="#233862"/>
<path d="M930.085 2414.83C930.085 2414.83 927.998 2453.05 974.452 2458.15C974.452 2458.15 1003.2 2458.9 1003.28 2483.21L863.377 2483.17C863.377 2483.17 862.136 2473.23 861.185 2452.21C860.453 2436.08 876.868 2393.89 876.868 2393.89L930.085 2414.83Z" fill="#204272"/>
<path d="M880.829 1764.6C880.829 1764.6 966.182 1858.13 1020.36 2026.63C1049.84 2118.32 966.332 2348.82 950.053 2428.9C950.053 2428.9 894.032 2433.64 855.727 2418.88C855.727 2418.88 852.815 2253.46 875.219 2125.97C887.755 2054.63 762.837 1973.37 708.252 1844.45C671.117 1756.75 716.292 1758.23 771.809 1756.12L880.829 1764.6Z" fill="#2B478B"/>
<path d="M782.3 1347.33C734.811 1374.06 637.592 1349.41 637.592 1349.41C637.592 1349.41 677.073 1304.39 659.133 1231.9L696.419 1250.78L736.47 1271.07C736.47 1271.07 739.059 1283.87 740.86 1306.87C741.318 1312.79 741.728 1319.4 742.012 1326.63C766.396 1334.01 782.3 1347.33 782.3 1347.33Z" fill="#FFB07B"/>
<path d="M956.433 1759.77C956.433 1768.1 946.818 1772.08 944.775 1772.49C925.621 1775.98 872.14 1796.72 823.963 1801.48C783.396 1805.71 745.735 1801.69 704.356 1793.41C698.876 1792.31 686.014 1788.86 685.1 1783.61C683.959 1777.9 525.498 1461.47 648.681 1325.54C651.574 1322.35 675.891 1328.1 698.127 1333.37C718.665 1338.22 737.502 1335.51 754.323 1328.79L775.176 1339.72C800.787 1353.96 849.244 1404.52 854.915 1444.19C857.793 1464.36 869.363 1479.31 872.711 1497.06C873.954 1503.62 875.223 1510.03 876.517 1516.28C879.04 1528.55 881.642 1540.2 884.317 1551.3C891.561 1581.3 899.21 1607.14 906.719 1629.46C914.711 1653.15 922.551 1672.86 929.552 1689.33C938.636 1710.71 946.31 1726.69 951.104 1738.92C954.492 1747.54 956.433 1754.29 956.433 1759.77Z" fill="#AEC3FF"/>
<path d="M951.104 1738.92C727.417 1633.83 649.95 1432.02 649.95 1432.02C649.95 1432.02 831.688 1498.88 876.516 1516.28C879.04 1528.55 881.642 1540.2 884.317 1551.3C891.561 1581.3 899.21 1607.14 906.719 1629.46C914.711 1653.15 922.551 1672.86 929.552 1689.33C938.636 1710.71 946.31 1726.69 951.104 1738.92Z" fill="#91B0F2"/>
<path d="M1081.98 1678.02L1101.31 1685.09C1101.31 1685.09 1140.01 1657.79 1164.11 1702.18C1164.11 1702.18 1172.83 1721.58 1159.03 1725.79C1145.24 1730 1150.25 1726.03 1130.86 1732.47C1111.46 1738.92 1092.36 1734.28 1085.03 1720.46L1071.89 1710.85L1081.98 1678.02Z" fill="#FFB07B"/>
<path d="M1097.89 1705.28C1105.03 1686.68 1108.3 1678.26 1108.3 1678.26C1108.3 1678.26 962.236 1559.54 947.356 1549.36C937.215 1542.41 836.255 1467.16 787.033 1408.51C762.616 1379.41 724.118 1366.12 686.885 1373.9L656.223 1380.31C619.201 1388.05 607.173 1434.78 635.892 1459.34C716.775 1528.49 853.199 1608.69 878.635 1625.37C941.779 1666.78 1081.45 1724.81 1081.45 1724.81C1081.45 1724.81 1092.27 1719.88 1097.89 1705.28Z" fill="#AEC3FF"/>
<path d="M740.86 1306.87C694.161 1309.47 663.792 1271.03 663.792 1271.03C663.792 1271.03 684.907 1259.36 696.419 1250.78L736.47 1271.07C736.47 1271.07 739.059 1283.87 740.86 1306.87Z" fill="#EA8E50"/>
<path d="M760.756 1259.05C760.756 1259.05 689.998 1309.69 659.056 1265.26C628.112 1220.83 598.139 1197.45 642.008 1163.24C685.875 1129.03 706.556 1139.83 720.501 1152.17C734.446 1164.49 778.363 1244.74 760.756 1259.05Z" fill="#FFB07B"/>
<path d="M727.976 1112.04C725.438 1094.97 719.73 1082.94 719.73 1082.94C719.73 1082.94 715.291 1101.28 681.676 1098.76C648.06 1096.23 594.783 1102.06 577.024 1140.25C575.894 1142.68 574.886 1145.18 573.991 1147.75C570.777 1139.27 570.003 1126.59 570.003 1126.59C563.615 1143.02 570.003 1163.6 570.003 1163.6H570.006C569.909 1164.2 569.83 1164.8 569.743 1165.4C562.325 1171.66 556.093 1191.1 556.093 1191.1C558.333 1185.68 563.793 1182.14 568.66 1179.96C568.509 1209.68 580.597 1238.75 601.813 1247.4C632.838 1260.04 632.589 1250.39 663.792 1271.03C663.792 1271.03 672.162 1260.68 666.453 1253.71C660.745 1246.76 639.18 1236.64 651.231 1226.52C663.282 1216.4 667.721 1227.78 672.162 1220.83C676.601 1213.87 654.403 1193.64 682.944 1174.66C711.485 1155.68 730.512 1129.11 727.976 1112.04Z" fill="#233862"/>
<path d="M3349.35 1612.98C3349.35 1612.98 3354.25 1616.35 3356.09 1623.67C3357.51 1629.28 3356.05 1637.95 3355.61 1644.83C3354.67 1659.5 3375.02 1681.05 3388.17 1688.54C3401.32 1696.04 3388.17 1657.32 3388.17 1647.96C3388.17 1638.58 3391.93 1631.71 3381.29 1610.48C3370.64 1589.25 3349.35 1612.98 3349.35 1612.98Z" fill="#FFB27D"/>
<path d="M3052.6 1254.43C3048.72 1205.15 3102.4 1171.37 3144.79 1197C3145.66 1197.53 3146.52 1198.06 3147.36 1198.61C3210.82 1239.34 3332.69 1404.99 3350.74 1437.96C3369.55 1472.3 3394.41 1618.96 3394.41 1618.96C3394.41 1618.96 3360.04 1631.49 3343.97 1618.49C3343.97 1618.49 3290.19 1491.31 3270.44 1469.5C3249.62 1446.5 3057.02 1340.34 3055.19 1295.29C3054.7 1283.38 3053.75 1269.06 3052.6 1254.43Z" fill="#ED7D2B"/>
<path d="M3435.76 2366.92C3435.76 2366.92 3461.34 2390.2 3456.35 2406.75C3451.35 2423.29 3428.27 2434.32 3425.15 2454.55C3422.03 2474.76 3409.55 2485.79 3398.31 2485.79C3387.08 2485.79 3344.76 2485.79 3344.76 2485.79C3344.76 2485.79 3336.49 2471.57 3356.46 2467.28C3376.43 2462.98 3383.96 2439.23 3382.72 2417.17C3381.47 2395.11 3384.58 2365.7 3384.58 2365.7L3427.01 2355.89L3435.76 2366.92Z" fill="#224275"/>
<path d="M3121.87 2427.14C3121.87 2427.14 3126.46 2480.14 3115.23 2485.65L2971.48 2485.36C2971.48 2485.36 2971.48 2468.81 2994.57 2465.13C3017.65 2461.46 3058.22 2447.97 3065.08 2417.96C3071.95 2387.92 3121.87 2427.14 3121.87 2427.14Z" fill="#224275"/>
<path d="M3000.5 1678.59C3000.5 1678.59 3008.09 1771.48 3017 1883.14C3029.11 2034.81 3043.67 2221.12 3045.11 2256.42C3047.61 2317.71 3057.6 2415.74 3057.6 2415.74C3057.6 2415.74 3081.3 2439.04 3128.74 2429.22C3128.74 2429.22 3171.01 2289.27 3183.09 2141.2C3183.28 2138.76 3183.46 2136.32 3183.65 2133.87C3194.89 1983.14 3212.35 1665.72 3212.35 1665.72L3000.5 1678.59Z" fill="#AEC3FF"/>
<path d="M3000.5 1678.59C3000.5 1678.59 3008.09 1771.48 3017 1883.14L3183.09 2141.19C3183.28 2138.76 3183.46 2136.32 3183.65 2133.87C3194.89 1983.14 3212.35 1665.72 3212.35 1665.72L3000.5 1678.59Z" fill="#91B0F2"/>
<path d="M3035.13 1689.62C3035.13 1689.62 3171.79 2026.02 3261.66 2184.12C3351.51 2342.21 3379.59 2386.33 3379.59 2386.33C3379.59 2386.33 3431.07 2366.11 3435.76 2352.32C3435.76 2352.32 3401.39 2047.12 3341.22 1972.72C3307.2 1930.68 3267.27 1804.52 3265.39 1760.4C3263.52 1716.28 3253.23 1628.95 3253.23 1628.95L3035.13 1689.62Z" fill="#AEC3FF"/>
<path d="M3152.96 1185C3152.96 1185 3061.4 1231.3 3007.78 1215.86C3007.78 1215.86 3015.13 1206.23 3028.59 1196.01C3037.23 1189.45 3041.71 1178.76 3039.99 1168.06C3039.46 1164.73 3039 1161.59 3038.63 1158.66C3036.01 1140.59 3036.41 1127.63 3036.41 1127.63L3070.92 1101.64L3104.21 1074.2C3103.04 1149.53 3152.96 1185 3152.96 1185Z" fill="#FFB27D"/>
<path d="M3243.92 1655.58C3206.94 1677.89 3171.95 1694.67 3130.99 1704.1C3082.68 1715.52 3023.31 1712.15 3003.43 1715.17C3001.39 1715.44 2999.46 1714.91 2997.64 1713.7C2996.08 1712.9 2987.32 1654.14 2978.53 1579.96C2978.14 1576.97 2977.73 1573.96 2977.57 1570.94L2977.44 1569.95C2974.03 1540.95 2971.03 1510.48 2968.43 1479.96C2966.32 1456.2 2964.57 1432.7 2963.36 1410.63C2961.85 1383.01 2961.21 1357.65 2961.85 1336.79C2962.12 1327.25 2962.68 1318.67 2963.54 1311.23C2968.77 1267.91 2986.94 1236.8 3006.46 1213.75L3029 1195.7C3047.78 1196.88 3063.12 1193.17 3081.21 1181.26C3100.99 1168.29 3122.32 1154.33 3126.35 1156.66C3156.65 1173.19 3181.32 1216.03 3198.95 1272.62C3209.05 1305.2 3216.8 1342.16 3221.76 1381.3C3223.37 1393.45 3224.72 1405.9 3225.75 1418.32C3225.96 1420.61 3226.13 1422.91 3226.31 1425.16C3228.69 1459.08 3232.58 1490.88 3236.88 1519.27C3242.67 1557.56 3249.26 1589.63 3253.92 1612.22C3256.26 1623.71 3258.05 1632.59 3259.11 1638.96C3260.05 1644.52 3248.89 1652.48 3243.92 1655.58Z" fill="#F99746"/>
<path d="M3105.4 1102.97C3105.4 1102.97 3082.88 1145.9 3038.63 1158.66C3034.64 1135.88 3035.81 1100.09 3035.81 1100.09L3070.92 1101.64L3105.4 1102.97Z" fill="#ED985F"/>
<path d="M3009.88 1110.51C3009.88 1110.51 3092.59 1144.25 3112.82 1093.4C3133.05 1042.55 3157.35 1012.65 3105.38 988.962C3053.42 965.259 3035.37 980.635 3024.42 995.971C3013.46 1011.31 2988.87 1100.41 3009.88 1110.51Z" fill="#FFB27D"/>
<path d="M3168.03 996.69C3169.02 995.97 3170.98 995.672 3175.04 996.364C3175.04 996.364 3172.3 993.634 3168.04 992.547C3168.49 986.802 3167.8 976.288 3158.75 971.697C3158.75 971.697 3163.27 975.623 3162.59 981.681C3154.11 967.758 3132.23 954.025 3065.15 944.096C2976.74 931.015 2992.56 993.023 3002.29 1002.21C3012 1011.4 3044.47 999.76 3065.04 1006.23C3085.59 1012.69 3082.62 1043.78 3088.77 1049.56C3094.92 1055.33 3093.81 1047.36 3104.43 1045.24C3115.04 1043.1 3112.29 1059.2 3107.13 1068.9C3101.97 1078.58 3112.03 1095.24 3112.03 1095.24C3112.03 1095.24 3112.03 1095.24 3128.69 1083.96C3145.35 1072.69 3171.94 1014.86 3168.84 1000.52C3168.57 999.258 3168.31 997.981 3168.03 996.69Z" fill="#2C3A64"/>
<path d="M3117.04 1341.61C3117.04 1341.61 3042.44 1398.23 2963.36 1410.63C2961.85 1383.01 2961.21 1357.65 2961.85 1336.79L3117.04 1341.61Z" fill="#ED7D2B"/>
<path d="M2675.55 1146.19C2674.8 1144.64 2675.32 1091.71 2649.1 1087.47C2631.99 1084.71 2587.66 1072.91 2588.08 1096.65C2588.24 1105.98 2643.73 1163.58 2643.73 1163.58L2675.55 1146.19Z" fill="#FFB27D"/>
<path d="M3132.76 1249.46C3165.86 1286.26 3143.8 1345.62 3094.52 1350.93C3093.51 1351.04 3092.5 1351.13 3091.48 1351.22C3016.26 1357.3 2802.25 1296.19 2772.64 1279.85C2723.48 1252.74 2639.2 1166.96 2639.2 1166.96C2639.2 1166.96 2658.87 1136.18 2679.56 1136.78C2679.56 1136.78 2792.38 1208.44 2832.78 1217.03C2860.03 1222.8 3076.93 1183.91 3105.82 1218.59C3113.45 1227.74 3122.94 1238.54 3132.76 1249.46Z" fill="#F99746"/>
<path d="M3387.54 1626.48C3387.54 1626.48 3391.56 1635.31 3394.41 1642.17C3397.25 1649.04 3398.82 1661.85 3396.63 1660.6C3394.43 1659.35 3386.6 1650.23 3384.11 1645.58C3381.6 1640.92 3387.54 1626.48 3387.54 1626.48Z" fill="#FFB27D"/>
<mask id="mask0_1_580" style="mask-type:luminance" maskUnits="userSpaceOnUse" x="1544" y="1467" width="182" height="356">
<path d="M1725.28 1822.56C1671.34 1695.44 1546.32 1531.93 1544.87 1493.16C1544.86 1492.77 1544.85 1492.39 1544.85 1492.01C1544.53 1477 1556.83 1467.12 1569.49 1467.12C1575.98 1467.12 1582.58 1469.72 1587.6 1475.56C1699.27 1605.25 1725.28 1822.56 1725.28 1822.56Z" fill="white"/>
</mask>
<g mask="url(#mask0_1_580)">
<path d="M1544.53 1822.56H1725.28V1467.12H1544.53V1822.56Z" fill="#DCE9FA"/>
</g>
<path d="M1738.85 1884.77C1627.93 1744.96 1415.97 1584.14 1400.82 1536.37C1395.14 1518.45 1397.41 1506.98 1402.48 1499.64C1407.32 1492.6 1415.24 1488.92 1423.33 1488.92C1428.22 1488.92 1433.17 1490.27 1437.53 1493.03C1627.58 1613.16 1738.85 1884.77 1738.85 1884.77Z" fill="#DCE9FA"/>
<path d="M1906.49 2423.4C1904.14 2418.72 1901.66 2414.21 1899.03 2409.94L1898.97 2409.86L1898.87 2409.67C1897.11 2407.03 1894.6 2403.3 1891.48 2398.73L1891.47 2398.72L1891.46 2398.69C1883.92 2388.63 1878.72 2381.13 1875.3 2375.66L1875.27 2375.6C1852.45 2343.84 1820.37 2302.88 1802.48 2296.17C1783.12 2366.43 1637.56 2404.39 1545.31 2404.39C1541.7 2404.39 1538.19 2404.33 1534.75 2404.21C1443.51 2401.13 1477.71 2369.82 1518.33 2321.5C1558.94 2273.2 1660.24 2266.94 1686.94 2246.17C1704.5 2232.52 1690.77 2224.16 1662.82 2224.16C1648.26 2224.16 1629.84 2226.42 1609.98 2231.37C1551.96 2245.85 1532.56 2309.47 1439.13 2334.59C1432.56 2336.36 1425.92 2337.18 1419.3 2337.19C1331.75 2337.19 1242.98 2193.86 1242.98 2193.86C1248.13 2194.54 1253.51 2194.86 1259.05 2194.86C1328 2194.86 1423.48 2145.27 1424.11 2123.7C1424.29 2117.38 1411.68 2115.1 1392.63 2115.1C1368.16 2115.1 1333.07 2118.85 1300.82 2122.6C1268.57 2126.35 1239.17 2130.1 1226.08 2130.1C1224.82 2130.1 1223.72 2130.07 1222.78 2130C1194.5 2127.83 1137.79 2081.77 1148.73 1968.55C1159.15 1860.62 1331.37 1858.09 1347.38 1858.09C1348.17 1858.09 1348.57 1858.1 1348.57 1858.1C1348.57 1858.1 1503.72 2024.8 1541.63 2024.8C1541.82 2024.8 1542 2024.8 1542.18 2024.8C1579.13 2023.17 1436.42 1854.8 1436.42 1854.8C1446.35 1852.11 1458.87 1850.97 1473.01 1850.97C1557.04 1850.97 1698.6 1891.55 1698.6 1891.55C1698.6 1891.55 1723.76 2104.17 1757.92 2104.17C1758.73 2104.17 1759.55 2104.04 1760.37 2103.79C1795.78 2093.15 1726.93 1907.62 1726.93 1907.62C1798.22 1916.42 1874.99 1984.59 1874.99 1984.59C1976.04 2099.7 1822.6 2223.16 1822.6 2223.16C1822.6 2223.16 1833.42 2300.2 1895.9 2380.1C1895.9 2380.1 1909.38 2394.51 1924.98 2420.26L1906.49 2423.4ZM1805 2287.04C1804.2 2289.96 1803.37 2292.99 1802.48 2296.17C1802.48 2296.17 1804.04 2292.96 1805 2287.04Z" fill="#CDE0FB"/>
<path d="M2673.48 2231.29C2668.78 2231.29 2663.39 2231.05 2657.26 2230.53C2590.31 2224.92 2479.36 2183.59 2470.98 2128.51C2457.35 2131.86 2430.35 2159.04 2410.91 2180.27L2410.89 2180.31C2407.92 2184.01 2403.46 2189.05 2397.09 2195.76L2397.07 2195.77L2397.06 2195.79C2394.39 2198.84 2392.24 2201.37 2390.73 2203.13L2390.63 2203.26L2390.59 2203.31C2388.29 2206.22 2386.1 2209.29 2383.97 2212.51L2370.72 2208.62C2384.35 2191.15 2395.45 2181.78 2395.45 2181.78C2448.03 2128.79 2462.62 2073.43 2462.62 2073.43C2462.62 2073.43 2361.2 1969.99 2445.02 1894.59C2445.02 1894.59 2507.02 1851.38 2559.87 1851.11C2559.87 1851.11 2493.48 1980.74 2518.44 1991.56C2519.25 1991.91 2520.07 1992.09 2520.91 1992.09C2545.85 1992.08 2581.98 1841.79 2581.98 1841.79C2581.98 1841.79 2655.33 1829.82 2715.41 1829.82C2740.09 1829.82 2762.53 1831.85 2776.73 1837.55C2776.73 1837.55 2657.86 1948.27 2684.72 1952.64C2685.25 1952.73 2685.81 1952.77 2686.41 1952.77C2716.58 1952.77 2840.64 1847.52 2840.64 1847.52C2840.64 1847.52 2978.92 1861.79 2977.09 1945.46C2975.29 2027.94 2931.13 2057.07 2909.9 2057.06C2909.59 2057.06 2909.29 2057.06 2908.99 2057.05C2891.93 2056.34 2805.84 2030.69 2774.14 2030.69C2767.06 2030.69 2762.7 2031.97 2762.43 2035.1C2760.9 2052.06 2836.33 2101.98 2887.55 2101.98C2887.93 2101.98 2888.31 2101.97 2888.69 2101.97C2888.69 2101.97 2817.09 2191.92 2754.66 2191.92C2747.32 2191.92 2740.11 2190.68 2733.17 2187.89C2667.08 2161.49 2658.42 2113.34 2617.27 2097.76C2598.7 2090.72 2581.57 2087.32 2569.98 2087.32C2555.91 2087.32 2550.04 2092.34 2559.75 2101.93C2577.47 2119.41 2650.94 2132.71 2676.44 2171.51C2699.59 2206.75 2720.09 2231.29 2673.48 2231.29ZM2469.95 2121.62C2470.12 2126.02 2470.98 2128.51 2470.98 2128.51C2470.63 2126.1 2470.27 2123.82 2469.95 2121.62Z" fill="#CDE0FB"/>
<path d="M1614.57 1932.32V2038.21C1614.57 2058.47 1597.18 2075.06 1575.93 2075.06H1496.4C1475.15 2075.06 1457.75 2058.47 1457.75 2038.21V1932.32C1457.75 1912.04 1475.15 1895.46 1496.4 1895.46H1575.93C1597.18 1895.46 1614.57 1912.04 1614.57 1932.32Z" fill="#ED7D2B"/>
<path d="M1614.57 1932.32V1991.3C1614.57 2011.57 1597.18 2028.17 1575.93 2028.17H1496.4C1475.15 2028.17 1457.75 2011.57 1457.75 1991.3V1932.32C1457.75 1912.04 1475.15 1895.46 1496.4 1895.46H1575.93C1597.18 1895.46 1614.57 1912.04 1614.57 1932.32Z" fill="#F99746"/>
<path d="M2495.91 1985.26C2495.91 2039.43 2484.29 2091.17 2463.31 2138.25C2400.37 2279.55 2253.21 2379.3 2082.8 2379.3H1964.71C1957.63 2379.3 1950.6 2379.13 1943.6 2378.79C1857.05 2374.58 1777.34 2344.66 1712.7 2296.91C1671.29 2266.37 1636.06 2228.45 1609.23 2185.35C1572.67 2126.61 1551.63 2058.17 1551.63 1985.26C1551.63 1931.06 1563.23 1879.38 1584.22 1832.26C1647.14 1690.96 1794.31 1591.22 1964.71 1591.22H2082.8C2237.77 1591.22 2373.51 1673.71 2444.16 1794.92C2477.1 1851.42 2495.91 1916.36 2495.91 1985.26Z" fill="#ED7D2B"/>
<path d="M2152.72 2212L2114.18 2450.66C2109.06 2469.15 2123.68 2487.26 2143.73 2487.26H2244.98C2266.7 2487.26 2286.58 2475.68 2296.53 2457.28L2453.91 2157.83L2152.72 2212Z" fill="#ED7D2B"/>
<path d="M1923.51 2487.26H1822.25C1800.54 2487.26 1780.65 2475.7 1770.71 2457.28L1673.37 2293.36L1609.23 2185.35L1922.16 2216.11L1933.46 2301.9L1943.6 2378.79L1953.06 2450.66C1958.17 2469.16 1943.56 2487.26 1923.51 2487.26Z" fill="#ED7D2B"/>
<path d="M2433.71 1939.7C2350.34 2168.43 2271.44 2290.72 1951.84 2301.36C1945.64 2301.57 1939.51 2301.75 1933.46 2301.9C1842.23 2304.29 1768.09 2301.25 1712.7 2296.91C1698.33 2295.8 1685.21 2294.58 1673.37 2293.36L1609.23 2185.35C1572.67 2126.61 1551.63 2058.17 1551.63 1985.26C1551.63 1931.06 1563.23 1879.38 1584.22 1832.26C1647.14 1690.96 1794.31 1591.22 1964.71 1591.22H2082.8C2237.77 1591.22 2373.51 1673.71 2444.16 1794.92C2453.95 1840.36 2446.25 1905.32 2433.71 1939.7Z" fill="#F99746"/>
<path d="M1916.01 1689.94H1753.53C1737.14 1689.94 1723.86 1680.45 1723.86 1668.75V1457.14C1723.86 1453.54 1725.06 1450.24 1727.12 1447.4C1735.06 1436.4 1755.94 1431.86 1771.48 1440.25C1833.17 1473.61 1934.24 1546.1 1945.61 1667.3C1946.76 1679.55 1933.18 1689.94 1916.01 1689.94Z" fill="#F99746"/>
<path d="M1760.14 1689.94H1753.53C1737.14 1689.94 1723.86 1680.45 1723.86 1668.75V1457.14C1723.86 1453.54 1725.06 1450.24 1727.12 1447.4C1727.81 1447.97 1728.48 1448.58 1729.12 1449.26C1764.41 1486.74 1815.29 1560.37 1800.94 1663.51C1798.86 1678.51 1781.24 1689.94 1760.14 1689.94Z" fill="#ED7D2B"/>
<path d="M1674.5 1831.4C1674.5 1818.65 1685.34 1808.31 1698.71 1808.31C1712.08 1808.31 1722.92 1818.65 1722.92 1831.4C1722.92 1844.15 1712.08 1854.49 1698.71 1854.49C1685.34 1854.49 1674.5 1844.15 1674.5 1831.4Z" fill="#2B478B"/>
<path d="M2162.36 2449.48V2474.15C2162.36 2476.12 2163.07 2477.94 2164.31 2479.46C2165.59 2481.06 2167.45 2482.33 2169.63 2483.02C2170.3 2483.25 2171 2483.41 2171.7 2483.51C2172.36 2483.62 2173.02 2483.67 2173.71 2483.67H2643.09C2649.15 2483.67 2654.14 2479.65 2654.44 2474.64C2654.45 2474.49 2654.45 2474.31 2654.45 2474.15V2449.48C2654.45 2449.32 2654.45 2449.16 2654.44 2448.99C2654.14 2443.98 2649.15 2439.96 2643.09 2439.96H2173.71C2173.02 2439.96 2172.36 2440.01 2171.7 2440.12C2171 2440.22 2170.3 2440.38 2169.63 2440.61C2167.45 2441.32 2165.59 2442.57 2164.31 2444.17C2163.07 2445.69 2162.36 2447.51 2162.36 2449.48Z" fill="#FFC76C"/>
<path d="M2392.85 2483.67H2644.32C2649.71 2483.67 2654.17 2479.65 2654.44 2474.64C2654.45 2474.49 2654.45 2474.31 2654.45 2474.15V2449.48C2654.45 2449.32 2654.45 2449.16 2654.44 2448.99C2654.17 2443.98 2649.71 2439.96 2644.32 2439.96H2423.73C2420.2 2452.84 2412 2470.62 2392.85 2483.67Z" fill="#FFAE39"/>
<path d="M2219.47 2483.67H2224.81V2439.97H2219.47V2483.67Z" fill="#FFA412"/>
<path d="M2237.53 2483.67H2242.86V2439.97H2237.53V2483.67Z" fill="#FFA412"/>
<path d="M2259.19 2483.67H2264.52V2439.97H2259.19V2483.67Z" fill="#FFA412"/>
<path d="M2292.38 2483.67H2297.71V2439.97H2292.38V2483.67Z" fill="#FFA412"/>
<path d="M2327.47 2483.67H2332.81V2439.97H2327.47V2483.67Z" fill="#FFA412"/>
<path d="M2381.29 2483.67H2386.63V2439.97H2381.29V2483.67Z" fill="#FFA412"/>
<path d="M2431.67 2483.67H2437.01V2439.97H2431.67V2483.67Z" fill="#FFA412"/>
<path d="M2476.66 2483.67H2482V2439.97H2476.66V2483.67Z" fill="#FFA412"/>
<path d="M2202.28 2483.67H2207.62V2439.97H2202.28V2483.67Z" fill="#FFA412"/>
<path d="M2190.92 2483.67H2196.26V2439.97H2190.92V2483.67Z" fill="#FFA412"/>
<path d="M2179.96 2483.67H2185.3V2439.97H2179.96V2483.67Z" fill="#FFA412"/>
<path d="M2171.7 2440.12V2483.51C2172.36 2483.62 2173.02 2483.67 2173.71 2483.67H2177.04V2439.96H2173.71C2173.02 2439.96 2172.36 2440.01 2171.7 2440.12Z" fill="#FFA412"/>
<path d="M2164.31 2444.17V2479.46C2165.59 2481.06 2167.45 2482.33 2169.63 2483.02V2440.61C2167.45 2441.32 2165.59 2442.57 2164.31 2444.17Z" fill="#FFA412"/>
<path d="M2212.54 2405.78V2430.45C2212.54 2432.42 2213.26 2434.24 2214.49 2435.76C2215.78 2437.37 2217.63 2438.62 2219.81 2439.32C2220.48 2439.55 2221.17 2439.72 2221.9 2439.81C2222.55 2439.92 2223.22 2439.96 2223.9 2439.96H2693.29C2699.33 2439.96 2704.32 2435.95 2704.63 2430.94C2704.63 2430.78 2704.65 2430.61 2704.65 2430.45V2405.78C2704.65 2405.61 2704.63 2405.45 2704.63 2405.3C2704.32 2400.28 2699.33 2396.26 2693.29 2396.26H2223.9C2223.6 2396.26 2223.3 2396.28 2223 2396.3C2222.88 2396.3 2222.74 2396.32 2222.62 2396.33C2222.48 2396.34 2222.33 2396.36 2222.2 2396.39L2221.9 2396.43C2221.17 2396.52 2220.48 2396.68 2219.81 2396.91L2219.53 2397.01L2219.23 2397.12C2219.05 2397.19 2218.85 2397.27 2218.65 2397.35L2218.33 2397.5L2218.04 2397.63C2217.86 2397.73 2217.69 2397.82 2217.51 2397.92C2217.31 2398.04 2217.12 2398.16 2216.92 2398.29C2216.78 2398.38 2216.64 2398.48 2216.49 2398.59L2216.46 2398.61L2216.18 2398.82C2215.89 2399.05 2215.6 2399.28 2215.36 2399.54L2215.13 2399.75L2214.91 2399.98C2214.76 2400.15 2214.62 2400.31 2214.49 2400.47C2213.26 2401.98 2212.54 2403.82 2212.54 2405.78Z" fill="#FFC76C"/>
<path d="M2443.03 2439.96H2694.5C2699.91 2439.96 2704.35 2435.95 2704.63 2430.94C2704.63 2430.78 2704.65 2430.61 2704.65 2430.45V2405.78C2704.65 2405.61 2704.63 2405.45 2704.63 2405.3C2704.35 2400.28 2699.91 2396.26 2694.5 2396.26H2473.92C2473.83 2396.63 2473.72 2396.98 2473.61 2397.35C2469.93 2410.1 2461.66 2427.29 2443.03 2439.96Z" fill="#FFAE39"/>
<path d="M2269.65 2439.96H2274.99V2396.26H2269.65V2439.96Z" fill="#FFA412"/>
<path d="M2287.71 2439.96H2293.05V2396.26H2287.71V2439.96Z" fill="#FFA412"/>
<path d="M2309.37 2439.96H2314.71V2396.26H2309.37V2439.96Z" fill="#FFA412"/>
<path d="M2342.56 2439.96H2347.9V2396.26H2342.56V2439.96Z" fill="#FFA412"/>
<path d="M2377.66 2439.96H2383V2396.26H2377.66V2439.96Z" fill="#FFA412"/>
<path d="M2431.48 2439.96H2436.81V2396.26H2431.48V2439.96Z" fill="#FFA412"/>
<path d="M2481.86 2439.96H2487.19V2396.26H2481.86V2439.96Z" fill="#FFA412"/>
<path d="M2526.84 2439.96H2532.18V2396.26H2526.84V2439.96Z" fill="#FFA412"/>
<path d="M2252.46 2439.96H2257.8V2396.26H2252.46V2439.96Z" fill="#FFA412"/>
<path d="M2241.12 2439.96H2246.44V2396.26H2241.12V2439.96Z" fill="#FFA412"/>
<path d="M2230.15 2439.96H2235.48V2396.26H2230.15V2439.96Z" fill="#FFA412"/>
<path d="M2221.9 2396.41V2439.81C2222.55 2439.91 2223.22 2439.96 2223.9 2439.96H2227.24V2396.26H2223.9C2223.22 2396.26 2222.55 2396.32 2221.9 2396.41Z" fill="#FFA412"/>
<path d="M2214.49 2400.46V2435.76C2215.78 2437.37 2217.63 2438.62 2219.81 2439.32V2396.9C2217.63 2397.61 2215.78 2398.87 2214.49 2400.46Z" fill="#FFA412"/>
<path d="M2188.29 2363.16V2387.84C2188.29 2389.8 2189 2391.63 2190.24 2393.14C2191.52 2394.74 2193.39 2396 2195.57 2396.7C2196.23 2396.93 2196.93 2397.09 2197.64 2397.19C2198.29 2397.3 2198.96 2397.35 2199.64 2397.35H2669.03C2670.92 2397.35 2672.71 2396.96 2674.27 2396.26C2677.59 2394.81 2679.96 2392.01 2680.33 2388.75C2680.36 2388.6 2680.37 2388.47 2680.37 2388.33C2680.39 2388.17 2680.39 2388 2680.39 2387.84V2363.16C2680.39 2363 2680.39 2362.83 2680.37 2362.67C2680.07 2357.66 2675.09 2353.65 2669.03 2353.65H2199.64C2198.96 2353.65 2198.29 2353.69 2197.64 2353.8C2196.93 2353.91 2196.23 2354.06 2195.57 2354.29C2193.39 2355 2191.52 2356.25 2190.24 2357.85C2189 2359.37 2188.29 2361.19 2188.29 2363.16Z" fill="#FFC76C"/>
<path d="M2418.79 2397.35H2670.25C2671.93 2397.35 2673.52 2396.96 2674.93 2396.26C2677.89 2394.81 2680.01 2392.01 2680.33 2388.75C2680.36 2388.6 2680.37 2388.47 2680.37 2388.33C2680.39 2388.17 2680.39 2388 2680.39 2387.84V2363.16C2680.39 2363 2680.39 2362.83 2680.37 2362.67C2680.1 2357.66 2675.65 2353.65 2670.25 2353.65H2449.66C2446.23 2366.16 2438.37 2383.33 2420.32 2396.26C2419.82 2396.63 2419.3 2396.98 2418.79 2397.35Z" fill="#FFAE39"/>
<path d="M2245.41 2397.35H2250.75V2353.65H2245.41V2397.35Z" fill="#FFA412"/>
<path d="M2263.47 2397.35H2268.79V2353.65H2263.47V2397.35Z" fill="#FFA412"/>
<path d="M2285.12 2397.35H2290.45V2353.65H2285.12V2397.35Z" fill="#FFA412"/>
<path d="M2318.3 2397.35H2323.64V2353.65H2318.3V2397.35Z" fill="#FFA412"/>
<path d="M2353.41 2397.35H2358.75V2353.65H2353.41V2397.35Z" fill="#FFA412"/>
<path d="M2407.22 2397.35H2412.56V2353.65H2407.22V2397.35Z" fill="#FFA412"/>
<path d="M2457.61 2397.35H2462.94V2353.65H2457.61V2397.35Z" fill="#FFA412"/>
<path d="M2502.59 2397.35H2507.93V2353.65H2502.59V2397.35Z" fill="#FFA412"/>
<path d="M2228.22 2397.35H2233.56V2353.65H2228.22V2397.35Z" fill="#FFA412"/>
<path d="M2216.86 2397.35H2222.2V2353.65H2216.86V2397.35Z" fill="#FFA412"/>
<path d="M2205.89 2397.35H2211.23V2353.65H2205.89V2397.35Z" fill="#FFA412"/>
<path d="M2197.64 2353.8V2397.19C2198.29 2397.3 2198.96 2397.35 2199.64 2397.35H2202.98V2353.65H2199.64C2198.96 2353.65 2198.29 2353.69 2197.64 2353.8Z" fill="#FFA412"/>
<path d="M2190.24 2357.85V2393.14C2191.52 2394.74 2193.39 2396 2195.57 2396.7V2354.29C2193.39 2355 2191.52 2356.25 2190.24 2357.85Z" fill="#FFA412"/>
<path d="M2177.04 2319.46V2344.13C2177.04 2346.1 2177.76 2347.92 2178.99 2349.44C2180.28 2351.04 2182.14 2352.29 2184.32 2353C2184.98 2353.23 2185.68 2353.39 2186.4 2353.49C2187.05 2353.6 2187.72 2353.65 2188.4 2353.65H2657.79C2663.84 2353.65 2668.82 2349.63 2669.14 2344.62C2669.14 2344.46 2669.15 2344.29 2669.15 2344.13V2319.46C2669.15 2319.3 2669.14 2319.14 2669.14 2318.97C2668.85 2314.34 2664.56 2310.55 2659.14 2310.01C2658.69 2309.97 2658.25 2309.94 2657.79 2309.94H2188.4C2187.72 2309.94 2187.05 2310 2186.4 2310.1C2185.68 2310.2 2184.98 2310.36 2184.32 2310.59C2182.14 2311.29 2180.28 2312.55 2178.99 2314.15C2177.76 2315.67 2177.04 2317.49 2177.04 2319.46Z" fill="#FFC76C"/>
<path d="M2407.53 2353.65H2659C2664.41 2353.65 2668.85 2349.63 2669.14 2344.62C2669.14 2344.46 2669.15 2344.29 2669.15 2344.13V2319.46C2669.15 2319.3 2669.14 2319.14 2669.14 2318.97C2668.88 2314.34 2665.05 2310.55 2660.2 2310.01C2659.82 2309.97 2659.41 2309.94 2659 2309.94H2438.43L2438.4 2310.01C2434.87 2322.87 2426.66 2340.63 2407.53 2353.65Z" fill="#FFAE39"/>
<path d="M2234.16 2353.65H2239.49V2309.94H2234.16V2353.65Z" fill="#FFA412"/>
<path d="M2252.22 2353.65H2257.56V2309.94H2252.22V2353.65Z" fill="#FFA412"/>
<path d="M2273.87 2353.65H2279.21V2309.94H2273.87V2353.65Z" fill="#FFA412"/>
<path d="M2307.07 2353.65H2312.41V2309.94H2307.07V2353.65Z" fill="#FFA412"/>
<path d="M2342.17 2353.65H2347.51V2309.94H2342.17V2353.65Z" fill="#FFA412"/>
<path d="M2395.98 2353.65H2401.31V2309.94H2395.98V2353.65Z" fill="#FFA412"/>
<path d="M2446.37 2353.65H2451.69V2309.94H2446.37V2353.65Z" fill="#FFA412"/>
<path d="M2491.34 2353.65H2496.68V2309.94H2491.34V2353.65Z" fill="#FFA412"/>
<path d="M2216.97 2353.65H2222.31V2309.94H2216.97V2353.65Z" fill="#FFA412"/>
<path d="M2205.62 2353.65H2210.95V2309.94H2205.62V2353.65Z" fill="#FFA412"/>
<path d="M2194.65 2353.65H2199.98V2309.94H2194.65V2353.65Z" fill="#FFA412"/>
<path d="M2186.4 2310.09V2353.49C2187.05 2353.6 2187.72 2353.64 2188.4 2353.64H2191.74V2309.94H2188.4C2187.72 2309.94 2187.05 2310 2186.4 2310.09Z" fill="#FFA412"/>
<path d="M2178.99 2314.15V2349.44C2180.28 2351.04 2182.14 2352.29 2184.32 2353V2310.58C2182.14 2311.29 2180.28 2312.55 2178.99 2314.15Z" fill="#FFA412"/>
<path d="M2211.56 2275.83V2300.5C2211.56 2302.47 2212.27 2304.29 2213.51 2305.81C2214.8 2307.41 2216.65 2308.66 2218.83 2309.37C2219.5 2309.59 2220.19 2309.75 2220.9 2309.86C2221.13 2309.9 2221.35 2309.93 2221.57 2309.94C2221.69 2309.95 2221.81 2309.97 2221.94 2309.98C2222.06 2310 2222.18 2310 2222.31 2310C2222.51 2310.01 2222.71 2310.01 2222.92 2310.01H2692.29C2698.35 2310.01 2703.34 2306 2703.64 2300.99C2703.65 2300.83 2703.65 2300.66 2703.65 2300.5V2275.83C2703.65 2275.66 2703.65 2275.49 2703.64 2275.33C2703.64 2275.19 2703.62 2275.07 2703.61 2274.94C2703.16 2270.92 2699.67 2267.59 2695.1 2266.61L2694.76 2266.54C2693.97 2266.39 2693.14 2266.31 2692.29 2266.31H2222.92C2222.56 2266.31 2222.22 2266.32 2221.9 2266.35C2221.75 2266.37 2221.6 2266.38 2221.45 2266.39H2221.43C2221.26 2266.42 2221.08 2266.45 2220.9 2266.47C2220.19 2266.57 2219.5 2266.73 2218.83 2266.95C2216.65 2267.66 2214.8 2268.92 2213.51 2270.52C2212.27 2272.03 2211.56 2273.86 2211.56 2275.83Z" fill="#FFC76C"/>
<path d="M2442.05 2310.01H2693.52C2698.91 2310.01 2703.37 2306 2703.64 2300.99C2703.65 2300.83 2703.65 2300.66 2703.65 2300.5V2275.83C2703.65 2275.66 2703.65 2275.49 2703.64 2275.33C2703.64 2275.19 2703.62 2275.07 2703.61 2274.94C2703.2 2270.82 2699.96 2267.45 2695.75 2266.56C2695.6 2266.51 2695.45 2266.49 2695.32 2266.47C2694.73 2266.37 2694.13 2266.31 2693.52 2266.31H2472.93L2472.85 2266.62C2469.28 2279.45 2461.06 2297.01 2442.15 2309.94L2442.05 2310.01Z" fill="#FFAE39"/>
<path d="M2268.67 2310.01H2274.01V2266.31H2268.67V2310.01Z" fill="#FFA412"/>
<path d="M2286.73 2310.01H2292.06V2266.31H2286.73V2310.01Z" fill="#FFA412"/>
<path d="M2308.39 2310.01H2313.71V2266.31H2308.39V2310.01Z" fill="#FFA412"/>
<path d="M2341.58 2310.01H2346.91V2266.31H2341.58V2310.01Z" fill="#FFA412"/>
<path d="M2376.68 2310.01H2382.01V2266.31H2376.68V2310.01Z" fill="#FFA412"/>
<path d="M2430.49 2310.01H2435.83V2266.31H2430.49V2310.01Z" fill="#FFA412"/>
<path d="M2480.87 2310.01H2486.21V2266.31H2480.87V2310.01Z" fill="#FFA412"/>
<path d="M2525.86 2310.01H2531.2V2266.31H2525.86V2310.01Z" fill="#FFA412"/>
<path d="M2251.48 2310.01H2256.82V2266.31H2251.48V2310.01Z" fill="#FFA412"/>
<path d="M2240.12 2310.01H2245.46V2266.31H2240.12V2310.01Z" fill="#FFA412"/>
<path d="M2229.16 2310.01H2234.5V2266.31H2229.16V2310.01Z" fill="#FFA412"/>
<path d="M2220.9 2266.46V2309.86C2221.56 2309.95 2222.22 2310.01 2222.92 2310.01H2226.24V2266.31H2222.92C2222.22 2266.31 2221.56 2266.37 2220.9 2266.46Z" fill="#FFA412"/>
<path d="M2213.51 2270.51V2305.81C2214.8 2307.41 2216.65 2308.66 2218.83 2309.37V2266.95C2216.65 2267.66 2214.8 2268.92 2213.51 2270.51Z" fill="#FFA412"/>
<path d="M2212.54 2232.43V2257.12C2212.54 2259.08 2213.26 2260.9 2214.49 2262.43C2215.78 2264.03 2217.63 2265.28 2219.81 2265.99C2220.34 2266.16 2220.89 2266.3 2221.43 2266.39H2221.45C2221.6 2266.42 2221.75 2266.45 2221.9 2266.47C2222.55 2266.57 2223.22 2266.62 2223.9 2266.62H2693.29C2693.78 2266.62 2694.28 2266.6 2694.76 2266.54C2694.95 2266.53 2695.12 2266.5 2695.32 2266.47C2700.41 2265.7 2704.36 2262.03 2704.63 2257.6C2704.63 2257.44 2704.65 2257.28 2704.65 2257.12V2232.43C2704.65 2232.27 2704.63 2232.11 2704.63 2231.95C2704.32 2226.95 2699.33 2222.93 2693.29 2222.93H2223.9C2223.6 2222.93 2223.3 2222.94 2223 2222.95C2222.88 2222.97 2222.74 2222.98 2222.62 2222.99C2222.48 2222.99 2222.33 2223.02 2222.2 2223.03L2221.9 2223.08C2221.17 2223.18 2220.48 2223.35 2219.81 2223.56L2219.53 2223.67L2219.23 2223.77C2219.04 2223.85 2218.85 2223.93 2218.65 2224C2218.45 2224.09 2218.25 2224.19 2218.04 2224.3C2217.86 2224.39 2217.69 2224.49 2217.51 2224.58C2217.31 2224.69 2217.12 2224.81 2216.92 2224.95C2216.78 2225.04 2216.64 2225.14 2216.49 2225.25L2216.46 2225.26L2216.18 2225.48C2215.89 2225.7 2215.6 2225.94 2215.36 2226.19L2215.13 2226.42L2214.91 2226.65C2214.76 2226.8 2214.62 2226.96 2214.49 2227.12C2213.26 2228.64 2212.54 2230.46 2212.54 2232.43Z" fill="#FFC76C"/>
<path d="M2443.03 2266.62H2694.5C2694.7 2266.62 2694.91 2266.62 2695.1 2266.61C2695.32 2266.6 2695.53 2266.58 2695.75 2266.56C2700.57 2266 2704.37 2262.22 2704.63 2257.6C2704.63 2257.44 2704.65 2257.28 2704.65 2257.12V2232.43C2704.65 2232.27 2704.63 2232.11 2704.63 2231.95C2704.35 2226.95 2699.91 2222.93 2694.5 2222.93H2473.92C2473.83 2223.28 2473.72 2223.65 2473.61 2224C2469.96 2236.66 2461.79 2253.67 2443.48 2266.31C2443.33 2266.42 2443.18 2266.51 2443.03 2266.62Z" fill="#FFAE39"/>
<path d="M2269.65 2266.62H2274.99V2222.93H2269.65V2266.62Z" fill="#FFA412"/>
<path d="M2287.71 2266.62H2293.05V2222.93H2287.71V2266.62Z" fill="#FFA412"/>
<path d="M2309.37 2266.62H2314.71V2222.93H2309.37V2266.62Z" fill="#FFA412"/>
<path d="M2342.56 2266.62H2347.9V2222.93H2342.56V2266.62Z" fill="#FFA412"/>
<path d="M2377.66 2266.62H2383V2222.93H2377.66V2266.62Z" fill="#FFA412"/>
<path d="M2431.48 2266.62H2436.81V2222.93H2431.48V2266.62Z" fill="#FFA412"/>
<path d="M2481.86 2266.62H2487.19V2222.93H2481.86V2266.62Z" fill="#FFA412"/>
<path d="M2526.84 2266.62H2532.18V2222.93H2526.84V2266.62Z" fill="#FFA412"/>
<path d="M2252.46 2266.62H2257.8V2222.93H2252.46V2266.62Z" fill="#FFA412"/>
<path d="M2241.12 2266.62H2246.44V2222.93H2241.12V2266.62Z" fill="#FFA412"/>
<path d="M2230.15 2266.62H2235.48V2222.93H2230.15V2266.62Z" fill="#FFA412"/>
<path d="M2221.9 2223.08V2266.47C2222.55 2266.57 2223.22 2266.62 2223.9 2266.62H2227.24V2222.93H2223.9C2223.22 2222.93 2222.55 2222.98 2221.9 2223.08Z" fill="#FFA412"/>
<path d="M2214.49 2227.12V2262.43C2215.78 2264.03 2217.63 2265.28 2219.81 2265.99V2223.56C2217.63 2224.27 2215.78 2225.53 2214.49 2227.12Z" fill="#FFA412"/>
<path d="M2188.29 2189.81V2214.49C2188.29 2216.46 2189 2218.28 2190.24 2219.8C2191.52 2221.4 2193.39 2222.65 2195.57 2223.36C2196.23 2223.58 2196.93 2223.74 2197.64 2223.85C2198.29 2223.94 2198.96 2224 2199.64 2224H2669.03C2670.92 2224 2672.71 2223.62 2674.27 2222.93C2677.59 2221.47 2679.96 2218.67 2680.33 2215.4C2680.36 2215.26 2680.37 2215.13 2680.37 2214.98C2680.39 2214.82 2680.39 2214.65 2680.39 2214.49V2189.81C2680.39 2189.65 2680.39 2189.48 2680.37 2189.32C2680.07 2184.32 2675.09 2180.3 2669.03 2180.3H2199.64C2198.96 2180.3 2198.29 2180.36 2197.64 2180.45C2196.93 2180.56 2196.23 2180.72 2195.57 2180.94C2193.39 2181.65 2191.52 2182.91 2190.24 2184.5C2189 2186.02 2188.29 2187.85 2188.29 2189.81Z" fill="#FFC76C"/>
<path d="M2418.79 2224H2670.25C2671.93 2224 2673.52 2223.62 2674.93 2222.93C2677.89 2221.47 2680.01 2218.67 2680.33 2215.4C2680.36 2215.26 2680.37 2215.13 2680.37 2214.98C2680.39 2214.82 2680.39 2214.65 2680.39 2214.49V2189.81C2680.39 2189.65 2680.39 2189.48 2680.37 2189.32C2680.1 2184.32 2675.65 2180.3 2670.25 2180.3H2449.66C2446.23 2192.81 2438.37 2209.99 2420.32 2222.93C2419.82 2223.29 2419.3 2223.65 2418.79 2224Z" fill="#FFAE39"/>
<path d="M2245.41 2224H2250.75V2180.3H2245.41V2224Z" fill="#FFA412"/>
<path d="M2263.47 2224H2268.79V2180.3H2263.47V2224Z" fill="#FFA412"/>
<path d="M2285.12 2224H2290.45V2180.3H2285.12V2224Z" fill="#FFA412"/>
<path d="M2318.3 2224H2323.64V2180.3H2318.3V2224Z" fill="#FFA412"/>
<path d="M2353.41 2224H2358.75V2180.3H2353.41V2224Z" fill="#FFA412"/>
<path d="M2407.22 2224H2412.56V2180.3H2407.22V2224Z" fill="#FFA412"/>
<path d="M2457.61 2224H2462.94V2180.3H2457.61V2224Z" fill="#FFA412"/>
<path d="M2502.59 2224H2507.93V2180.3H2502.59V2224Z" fill="#FFA412"/>
<path d="M2228.22 2224H2233.56V2180.3H2228.22V2224Z" fill="#FFA412"/>
<path d="M2216.86 2224H2222.2V2180.3H2216.86V2224Z" fill="#FFA412"/>
<path d="M2205.89 2224H2211.23V2180.3H2205.89V2224Z" fill="#FFA412"/>
<path d="M2197.64 2180.46V2223.85C2198.29 2223.96 2198.96 2224 2199.64 2224H2202.98V2180.3H2199.64C2198.96 2180.3 2198.29 2180.36 2197.64 2180.46Z" fill="#FFA412"/>
<path d="M2190.24 2184.5V2219.8C2191.52 2221.4 2193.39 2222.65 2195.57 2223.36V2180.94C2193.39 2181.65 2191.52 2182.91 2190.24 2184.5Z" fill="#FFA412"/>
<path d="M2149.94 2146.11V2170.79C2149.94 2172.76 2150.65 2174.58 2151.87 2176.1C2153.17 2177.71 2155.03 2178.96 2157.21 2179.66C2157.88 2179.88 2158.57 2180.04 2159.28 2180.15C2159.94 2180.25 2160.6 2180.3 2161.28 2180.3H2630.67C2636.73 2180.3 2641.72 2176.28 2642.02 2171.28C2642.03 2171.12 2642.03 2170.96 2642.03 2170.79V2146.11C2642.03 2145.95 2642.03 2145.79 2642.02 2145.62C2641.73 2141 2637.45 2137.22 2632.02 2136.67C2631.58 2136.63 2631.12 2136.6 2630.67 2136.6H2161.28C2160.6 2136.6 2159.94 2136.66 2159.28 2136.75C2158.57 2136.86 2157.88 2137.02 2157.21 2137.24C2155.03 2137.95 2153.17 2139.21 2151.87 2140.8C2150.65 2142.32 2149.94 2144.14 2149.94 2146.11Z" fill="#FFC76C"/>
<path d="M2380.43 2180.3H2631.9C2637.29 2180.3 2641.75 2176.28 2642.02 2171.28C2642.03 2171.12 2642.03 2170.96 2642.03 2170.79V2146.11C2642.03 2145.95 2642.03 2145.79 2642.02 2145.62C2641.77 2141 2637.94 2137.22 2633.1 2136.67C2632.7 2136.63 2632.31 2136.6 2631.9 2136.6H2411.31L2411.28 2136.67C2407.75 2149.54 2399.54 2167.27 2380.43 2180.3Z" fill="#FFAE39"/>
<path d="M2207.05 2180.3H2212.38V2136.6H2207.05V2180.3Z" fill="#FFA412"/>
<path d="M2225.1 2180.3H2230.44V2136.6H2225.1V2180.3Z" fill="#FFA412"/>
<path d="M2246.75 2180.3H2252.09V2136.6H2246.75V2180.3Z" fill="#FFA412"/>
<path d="M2279.95 2180.3H2285.29V2136.6H2279.95V2180.3Z" fill="#FFA412"/>
<path d="M2315.05 2180.3H2320.39V2136.6H2315.05V2180.3Z" fill="#FFA412"/>
<path d="M2368.87 2180.3H2374.19V2136.6H2368.87V2180.3Z" fill="#FFA412"/>
<path d="M2419.25 2180.3H2424.57V2136.6H2419.25V2180.3Z" fill="#FFA412"/>
<path d="M2464.24 2180.3H2469.56V2136.6H2464.24V2180.3Z" fill="#FFA412"/>
<path d="M2189.86 2180.3H2195.19V2136.6H2189.86V2180.3Z" fill="#FFA412"/>
<path d="M2178.5 2180.3H2183.84V2136.6H2178.5V2180.3Z" fill="#FFA412"/>
<path d="M2167.54 2180.3H2172.88V2136.6H2167.54V2180.3Z" fill="#FFA412"/>
<path d="M2159.28 2136.75V2180.15C2159.94 2180.25 2160.6 2180.3 2161.28 2180.3H2164.62V2136.6H2161.28C2160.6 2136.6 2159.94 2136.66 2159.28 2136.75Z" fill="#FFA412"/>
<path d="M2151.87 2140.8V2176.1C2153.17 2177.71 2155.03 2178.96 2157.21 2179.66V2137.24C2155.03 2137.95 2153.17 2139.21 2151.87 2140.8Z" fill="#FFA412"/>
<path d="M2211.56 2102.48V2127.16C2211.56 2129.13 2212.27 2130.95 2213.51 2132.47C2214.8 2134.06 2216.65 2135.33 2218.83 2136.03C2219.5 2136.25 2220.19 2136.41 2220.9 2136.52C2221.13 2136.55 2221.35 2136.59 2221.57 2136.6C2221.75 2136.63 2221.92 2136.63 2222.1 2136.64L2222.36 2136.66C2222.54 2136.67 2222.73 2136.67 2222.92 2136.67H2692.29C2698.35 2136.67 2703.34 2132.65 2703.64 2127.65C2703.65 2127.49 2703.65 2127.33 2703.65 2127.16V2102.48C2703.65 2102.32 2703.65 2102.16 2703.64 2101.99C2703.34 2096.99 2698.35 2092.97 2692.29 2092.97H2222.92C2222.71 2092.97 2222.51 2092.97 2222.31 2092.99C2221.83 2093.01 2221.37 2093.06 2220.9 2093.12C2220.19 2093.23 2219.5 2093.4 2218.83 2093.61C2218.49 2093.72 2218.16 2093.84 2217.85 2093.98C2217.65 2094.06 2217.46 2094.16 2217.27 2094.25L2217.2 2094.28C2217.01 2094.37 2216.82 2094.47 2216.63 2094.58L2216.53 2094.63C2216.35 2094.73 2216.19 2094.84 2216.03 2094.94C2215.62 2095.19 2215.25 2095.46 2214.9 2095.76L2214.57 2096.04L2214.51 2096.1L2214.32 2096.27L2214.28 2096.32L2213.96 2096.66C2213.79 2096.83 2213.64 2096.99 2213.51 2097.17C2212.27 2098.69 2211.56 2100.51 2211.56 2102.48Z" fill="#FFC76C"/>
<path d="M2442.05 2136.67H2693.52C2698.91 2136.67 2703.37 2132.65 2703.64 2127.65C2703.65 2127.49 2703.65 2127.33 2703.65 2127.16V2102.48C2703.65 2102.32 2703.65 2102.16 2703.64 2101.99C2703.37 2096.99 2698.91 2092.97 2693.52 2092.97H2472.93C2472.85 2093.3 2472.75 2093.64 2472.64 2093.98C2468.98 2106.73 2460.74 2123.9 2442.15 2136.6L2442.05 2136.67Z" fill="#FFAE39"/>
<path d="M2268.67 2136.67H2274.01V2092.97H2268.67V2136.67Z" fill="#FFA412"/>
<path d="M2286.73 2136.67H2292.06V2092.97H2286.73V2136.67Z" fill="#FFA412"/>
<path d="M2308.39 2136.67H2313.71V2092.97H2308.39V2136.67Z" fill="#FFA412"/>
<path d="M2341.58 2136.67H2346.91V2092.97H2341.58V2136.67Z" fill="#FFA412"/>
<path d="M2376.68 2136.67H2382.01V2092.97H2376.68V2136.67Z" fill="#FFA412"/>
<path d="M2430.49 2136.67H2435.83V2092.97H2430.49V2136.67Z" fill="#FFA412"/>
<path d="M2480.87 2136.67H2486.21V2092.97H2480.87V2136.67Z" fill="#FFA412"/>
<path d="M2525.86 2136.67H2531.2V2092.97H2525.86V2136.67Z" fill="#FFA412"/>
<path d="M2251.48 2136.67H2256.82V2092.97H2251.48V2136.67Z" fill="#FFA412"/>
<path d="M2240.12 2136.67H2245.46V2092.97H2240.12V2136.67Z" fill="#FFA412"/>
<path d="M2229.16 2136.67H2234.5V2092.97H2229.16V2136.67Z" fill="#FFA412"/>
<path d="M2220.9 2093.12V2136.52C2221.56 2136.62 2222.22 2136.67 2222.92 2136.67H2226.24V2092.97H2222.92C2222.22 2092.97 2221.56 2093.03 2220.9 2093.12Z" fill="#FFA412"/>
<path d="M2213.51 2097.17V2132.47C2214.8 2134.06 2216.65 2135.33 2218.83 2136.03V2093.61C2216.65 2094.32 2214.8 2095.57 2213.51 2097.17Z" fill="#FFA412"/>
<path d="M2177.04 2059.79V2084.47C2177.04 2086.44 2177.76 2088.26 2178.99 2089.78C2180.28 2091.38 2182.14 2092.63 2184.32 2093.34C2184.98 2093.56 2185.68 2093.72 2186.4 2093.83C2187.05 2093.92 2187.72 2093.98 2188.4 2093.98H2657.79C2659.62 2093.98 2661.33 2093.63 2662.86 2092.97C2666.29 2091.53 2668.73 2088.68 2669.1 2085.35C2669.11 2085.22 2669.12 2085.1 2669.14 2084.96C2669.14 2084.8 2669.15 2084.63 2669.15 2084.47V2059.79C2669.15 2059.63 2669.14 2059.46 2669.14 2059.3C2668.85 2054.67 2664.56 2050.89 2659.14 2050.35C2658.69 2050.31 2658.25 2050.28 2657.79 2050.28H2188.4C2187.72 2050.28 2187.05 2050.34 2186.4 2050.43C2185.68 2050.54 2184.98 2050.7 2184.32 2050.92C2182.14 2051.63 2180.28 2052.89 2178.99 2054.48C2177.76 2056 2177.04 2057.82 2177.04 2059.79Z" fill="#FFC76C"/>
<path d="M2407.53 2093.98H2659C2660.64 2093.98 2662.18 2093.63 2663.54 2092.97C2666.59 2091.53 2668.77 2088.68 2669.1 2085.35C2669.11 2085.22 2669.12 2085.1 2669.14 2084.96C2669.14 2084.8 2669.15 2084.63 2669.15 2084.47V2059.79C2669.15 2059.63 2669.14 2059.46 2669.14 2059.3C2668.88 2054.68 2665.05 2050.89 2660.2 2050.35C2659.82 2050.31 2659.41 2050.28 2659 2050.28H2438.43L2438.4 2050.35C2434.97 2062.87 2427.07 2080.06 2408.98 2092.97C2408.52 2093.31 2408.03 2093.65 2407.53 2093.98Z" fill="#FFAE39"/>
<path d="M2234.16 2093.98H2239.49V2050.28H2234.16V2093.98Z" fill="#FFA412"/>
<path d="M2252.22 2093.98H2257.56V2050.28H2252.22V2093.98Z" fill="#FFA412"/>
<path d="M2273.87 2093.98H2279.21V2050.28H2273.87V2093.98Z" fill="#FFA412"/>
<path d="M2307.07 2093.98H2312.41V2050.28H2307.07V2093.98Z" fill="#FFA412"/>
<path d="M2342.17 2093.98H2347.51V2050.28H2342.17V2093.98Z" fill="#FFA412"/>
<path d="M2395.98 2093.98H2401.31V2050.28H2395.98V2093.98Z" fill="#FFA412"/>
<path d="M2446.37 2093.98H2451.69V2050.28H2446.37V2093.98Z" fill="#FFA412"/>
<path d="M2491.34 2093.98H2496.68V2050.28H2491.34V2093.98Z" fill="#FFA412"/>
<path d="M2216.97 2093.98H2222.31V2050.28H2216.97V2093.98Z" fill="#FFA412"/>
<path d="M2205.62 2093.98H2210.95V2050.28H2205.62V2093.98Z" fill="#FFA412"/>
<path d="M2194.65 2093.98H2199.98V2050.28H2194.65V2093.98Z" fill="#FFA412"/>
<path d="M2186.4 2050.43V2093.83C2187.05 2093.92 2187.72 2093.98 2188.4 2093.98H2191.74V2050.28H2188.4C2187.72 2050.28 2187.05 2050.34 2186.4 2050.43Z" fill="#FFA412"/>
<path d="M2178.99 2054.48V2089.78C2180.28 2091.38 2182.14 2092.63 2184.32 2093.34V2050.92C2182.14 2051.63 2180.28 2052.89 2178.99 2054.48Z" fill="#FFA412"/>
<path d="M2162.36 2016.16V2040.84C2162.36 2042.81 2163.07 2044.63 2164.31 2046.15C2165.59 2047.76 2167.45 2049 2169.63 2049.71C2170.3 2049.93 2171 2050.09 2171.7 2050.2C2171.94 2050.23 2172.15 2050.27 2172.37 2050.28C2172.48 2050.3 2172.62 2050.31 2172.74 2050.31C2172.86 2050.32 2172.98 2050.34 2173.11 2050.34C2173.31 2050.35 2173.52 2050.35 2173.71 2050.35H2643.09C2649.15 2050.35 2654.14 2046.33 2654.44 2041.33C2654.45 2041.17 2654.45 2041 2654.45 2040.84V2016.16C2654.45 2016 2654.45 2015.83 2654.44 2015.67C2654.14 2010.67 2649.15 2006.65 2643.09 2006.65H2173.71C2173.02 2006.65 2172.36 2006.71 2171.7 2006.8C2171 2006.91 2170.3 2007.07 2169.63 2007.29C2167.45 2008 2165.59 2009.26 2164.31 2010.85C2163.07 2012.37 2162.36 2014.19 2162.36 2016.16Z" fill="#FFC76C"/>
<path d="M2392.85 2050.35H2644.32C2649.71 2050.35 2654.17 2046.33 2654.44 2041.33C2654.45 2041.17 2654.45 2041 2654.45 2040.84V2016.16C2654.45 2016 2654.45 2015.83 2654.44 2015.67C2654.17 2010.67 2649.71 2006.65 2644.32 2006.65H2423.73C2420.22 2019.5 2412.03 2037.24 2392.95 2050.28L2392.85 2050.35Z" fill="#FFAE39"/>
<path d="M2219.47 2050.35H2224.81V2006.65H2219.47V2050.35Z" fill="#FFA412"/>
<path d="M2237.53 2050.35H2242.86V2006.65H2237.53V2050.35Z" fill="#FFA412"/>
<path d="M2259.19 2050.35H2264.52V2006.65H2259.19V2050.35Z" fill="#FFA412"/>
<path d="M2292.37 2050.35H2297.71V2006.65H2292.37V2050.35Z" fill="#FFA412"/>
<path d="M2327.47 2050.35H2332.81V2006.65H2327.47V2050.35Z" fill="#FFA412"/>
<path d="M2381.29 2050.35H2386.63V2006.65H2381.29V2050.35Z" fill="#FFA412"/>
<path d="M2431.67 2050.35H2437.01V2006.65H2431.67V2050.35Z" fill="#FFA412"/>
<path d="M2476.66 2006.65V2050.35H2482V2006.65H2476.66Z" fill="#FFA412"/>
<path d="M2202.28 2050.35H2207.62V2006.65H2202.28V2050.35Z" fill="#FFA412"/>
<path d="M2190.92 2050.35H2196.26V2006.65H2190.92V2050.35Z" fill="#FFA412"/>
<path d="M2179.96 2050.35H2185.3V2006.65H2179.96V2050.35Z" fill="#FFA412"/>
<path d="M2171.7 2006.8V2050.2C2172.36 2050.3 2173.02 2050.35 2173.71 2050.35H2177.04V2006.65H2173.71C2173.02 2006.65 2172.36 2006.71 2171.7 2006.8Z" fill="#FFA412"/>
<path d="M2164.31 2010.85V2046.15C2165.59 2047.74 2167.45 2049 2169.63 2049.71V2007.29C2167.45 2008 2165.59 2009.26 2164.31 2010.85Z" fill="#FFA412"/>
<path d="M2950.46 2259.44C2950.46 2136.58 2850.58 2036.97 2727.38 2036.97C2604.18 2036.97 2504.3 2136.58 2504.3 2259.44C2504.3 2382.3 2604.18 2481.91 2727.38 2481.91C2850.58 2481.91 2950.46 2382.3 2950.46 2259.44Z" fill="#E2810E"/>
<path d="M2969.93 2259.44C2969.93 2136.58 2870.04 2036.97 2746.84 2036.97C2623.64 2036.97 2523.76 2136.58 2523.76 2259.44C2523.76 2382.3 2623.64 2481.91 2746.84 2481.91C2870.04 2481.91 2969.93 2382.3 2969.93 2259.44Z" fill="#FFC76C"/>
<path d="M2555.72 2262.06C2555.72 2367.17 2641.46 2452.66 2746.84 2452.66C2852.23 2452.66 2937.97 2367.17 2937.97 2262.06C2937.97 2156.97 2852.23 2071.46 2746.84 2071.46C2641.46 2071.46 2555.72 2156.97 2555.72 2262.06ZM2603.12 2405.39C2564.73 2367.1 2543.59 2316.2 2543.59 2262.06C2543.59 2207.92 2564.73 2157.02 2603.12 2118.74C2641.51 2080.45 2692.55 2059.37 2746.84 2059.37C2801.14 2059.37 2852.17 2080.45 2890.56 2118.74C2928.95 2157.02 2950.09 2207.92 2950.09 2262.06C2950.09 2316.2 2928.95 2367.1 2890.56 2405.39C2852.17 2443.67 2801.14 2464.75 2746.84 2464.75C2692.55 2464.75 2641.51 2443.67 2603.12 2405.39Z" fill="#FFA412"/>
<path d="M2774.89 2320.89C2775.41 2316.52 2775.24 2312.6 2774.41 2309.13C2773.57 2305.65 2771.91 2302.39 2769.41 2299.35C2766.93 2296.32 2763.61 2293.38 2759.44 2290.57C2755.27 2287.76 2750.13 2284.88 2743.98 2281.93C2733.43 2276.78 2723.91 2271.55 2715.42 2266.28C2706.93 2261 2699.81 2255.23 2694.06 2248.95C2688.31 2242.68 2684.12 2235.64 2681.45 2227.83C2678.79 2220.02 2678.07 2211.01 2679.28 2200.83C2680.33 2191.97 2682.87 2184.09 2686.88 2177.18C2690.9 2170.26 2696.15 2164.45 2702.63 2159.72C2709.11 2155.01 2716.63 2151.44 2725.19 2149.02C2733.73 2146.6 2743.12 2145.51 2753.34 2145.79L2757.32 2112.37L2784.29 2115.56L2780.26 2149.44C2789.76 2151.83 2798.22 2155.42 2805.63 2160.2C2813.04 2164.98 2819.13 2170.77 2823.9 2177.56C2828.68 2184.35 2832.06 2192.12 2834.03 2200.84C2836.01 2209.57 2836.39 2219.15 2835.15 2229.55L2786.44 2223.8C2787.92 2211.3 2786.26 2201.63 2781.44 2194.78C2776.61 2187.94 2769.54 2183.96 2760.21 2182.84C2755.15 2182.24 2750.71 2182.43 2746.9 2183.41C2743.08 2184.38 2739.84 2185.95 2737.2 2188.11C2734.54 2190.29 2732.46 2192.97 2730.93 2196.17C2729.42 2199.36 2728.43 2202.89 2727.98 2206.73C2727.52 2210.59 2727.67 2214.14 2728.41 2217.4C2729.16 2220.66 2730.76 2223.77 2733.2 2226.76C2735.63 2229.73 2738.98 2232.67 2743.26 2235.54C2747.52 2238.42 2752.89 2241.51 2759.33 2244.81C2769.74 2250.15 2779.17 2255.49 2787.6 2260.81C2796.01 2266.13 2803.1 2271.96 2808.85 2278.29C2814.58 2284.61 2818.79 2291.68 2821.44 2299.5C2824.1 2307.31 2824.84 2316.24 2823.62 2326.35C2822.53 2335.5 2819.96 2343.53 2815.89 2350.45C2811.83 2357.35 2806.54 2363.11 2800.07 2367.72C2793.6 2372.34 2786.04 2375.78 2777.41 2378.02C2768.76 2380.28 2759.33 2381.27 2749.1 2381.01L2745.41 2412.07L2718.62 2408.91L2722.3 2377.99C2713.08 2375.96 2704.31 2372.86 2695.97 2368.7C2687.63 2364.56 2680.44 2359.14 2674.41 2352.46C2668.36 2345.79 2663.85 2337.73 2660.87 2328.31C2657.9 2318.86 2657.15 2307.92 2658.64 2295.42L2707.33 2301.19C2706.46 2308.57 2706.76 2314.87 2708.26 2320.05C2709.74 2325.25 2712.06 2329.53 2715.19 2332.91C2718.31 2336.28 2722.03 2338.83 2726.32 2340.56C2730.62 2342.28 2735.06 2343.41 2739.68 2343.95C2744.95 2344.58 2749.66 2344.46 2753.82 2343.57C2757.97 2342.69 2761.53 2341.21 2764.51 2339.13C2767.49 2337.07 2769.86 2334.47 2771.59 2331.35C2773.34 2328.22 2774.43 2324.75 2774.89 2320.89Z" fill="#FFA412"/>
<path d="M1775.51 2197.97C1775.51 2197.97 1747.36 2237.5 1721.55 2238.04C1695.75 2238.59 1656.48 2219.72 1656.48 2219.72C1656.48 2219.72 1632.78 2167.06 1648.85 2146.44C1648.85 2146.44 1664.97 2139.39 1681.83 2151.84C1684.72 2154 1687.66 2156.71 1690.55 2160.18C1694.65 2165.09 1699.24 2167.87 1704.1 2169.34C1722.52 2174.94 1744.38 2161.79 1752.55 2174.47C1757.33 2181.85 1762.52 2187.39 1766.8 2191.28C1771.85 2195.77 1775.51 2197.97 1775.51 2197.97Z" fill="#FFEDDC"/>
<path d="M1408.49 2483.07C1408.49 2483.07 1508 2242.62 1687.12 2238.04C1687.12 2238.04 1852.45 2256.37 1861.63 2483.07H1408.49Z" fill="#FFEDDC"/>
<path d="M1638.04 2245.39C1638.04 2245.39 1709.84 2261.31 1731.98 2251.95C1731.98 2251.95 1735.33 2222.02 1705.09 2226.21C1684.4 2229.08 1670.92 2219.16 1662.99 2215.14C1651.78 2209.45 1635.06 2232.87 1638.04 2245.39Z" fill="#2B478B"/>
<path d="M1700.52 2200.26C1695.93 2203.69 1681.83 2151.84 1681.83 2151.84C1684.72 2154 1687.66 2156.71 1690.55 2160.18C1694.65 2165.09 1699.24 2167.87 1704.1 2169.34C1704.16 2170.86 1704.97 2196.91 1700.52 2200.26Z" fill="#E5C1A1"/>
<path d="M1766.8 2191.28C1765.78 2191.87 1732.58 2211.71 1728.07 2211.71C1723.48 2211.71 1752.55 2174.47 1752.55 2174.47C1757.33 2181.85 1762.52 2187.39 1766.8 2191.28Z" fill="#E5C1A1"/>
<path d="M1505.7 2415.9C1503.86 2414.33 1576.12 2309.79 1596.02 2309.03C1615.92 2308.27 1660.64 2331.93 1693.01 2334.99C1725.38 2338.04 1756.76 2328.88 1762.89 2347.96C1769.02 2367.05 1785.85 2434.7 1775.51 2445.53C1765.19 2456.36 1545.43 2449.75 1505.7 2415.9Z" fill="#F9DDBF"/>
<path d="M2193.22 979.793L2186.44 941.637L2201.17 939.029L2207.89 976.804C2209.83 987.671 2216.28 992.33 2225.27 990.741C2234.26 989.152 2238.75 982.754 2236.85 972.159L2230.04 933.922L2244.78 931.314L2251.48 968.98C2255.08 989.206 2245.47 1001.13 2227.49 1004.32C2209.52 1007.5 2196.73 999.434 2193.22 979.793Z" fill="#A8D29F"/>
<path d="M2301.22 976.9C2307.74 975.745 2311.25 972.757 2310.34 967.609C2309.53 963.126 2305.69 960.953 2298.13 962.298L2281.11 965.313L2283.74 979.997L2301.22 976.9ZM2292.52 950.697C2299.02 949.543 2302.76 946.718 2301.85 941.569C2301.06 937.182 2297.18 935.308 2290.97 936.408L2276.42 938.989L2278.94 953.102L2292.52 950.697ZM2259.79 928.652L2290.87 923.15C2298.51 921.792 2304.92 922.825 2309.42 925.962C2313.03 928.475 2315.21 931.912 2316.07 936.679C2317.41 944.218 2314.14 949.122 2309.83 952.64C2318.1 954.229 2323.69 957.869 2325.32 967.025C2327.49 979.236 2318.63 987.101 2303.53 989.777L2271.68 995.414L2259.79 928.652Z" fill="#A8D29F"/>
<path d="M2329.5 916.304L2344.23 913.696L2356.12 980.458L2341.39 983.066L2329.5 916.304Z" fill="#A8D29F"/>
<path d="M2375.87 2285.5C2379.31 2289.44 2379.75 2293.86 2378.05 2298.56L2378.02 2298.63C2374.86 2307.33 2364.43 2317.04 2352.3 2326.76C2350.75 2328.01 2349.37 2329.13 2348.18 2330.18C2347.86 2330.45 2347.55 2330.74 2347.25 2331.01C2347 2331.23 2346.77 2331.44 2346.53 2331.65C2335.24 2342.04 2339.49 2344.43 2319.18 2365.51C2296.02 2389.53 2280.08 2389.96 2275.55 2387.77C2271.72 2385.91 2279.51 2373.17 2288.15 2358.84C2288.57 2358.16 2288.98 2357.46 2289.4 2356.76C2290.56 2354.86 2291.7 2352.92 2292.83 2351C2302.95 2333.78 2300.37 2325.68 2297.96 2300.04C2296.01 2279.19 2265.44 2183.59 2265.44 2183.59L2309.82 2175.97C2309.82 2175.97 2323.18 2252.1 2337.91 2263.83C2345.76 2270.07 2354.58 2270.14 2362.15 2274.79C2362.68 2275.1 2363.21 2275.44 2363.72 2275.78C2368.02 2278.62 2372.41 2281.55 2375.87 2285.5Z" fill="#FFB27D"/>
<path d="M2375.87 2285.5C2379.31 2289.44 2379.75 2293.86 2378.05 2298.56L2378.02 2298.63C2374.15 2307.32 2363.98 2316.99 2352.26 2326.66C2350.72 2327.93 2349.37 2329.09 2348.18 2330.18C2347.86 2330.45 2347.55 2330.74 2347.25 2331.01C2347 2331.23 2346.77 2331.44 2346.53 2331.65C2335.24 2342.04 2339.49 2344.43 2319.18 2365.51C2296.02 2389.53 2280.08 2389.96 2275.55 2387.77C2271.72 2385.91 2279.51 2373.17 2288.15 2358.84C2292.66 2357.2 2313.59 2348.72 2329.42 2328.52C2343.35 2310.78 2352.66 2287.99 2362.15 2274.79C2362.68 2275.1 2363.21 2275.44 2363.72 2275.78C2368.02 2278.62 2372.41 2281.55 2375.87 2285.5Z" fill="#233862"/>
<path d="M2018.1 2257.86C2015.36 2271.53 1995.83 2269.25 1974.02 2263.93C1952.22 2258.62 1957.41 2264.94 1926.37 2261.5C1895.32 2258.08 1885.91 2246.53 1884.97 2241.93C1884.11 2237.85 1899.46 2236.41 1915.9 2234.53C1917.97 2234.3 1920.06 2234.04 1922.13 2233.78C1940.71 2231.46 1954.32 2219.5 1971.18 2209.68C1987.17 2200.39 2011.02 2162.51 2011.02 2162.51L2053.58 2165.86C2053.58 2165.86 2031.25 2199.7 2022.61 2214.41C2017.53 2223.06 2017.79 2234.51 2018.43 2243.34C2018.76 2248.15 2019.07 2253.05 2018.1 2257.86Z" fill="#FFB27D"/>
<path d="M1974.02 2263.93C1952.22 2258.62 1957.41 2264.94 1926.37 2261.5C1895.32 2258.08 1885.91 2246.53 1884.97 2241.93C1884.11 2237.85 1899.46 2236.41 1915.9 2234.53L1916.07 2234.84C1916.07 2234.84 1934.67 2248 1960.51 2248.61C1981.58 2249.13 2003.88 2243.11 2018.43 2243.34C2018.76 2248.15 2019.07 2253.05 2018.1 2257.86C2015.36 2271.53 1995.83 2269.25 1974.02 2263.93Z" fill="#233862"/>
<path d="M2181.24 1986.41L2221.04 2093.21L2272.99 2232.64C2272.99 2232.64 2287.09 2234 2300.6 2230.13C2313.02 2226.54 2327.28 2217.17 2327.28 2217.17C2327.28 2217.17 2312.86 2067.45 2285.94 1981.51C2279.05 1959.45 2271.33 1941.6 2262.79 1931.56C2221.07 1882.39 2181.24 1986.41 2181.24 1986.41Z" fill="#233862"/>
<path d="M2221.71 1816.81C2247.78 1808.43 2322.13 1819.2 2396.83 1833.78L2412.47 1808.05L2573.8 1795.49C2573.8 1795.49 2627.05 1913.23 2597.9 1988.25C2593.62 1999.28 2585.11 2006.35 2570.59 2006.58H2568.23C2568.23 2006.58 2472.21 2006.53 2441.03 2006.53C2360.79 2006.53 2271.22 1951.52 2259.64 1949.21C2240.67 1945.43 2233.08 1983.26 2214.12 2022.98C2195.15 2062.7 2035.84 2198.87 2035.84 2198.87C2035.84 2198.87 2011.35 2199.11 2001.24 2195.34C1990.36 2191.26 1986.38 2185.98 1986.38 2185.98C1986.38 2185.98 2162.9 1835.73 2221.71 1816.81Z" fill="#2B478B"/>
<path d="M2367.52 1584.36C2418.4 1625.63 2540.99 1697.14 2541.67 1696.83C2541.67 1696.83 2580.94 1720.29 2607.73 1708.78C2652.4 1689.59 2686.69 1622.42 2624.91 1548.09C2594.11 1511.02 2568.56 1498.81 2574.57 1449.53C2581.06 1396.15 2556.89 1329.02 2495.25 1326.2C2490.1 1325.96 2458.9 1321.81 2436.63 1328.78C2379.87 1346.54 2284.96 1557.02 2367.52 1584.36Z" fill="#233862"/>
<path d="M2584.82 1812.95C2581.51 1822.1 2494.27 1830.25 2444.65 1826.96C2428.88 1825.94 2416.88 1823.73 2412.62 1820.06C2394.91 1804.72 2396.68 1838.45 2394.24 1677.07C2393.07 1598.36 2461.23 1528.26 2461.23 1528.26C2461.23 1528.26 2466.66 1561.88 2534.25 1521.86C2536.66 1520.46 2563.28 1559.76 2588.9 1608.16C2617.12 1661.64 2588.23 1803.54 2584.82 1812.95Z" fill="#AEC3FF"/>
<path d="M2221.04 2093.21L2272.99 2232.64C2272.99 2232.64 2287.09 2234 2300.6 2230.13C2313.02 2226.54 2327.28 2217.17 2327.28 2217.17C2327.28 2217.17 2312.86 2067.45 2285.94 1981.51L2221.04 2093.21Z" fill="#2B478B"/>
<path d="M2461.21 1528.25C2461.21 1528.25 2399.51 1543.34 2383.51 1569.87C2364.02 1602.15 2266.82 1747.79 2266.82 1747.79C2266.82 1747.79 2362.64 1781.59 2378.97 1765.3C2395.3 1749.02 2435.8 1614.2 2435.8 1614.2L2461.21 1528.25Z" fill="#AEC3FF"/>
<path d="M2534.41 1521.96C2534.67 1522 2509.51 1545.1 2491.07 1551.79C2483.85 1554.41 2471.87 1557.29 2471.87 1557.29C2471.87 1557.29 2462.24 1547.58 2462.1 1547.44C2453.55 1539.48 2462.14 1537.18 2460.85 1522.12C2460.78 1521.4 2460.72 1520.67 2460.64 1519.95C2458.91 1503.09 2454.04 1484.64 2453.72 1483.44L2453.7 1483.38L2513.41 1466.36L2511.49 1469.65C2515.17 1500.55 2526.3 1521.06 2534.41 1521.96Z" fill="#FFB27D"/>
<path d="M2513.41 1466.36C2507.62 1483.67 2491.82 1506.89 2459.61 1511.89C2456.5 1493.32 2454.04 1484.64 2453.72 1483.44L2453.7 1483.38L2513.41 1466.36Z" fill="#ED975D"/>
<path d="M2443.77 1501.32C2443.77 1501.32 2524.25 1495.99 2520.15 1446.05C2516.04 1396.12 2523.67 1361.8 2472.11 1363.09C2420.54 1364.39 2412.14 1384.26 2409.44 1401.26C2406.75 1418.26 2422.72 1501.42 2443.77 1501.32Z" fill="#FFB27D"/>
<path d="M2429.3 1362.2C2429.3 1362.2 2449.3 1420.72 2496.78 1427.51C2531.42 1432.48 2545.17 1423.14 2545.17 1423.14C2545.17 1423.14 2525.83 1404.82 2515.36 1376.64C2512.27 1368.33 2504.98 1362.29 2496.19 1360.94C2471.54 1357.14 2439.71 1340.86 2429.3 1362.2Z" fill="#233862"/>
<path d="M2446.35 1372.57C2446.35 1372.57 2431.98 1378.36 2421.96 1399.75C2416.48 1411.44 2412.52 1439.28 2415.91 1450.75C2415.91 1450.75 2392.77 1397.37 2409.52 1373.3C2427.28 1347.78 2446.35 1372.57 2446.35 1372.57Z" fill="#233862"/>
<path d="M2460.85 1522.12C2460.85 1522.12 2465.76 1551.75 2471.87 1557.29C2471.87 1557.29 2456.43 1551.6 2449.11 1531.7C2449.11 1531.7 2454.5 1522.8 2460.85 1522.12Z" fill="#91B0F2"/>
<path d="M2403.44 1622.9C2403.44 1622.9 2358.49 1676.67 2364.02 1696.15C2369.56 1715.62 2400.68 1715.62 2400.68 1715.62C2400.68 1715.62 2394.87 1674.13 2400.68 1652.53C2406.49 1630.95 2410.14 1621.62 2403.44 1622.9Z" fill="#91B0F2"/>
<path d="M2504.34 1777.83C2504.34 1777.83 2569.08 1738.48 2568.23 1715.62C2567.38 1692.75 2568.26 1650.81 2574.34 1656.68C2580.4 1662.56 2599.6 1709.68 2597.75 1723.02C2595.91 1736.37 2530.53 1829.54 2522.44 1829.31C2464.73 1827.71 2504.34 1777.83 2504.34 1777.83Z" fill="#91B0F2"/>
<path d="M2521.85 1508.23C2521.85 1508.23 2486.49 1552.57 2471.87 1557.29C2471.87 1557.29 2513.41 1557.29 2542.75 1522.71C2542.75 1522.71 2532.94 1508.37 2521.85 1508.23Z" fill="#91B0F2"/>
<path d="M2194.27 1729.89C2194.27 1639.52 2267.73 1566.25 2358.35 1566.25C2448.97 1566.25 2522.44 1639.52 2522.44 1729.89C2522.44 1820.26 2448.97 1893.52 2358.35 1893.52C2267.73 1893.52 2194.27 1820.26 2194.27 1729.89Z" fill="#E2810E"/>
<path d="M2179.96 1729.89C2179.96 1639.52 2253.41 1566.25 2344.03 1566.25C2434.65 1566.25 2508.12 1639.52 2508.12 1729.89C2508.12 1820.26 2434.65 1893.52 2344.03 1893.52C2253.41 1893.52 2179.96 1820.26 2179.96 1729.89Z" fill="#FFC76C"/>
<path d="M2344.03 1591.63C2266.52 1591.63 2203.47 1654.52 2203.47 1731.82C2203.47 1809.12 2266.52 1872.01 2344.03 1872.01C2421.55 1872.01 2484.62 1809.12 2484.62 1731.82C2484.62 1654.52 2421.55 1591.63 2344.03 1591.63ZM2344.03 1880.9C2304.11 1880.9 2266.56 1865.4 2238.32 1837.24C2210.09 1809.08 2194.55 1771.65 2194.55 1731.82C2194.55 1691.99 2210.09 1654.56 2238.32 1626.4C2266.56 1598.24 2304.11 1582.73 2344.03 1582.73C2383.97 1582.73 2421.51 1598.24 2449.75 1626.4C2477.98 1654.56 2493.54 1691.99 2493.54 1731.82C2493.54 1771.65 2477.98 1809.08 2449.75 1837.24C2421.51 1865.4 2383.97 1880.9 2344.03 1880.9Z" fill="#FFA412"/>
<path d="M2364.62 1775.08C2365 1771.88 2364.89 1768.98 2364.26 1766.43C2363.65 1763.88 2362.42 1761.47 2360.6 1759.25C2358.77 1757 2356.32 1754.86 2353.26 1752.78C2350.19 1750.71 2346.4 1748.6 2341.88 1746.44C2334.12 1742.65 2327.12 1738.8 2320.88 1734.92C2314.64 1731.03 2309.4 1726.79 2305.17 1722.18C2300.95 1717.56 2297.86 1712.38 2295.9 1706.64C2293.94 1700.89 2293.41 1694.28 2294.3 1686.78C2295.08 1680.27 2296.93 1674.47 2299.89 1669.38C2302.85 1664.3 2306.7 1660.02 2311.47 1656.56C2316.25 1653.08 2321.78 1650.46 2328.06 1648.68C2334.35 1646.9 2341.26 1646.1 2348.77 1646.29L2351.69 1621.71L2371.52 1624.06L2368.57 1648.98C2375.55 1650.74 2381.78 1653.38 2387.23 1656.89C2392.67 1660.41 2397.16 1664.66 2400.67 1669.66C2404.18 1674.66 2406.66 1680.37 2408.12 1686.79C2409.58 1693.22 2409.85 1700.25 2408.94 1707.9L2373.11 1703.66C2374.2 1694.48 2372.98 1687.38 2369.44 1682.32C2365.88 1677.3 2360.68 1674.36 2353.83 1673.55C2350.11 1673.11 2346.84 1673.25 2344.03 1673.97C2341.23 1674.68 2338.85 1675.84 2336.9 1677.43C2334.95 1679.02 2333.41 1680.99 2332.29 1683.36C2331.18 1685.71 2330.45 1688.3 2330.11 1691.12C2329.77 1693.96 2329.88 1696.57 2330.44 1698.96C2330.99 1701.37 2332.16 1703.65 2333.96 1705.85C2335.74 1708.04 2338.22 1710.2 2341.35 1712.31C2344.5 1714.43 2348.43 1716.7 2353.17 1719.12C2360.84 1723.06 2367.76 1726.98 2373.96 1730.9C2380.16 1734.81 2385.37 1739.1 2389.6 1743.75C2393.82 1748.41 2396.9 1753.61 2398.86 1759.34C2400.82 1765.09 2401.35 1771.67 2400.47 1779.1C2399.66 1785.83 2397.77 1791.75 2394.79 1796.82C2391.79 1801.9 2387.91 1806.13 2383.14 1809.53C2378.39 1812.93 2372.83 1815.45 2366.47 1817.11C2360.12 1818.77 2353.17 1819.5 2345.66 1819.31L2342.94 1842.16L2323.24 1839.82L2325.93 1817.08C2319.16 1815.59 2312.71 1813.31 2306.58 1810.26C2300.45 1807.21 2295.15 1803.21 2290.71 1798.31C2286.27 1793.39 2282.95 1787.47 2280.77 1780.53C2278.57 1773.6 2278.01 1765.53 2279.1 1756.35L2314.93 1760.59C2314.29 1766.02 2314.5 1770.66 2315.61 1774.47C2316.7 1778.29 2318.4 1781.44 2320.7 1783.93C2323 1786.41 2325.74 1788.29 2328.9 1789.55C2332.06 1790.81 2335.33 1791.66 2338.72 1792.05C2342.6 1792.51 2346.06 1792.42 2349.12 1791.76C2352.17 1791.13 2354.8 1790.04 2356.99 1788.5C2359.18 1786.98 2360.92 1785.07 2362.19 1782.77C2363.47 1780.49 2364.29 1777.92 2364.62 1775.08Z" fill="#FFA412"/>
<path d="M2168.54 1757.79C2168.54 1757.79 2166.72 1730.91 2176.91 1731.97C2189.4 1733.26 2202.68 1762.83 2196.59 1768.55C2190.49 1774.27 2168.68 1764.42 2168.54 1757.79Z" fill="#FFB27D"/>
<path d="M2517.47 1820L2502.27 1810.92C2502.27 1810.92 2492.84 1807.17 2487.28 1807.96C2481.73 1808.74 2468.54 1806.42 2468.13 1808.57C2467.71 1810.73 2480.8 1820.32 2480.8 1820.32C2472.93 1832.36 2444.41 1834.58 2442.24 1839.12C2439.61 1844.62 2452.5 1849.78 2459.48 1852.77C2466.47 1855.75 2484.34 1858.49 2494.67 1850.67C2502.21 1844.96 2514.61 1837.43 2514.61 1837.43L2517.47 1820Z" fill="#FFB27D"/>
<path d="M2534.26 1521.88C2534.26 1521.88 2598.12 1526.03 2614.08 1550.88C2630.04 1575.71 2681.31 1717.19 2673.02 1760.49C2664.71 1803.8 2512.85 1855.77 2512.85 1855.77C2512.85 1855.77 2506.14 1849.95 2506.14 1834.44C2506.14 1825.12 2511 1816.13 2511 1816.13C2511 1816.13 2604.17 1738.49 2597.75 1723.02C2574.08 1665.91 2534.26 1521.88 2534.26 1521.88Z" fill="#AEC3FF"/>
<path d="M3965.46 2495.72L225.92 2494.43C223.316 2494.43 221.184 2492.31 221.186 2489.72L221.187 2486.82C221.188 2484.23 223.32 2482.11 225.924 2482.11L3965.46 2483.39C3968.07 2483.39 3970.2 2485.52 3970.2 2488.11V2490.99C3970.2 2493.6 3968.06 2495.72 3965.46 2495.72Z" fill="#2E3552"/>
</svg>
