<?xml version="1.0" standalone="no"?>
<!DOCTYPE svg PUBLIC "-//W3C//DTD SVG 20010904//EN"
 "http://www.w3.org/TR/2001/REC-SVG-20010904/DTD/svg10.dtd">
<svg version="1.0" xmlns="http://www.w3.org/2000/svg"
 width="500.000000pt" height="500.000000pt" viewBox="0 0 500.000000 500.000000"
 preserveAspectRatio="xMidYMid meet">

<g transform="translate(0.000000,500.000000) scale(0.100000,-0.100000)"
fill="#000000" stroke="none">
<path d="M2480 2425 c0 -931 2 -1055 15 -1055 13 0 15 124 15 1055 0 931 -2
1055 -15 1055 -13 0 -15 -124 -15 -1055z"/>
<path d="M500 3196 c0 -8 15 -16 39 -20 21 -3 49 -14 62 -25 l24 -19 0 -564
c0 -546 -1 -564 -20 -598 -12 -21 -37 -43 -62 -55 -23 -11 -42 -27 -43 -35 0
-13 27 -15 185 -15 159 0 185 2 185 15 0 10 -18 19 -52 28 -97 22 -125 59
-139 176 -9 81 -12 1013 -3 1003 3 -3 126 -279 273 -614 174 -395 272 -608
282 -608 9 0 89 193 244 587 l230 588 3 -516 c1 -335 -1 -530 -8 -555 -12 -44
-33 -58 -99 -68 -28 -4 -46 -11 -46 -20 0 -10 63 -13 338 -14 304 -2 337 0
337 14 0 12 -12 18 -42 22 -69 9 -85 36 -93 159 -4 57 -5 315 -3 575 3 460 4
472 24 500 15 20 34 31 67 37 28 6 47 15 47 23 0 11 -46 13 -251 11 l-252 -3
-153 -394 c-85 -217 -156 -396 -159 -399 -5 -6 -8 0 -218 473 l-143 320 -277
3 c-231 2 -277 0 -277 -12z"/>
<path d="M2800 3197 c0 -8 19 -17 47 -23 33 -6 52 -17 67 -37 21 -28 21 -36
21 -590 0 -309 -3 -574 -8 -589 -8 -32 -52 -58 -97 -58 -22 0 -30 -5 -30 -17
0 -17 27 -18 423 -17 398 0 427 2 509 22 214 53 307 146 316 317 5 97 -9 136
-74 205 -75 80 -194 128 -379 152 l-90 12 65 12 c124 24 209 64 282 132 68 63
98 125 98 199 -1 144 -108 238 -318 279 -104 20 -832 21 -832 1z m681 -33 c52
-26 72 -88 77 -234 5 -136 -11 -232 -47 -280 -34 -47 -79 -70 -137 -70 l-54 0
0 248 c0 260 7 311 43 337 28 19 80 19 118 -1z m-32 -625 c154 -33 225 -169
200 -388 -11 -104 -48 -185 -97 -218 -67 -44 -186 -39 -214 10 -10 16 -14 102
-16 315 l-3 292 40 0 c22 0 62 -5 90 -11z"/>
</g>
</svg>
