<svg xmlns="http://www.w3.org/2000/svg" version="1.1" xmlns:xlink="http://www.w3.org/1999/xlink" xmlns:svgjs="http://svgjs.dev/svgjs" width="2000" height="1247" viewBox="0 0 2000 1247"><g transform="matrix(1,0,0,1,-1.2121212121212466,0.504858299595071)"><svg viewBox="0 0 396 247" data-background-color="#ffffff" preserveAspectRatio="xMidYMid meet" height="1247" width="2000" xmlns="http://www.w3.org/2000/svg" xmlns:xlink="http://www.w3.org/1999/xlink"><g id="tight-bounds" transform="matrix(1,0,0,1,0.2400000000000091,-0.09999999999999432)"><svg viewBox="0 0 395.52 247.2" height="247.2" width="395.52"><g><svg viewBox="0 0 395.52 247.2" height="247.2" width="395.52"><g><svg viewBox="0 0 395.52 247.2" height="247.2" width="395.52"><g><svg viewBox="0 0 395.52 247.2" height="247.2" width="395.52"><g><svg viewBox="0 0 395.52 247.2" height="247.2" width="395.52"><g><svg viewBox="0 0 395.52 247.2" height="247.2" width="395.52"><g transform="matrix(1,0,0,1,145.92245223527559,65.33440123022848)"><svg viewBox="0 0 103.67509552944881 116.53119753954304" height="116.53119753954304" width="103.67509552944881"><g><svg xmlns="http://www.w3.org/2000/svg" xmlns:xlink="http://www.w3.org/1999/xlink" version="1.1" x="0" y="0" viewBox="13.816692352294922 9.329999923706055 72.36630249023438 81.33999633789062" enable-background="new 0 0 100 100" xml:space="preserve" width="103.67509552944881" height="116.53119753954304" class="icon-o-0" data-fill-palette-color="accent" id="o-0"><g fill="#3967bb" data-fill-palette-color="accent"><g fill="#3967bb" data-fill-palette-color="accent"></g><g fill="#3967bb" data-fill-palette-color="accent"></g><g fill="#3967bb" data-fill-palette-color="accent"></g></g><path d="M54.593 9.33c-17.418 0-31.588 14.17-31.588 31.588v1.914l-9.01 16.826c-0.25 0.465-0.236 1.026 0.035 1.479 0.271 0.453 0.76 0.729 1.287 0.729h7.688v11.431c0 5.133 4.176 9.309 9.309 9.309h13.201v6.564c0 0.398 0.158 0.78 0.44 1.061 0.281 0.283 0.662 0.439 1.06 0.439h0.004 28.678c0.826-0.002 1.496-0.755 1.496-1.581v-26.13c5.803-5.927 8.99-13.729 8.99-22.041C86.183 23.5 72.011 9.33 54.593 9.33zM34.784 48.136c-1.937 0-3.507-1.571-3.507-3.507 0-1.938 1.57-3.508 3.507-3.508 1.938 0 3.508 1.57 3.508 3.508C38.292 46.564 36.722 48.136 34.784 48.136zM66.496 48.314c-0.446 0-0.908-0.025-1.379-0.066-0.647 1.862-0.507 4.099 0.308 5.729 0 0-1.958 1.458-4.291 0.916 0 0-3.853-2.736-3.374-8.619-2.808-1.261-4.788-2.813-6.462-4.131-1.637-1.29-2.93-2.309-4.49-2.703-1.084-0.273-2.31-0.476-3.494-0.67-3.557-0.586-7.234-1.191-9.008-3.916-1.068-1.641-1.25-3.738-0.559-6.411 2.146-8.282 12.432-13.231 21.135-13.231 1.104 0 2.18 0.082 3.194 0.242 13.569 2.15 20.977 12.58 20.058 21.011C77.831 39.244 76.093 48.314 66.496 48.314z" fill="#000000" data-fill-palette-color="accent"></path></svg></g></svg></g><path d="M100.102 79.752L105.734 85.33 104.045 89.551 96.45 89.757C96.244 89.753 95.86 89.749 95.297 89.745 94.74 89.744 94.104 89.736 93.388 89.721 92.679 89.708 91.947 89.698 91.194 89.689 90.442 89.674 89.755 89.659 89.132 89.646V89.646C89.717 89.88 90.394 90.151 91.164 90.459 91.927 90.765 92.7 91.074 93.482 91.387 94.27 91.703 95.011 92.003 95.704 92.288 96.401 92.581 96.945 92.82 97.335 93.005V93.005L101.859 95.009 99.807 100.135 77.515 89.645 79.43 84.861 94.69 84.862C95.161 84.865 95.811 84.882 96.641 84.915 97.478 84.95 98.373 85.015 99.328 85.111V85.111C98.595 84.532 97.914 83.967 97.285 83.415 96.656 82.863 96.164 82.413 95.811 82.064V82.064L84.767 71.533 86.641 66.851 110.013 74.643 107.92 79.871 103.248 78.236C102.816 78.085 102.25 77.876 101.549 77.61 100.848 77.343 100.11 77.055 99.334 76.744 98.558 76.434 97.785 76.117 97.014 75.794 96.243 75.471 95.574 75.196 95.008 74.969V74.969C95.41 75.338 95.867 75.749 96.378 76.204 96.889 76.659 97.38 77.109 97.852 77.555 98.321 78.007 98.758 78.432 99.163 78.83 99.562 79.225 99.875 79.533 100.102 79.752ZM114.099 69.287C113.341 70.447 112.431 71.184 111.371 71.497 110.307 71.816 109.228 71.618 108.134 70.903V70.903L96.183 63.093 99.324 58.287 109.909 65.205C110.375 65.51 110.734 65.646 110.986 65.612 111.241 65.573 111.462 65.412 111.647 65.129V65.129C111.752 64.968 111.843 64.798 111.921 64.618 111.996 64.43 112.036 64.309 112.039 64.256V64.256L115.331 65.801C115.339 65.838 115.323 65.959 115.285 66.163 115.252 66.371 115.197 66.637 115.121 66.96 115.036 67.284 114.909 67.653 114.742 68.067 114.578 68.475 114.364 68.881 114.099 69.287ZM90.466 55.838C91.021 54.988 91.696 54.507 92.492 54.393 93.297 54.277 94.082 54.469 94.848 54.97V54.97C95.642 55.489 96.154 56.148 96.384 56.948 96.61 57.754 96.426 58.612 95.831 59.522V59.522C95.276 60.372 94.588 60.854 93.769 60.968 92.951 61.091 92.19 60.923 91.485 60.462V60.462C90.674 59.932 90.152 59.258 89.918 58.44 89.685 57.621 89.867 56.754 90.466 55.838ZM127.659 52.912L123.861 57.27 115.319 49.824C114.679 49.266 114.094 48.892 113.564 48.703 113.039 48.518 112.593 48.636 112.227 49.056V49.056C111.783 49.566 111.701 50.33 111.982 51.35 112.273 52.369 113.019 53.401 114.219 54.447V54.447L121.096 60.442 117.324 64.769 110.207 58.566C109.112 57.611 108.134 56.895 107.274 56.418 106.419 55.946 105.677 55.611 105.047 55.415V55.415C104.346 55.19 103.718 55.078 103.163 55.079V55.079L105.101 50.644C105.43 50.64 105.784 50.659 106.163 50.698V50.698C106.494 50.732 106.876 50.819 107.309 50.958 107.751 51.097 108.213 51.298 108.697 51.561V51.561C108.251 50.337 108.19 49.135 108.513 47.956 108.832 46.773 109.42 45.689 110.279 44.704V44.704C111.521 43.28 112.838 42.646 114.231 42.805 115.624 42.954 117.042 43.658 118.487 44.917V44.917ZM142.572 39.753L139.835 43.744 139.51 43.684C139.305 43.659 139.028 43.58 138.681 43.448 138.337 43.322 137.948 43.142 137.513 42.91 137.087 42.679 136.658 42.362 136.225 41.96V41.96C136.6 43.116 136.664 44.182 136.418 45.158 136.167 46.139 135.527 47.032 134.499 47.838V47.838C133.564 48.571 132.615 49.037 131.651 49.236 130.686 49.436 129.733 49.408 128.791 49.152 127.85 48.887 126.926 48.401 126.019 47.696 125.113 46.991 124.242 46.106 123.408 45.041V45.041C122.556 43.955 121.94 42.808 121.557 41.6 121.18 40.387 121.038 39.196 121.133 38.026 121.232 36.852 121.572 35.731 122.15 34.663 122.728 33.594 123.55 32.643 124.615 31.808V31.808C124.787 31.673 124.981 31.538 125.195 31.404 125.415 31.265 125.636 31.122 125.857 30.974V30.974L120.972 24.741 126.073 21.943 136.316 35.012C137.195 36.135 138.017 37.016 138.78 37.657 139.539 38.292 140.195 38.768 140.747 39.086 141.304 39.399 141.745 39.585 142.069 39.643V39.643ZM132.641 43.935C132.928 43.71 133.103 43.375 133.166 42.929 133.231 42.474 133.194 41.964 133.054 41.399 132.92 40.83 132.693 40.233 132.371 39.608 132.05 38.983 131.65 38.366 131.172 37.755V37.755L128.569 34.435C128.389 34.484 128.163 34.577 127.891 34.714 127.614 34.855 127.389 34.993 127.217 35.128V35.128C126.758 35.488 126.454 35.886 126.307 36.322 126.164 36.763 126.138 37.23 126.229 37.723 126.325 38.221 126.53 38.747 126.846 39.3 127.156 39.857 127.535 40.42 127.98 40.989V40.989C128.398 41.522 128.809 42.025 129.215 42.499 129.611 42.973 130.011 43.359 130.414 43.658 130.817 43.957 131.205 44.146 131.578 44.224 131.947 44.298 132.301 44.201 132.641 43.935ZM137.066 14.284L141.571 22.627C141.86 21.837 142.304 21.131 142.902 20.506 143.496 19.876 144.187 19.349 144.975 18.923V18.923C146.639 18.025 148.095 17.888 149.343 18.51 150.585 19.136 151.666 20.301 152.586 22.005V22.005L158.367 32.712 153.289 35.453 147.906 25.482C147.502 24.735 147.086 24.18 146.656 23.816 146.229 23.459 145.771 23.412 145.281 23.677V23.677C145 23.828 144.766 24.071 144.578 24.407 144.39 24.742 144.27 25.149 144.22 25.629 144.179 26.111 144.219 26.639 144.341 27.214 144.46 27.798 144.687 28.399 145.021 29.018V29.018L149.577 37.457 144.526 40.184 132.478 17.869ZM167.505 20.376L164.779 11.711 170.255 9.988 173.1 19.033C173.536 20.418 173.991 21.544 174.465 22.41 174.939 23.276 175.394 23.947 175.828 24.422V24.422C176.311 25.007 176.797 25.424 177.286 25.674V25.674L173.318 28.445C173.044 28.302 172.751 28.102 172.441 27.845V27.845C172.178 27.649 171.891 27.378 171.58 27.031 171.269 26.684 170.97 26.263 170.683 25.77V25.77C170.424 27.047 169.847 28.097 168.952 28.921 168.059 29.752 167.002 30.359 165.781 30.743V30.743C164.876 31.028 164.062 31.124 163.337 31.032 162.609 30.948 161.963 30.706 161.399 30.307 160.831 29.915 160.342 29.377 159.931 28.693 159.53 28.013 159.184 27.211 158.893 26.287V26.287L155.251 14.709 160.755 12.977 164.168 23.825C164.422 24.634 164.725 25.255 165.077 25.687 165.437 26.123 165.882 26.258 166.414 26.09V26.09C167.059 25.887 167.52 25.266 167.798 24.226 168.082 23.184 167.985 21.901 167.505 20.376ZM178.973 26.015L175.919 1.682 181.494 0 182.697 9.585C183.48 8.264 184.655 7.504 186.221 7.308V7.308C187.346 7.167 188.364 7.26 189.274 7.587 190.184 7.913 190.968 8.433 191.626 9.146 192.289 9.852 192.828 10.74 193.244 11.811 193.659 12.882 193.952 14.102 194.124 15.471V15.471C194.296 16.839 194.235 18.137 193.941 19.364 193.64 20.585 193.147 21.67 192.464 22.618 191.775 23.573 190.908 24.36 189.863 24.98 188.818 25.599 187.624 25.993 186.281 26.161V26.161C185.538 26.254 184.755 26.303 183.933 26.305 183.118 26.314 182.361 26.299 181.661 26.26 180.962 26.227 180.365 26.188 179.872 26.143 179.377 26.092 179.078 26.049 178.973 26.015ZM185.631 11.633C185.243 11.682 184.908 11.895 184.628 12.271 184.348 12.647 184.127 13.126 183.966 13.707 183.805 14.289 183.706 14.96 183.667 15.72 183.63 16.487 183.661 17.265 183.76 18.055V18.055L184.244 21.915C184.395 21.943 184.625 21.967 184.935 21.988 185.239 22.01 185.512 22.006 185.756 21.976V21.976C186.328 21.904 186.793 21.718 187.15 21.42 187.5 21.122 187.763 20.734 187.937 20.258 188.112 19.788 188.206 19.238 188.221 18.608 188.243 17.984 188.209 17.313 188.119 16.595V16.595C188.034 15.924 187.94 15.278 187.835 14.656 187.737 14.033 187.589 13.49 187.39 13.027 187.198 12.563 186.966 12.201 186.692 11.941 186.412 11.682 186.059 11.58 185.631 11.633ZM206.033 25.47L209.609 1.138C209.826 1.17 210.267 1.228 210.931 1.312 211.589 1.396 212.315 1.496 213.109 1.612 213.897 1.728 214.662 1.837 215.404 1.94 216.148 2.035 216.713 2.112 217.1 2.169V2.169C220.145 2.616 222.355 3.521 223.73 4.883 225.111 6.252 225.659 7.905 225.375 9.841V9.841C225.194 11.068 224.645 12.09 223.727 12.907 222.81 13.724 221.559 14.274 219.975 14.558V14.558C221.696 15.347 222.919 16.311 223.643 17.45 224.375 18.583 224.638 19.845 224.434 21.237V21.237C223.764 25.791 219.991 27.562 213.114 26.551V26.551C212.779 26.502 212.271 26.427 211.588 26.327 210.899 26.226 210.185 26.114 209.445 25.992 208.706 25.87 208.018 25.762 207.381 25.669 206.751 25.576 206.302 25.51 206.033 25.47ZM213.49 15.988L212.538 22.465 214.3 22.724C214.779 22.794 215.236 22.811 215.67 22.774 216.105 22.737 216.493 22.63 216.834 22.452 217.183 22.269 217.475 21.993 217.71 21.626 217.945 21.258 218.106 20.772 218.195 20.169V20.169C218.262 19.716 218.267 19.271 218.21 18.833 218.154 18.396 218.005 17.995 217.764 17.632 217.522 17.268 217.183 16.953 216.746 16.688 216.308 16.429 215.754 16.25 215.085 16.152V16.152C214.744 16.102 214.435 16.063 214.157 16.035 213.879 16.008 213.657 15.992 213.49 15.988ZM214.975 5.889L214.044 12.218 215.698 12.461C216.44 12.57 217.136 12.441 217.786 12.074 218.444 11.701 218.861 10.918 219.037 9.724V9.724C219.185 8.713 219.068 7.895 218.684 7.268 218.301 6.636 217.568 6.24 216.485 6.081V6.081C216.177 6.035 215.885 5.992 215.609 5.952 215.333 5.911 215.122 5.89 214.975 5.889ZM237.853 19.371C237.601 19.287 237.302 19.265 236.953 19.303 236.612 19.343 236.255 19.459 235.884 19.651 235.511 19.848 235.159 20.14 234.828 20.527 234.498 20.913 234.229 21.418 234.022 22.041V22.041L231.106 30.833 225.657 29.025 228.63 20.064C229.087 18.685 229.37 17.507 229.477 16.53 229.583 15.558 229.605 14.745 229.543 14.088V14.088C229.479 13.354 229.34 12.731 229.125 12.22V12.22L233.964 12.295C234.069 12.588 234.177 12.917 234.286 13.282V13.282C234.358 13.592 234.423 13.974 234.483 14.427 234.536 14.878 234.536 15.374 234.482 15.915V15.915C235.42 15.003 236.366 14.437 237.32 14.215 238.274 13.994 239.293 14.062 240.376 14.422V14.422C240.86 14.582 241.278 14.766 241.629 14.973 241.979 15.181 242.265 15.373 242.485 15.551V15.551L239.352 20.287C239.22 20.139 239.034 19.983 238.795 19.819 238.557 19.65 238.244 19.5 237.853 19.371ZM251.872 19.61C254.454 20.884 255.97 22.554 256.422 24.62 256.877 26.679 256.462 29.011 255.176 31.616V31.616C254.565 32.853 253.845 33.921 253.016 34.821 252.178 35.724 251.248 36.4 250.227 36.85 249.203 37.306 248.099 37.519 246.916 37.49 245.726 37.457 244.492 37.125 243.213 36.494V36.494C241.911 35.851 240.881 35.105 240.123 34.258 239.366 33.41 238.867 32.48 238.628 31.466 238.38 30.456 238.365 29.362 238.585 28.183 238.801 27.01 239.227 25.782 239.861 24.497V24.497C240.472 23.26 241.198 22.187 242.039 21.278 242.874 20.366 243.802 19.686 244.823 19.236 245.847 18.78 246.951 18.566 248.134 18.596 249.324 18.629 250.57 18.967 251.873 19.61ZM249.662 23.345C249.269 23.151 248.889 23.104 248.522 23.204 248.146 23.307 247.788 23.522 247.449 23.85 247.106 24.184 246.775 24.608 246.454 25.123 246.133 25.638 245.817 26.21 245.506 26.841V26.841C245.183 27.495 244.91 28.129 244.688 28.744 244.462 29.366 244.323 29.933 244.269 30.446 244.221 30.963 244.287 31.421 244.467 31.82 244.647 32.22 244.966 32.532 245.424 32.759V32.759C245.81 32.949 246.193 32.991 246.572 32.882 246.952 32.773 247.312 32.552 247.655 32.218 247.988 31.887 248.32 31.463 248.65 30.945 248.97 30.43 249.28 29.87 249.58 29.263V29.263C249.912 28.591 250.188 27.95 250.407 27.341 250.626 26.732 250.76 26.169 250.808 25.653 250.862 25.14 250.799 24.683 250.619 24.284 250.439 23.884 250.12 23.571 249.662 23.345ZM259.288 28.904L261.728 25.475 264.151 27.2 266.823 24.51 271.51 26.502 268.707 30.442 272.2 32.928 269.201 35.959 266.267 33.87 261.571 40.469C260.952 41.339 261.096 42.097 262.004 42.743V42.743C262.496 43.093 263.003 43.381 263.527 43.606V43.606C263.807 43.716 264.087 43.826 264.367 43.936V43.936L262.937 47.644C262.442 47.503 261.784 47.267 260.963 46.935 260.141 46.602 259.227 46.078 258.222 45.363V45.363C256.742 44.309 255.802 43.177 255.402 41.964 254.999 40.758 255.317 39.425 256.355 37.966V37.966L261.622 30.565ZM285.606 33.96L279.08 40.838C279.921 40.867 280.731 41.069 281.51 41.442 282.294 41.811 283.01 42.304 283.66 42.92V42.92C285.031 44.221 285.615 45.562 285.412 46.942 285.205 48.317 284.434 49.707 283.101 51.112V51.112L274.726 59.939 270.54 55.967 278.34 47.747C278.924 47.131 279.322 46.562 279.534 46.041 279.741 45.524 279.642 45.074 279.238 44.69V44.69C279.007 44.471 278.703 44.324 278.325 44.25 277.948 44.175 277.524 44.189 277.053 44.29 276.582 44.401 276.092 44.604 275.584 44.899 275.066 45.194 274.565 45.596 274.081 46.106V46.106L267.48 53.064 263.316 49.113 280.77 30.716ZM282.517 56.241C283.829 55.282 285.128 54.625 286.412 54.269 287.697 53.914 288.923 53.827 290.091 54.008 291.259 54.19 292.348 54.601 293.359 55.243 294.37 55.884 295.261 56.732 296.032 57.787V57.787C296.705 58.708 297.164 59.572 297.409 60.379 297.657 61.191 297.73 61.948 297.625 62.648 297.525 63.354 297.277 64.004 296.881 64.597 296.486 65.181 295.976 65.702 295.349 66.16V66.16C294.648 66.673 293.855 66.981 292.97 67.086 292.089 67.196 291.169 67.095 290.211 66.785 289.252 66.484 288.278 65.984 287.291 65.284 286.294 64.583 285.319 63.682 284.365 62.58V62.58C283.878 63.149 283.586 63.745 283.489 64.366 283.391 64.996 283.612 65.681 284.153 66.42V66.42C284.47 66.853 284.857 67.277 285.315 67.69 285.767 68.106 286.203 68.478 286.622 68.804V68.804C287.112 69.194 287.618 69.559 288.139 69.902V69.902L285.727 73.008C285.091 72.667 284.446 72.256 283.79 71.774V71.774C283.247 71.357 282.656 70.853 282.018 70.26 281.37 69.665 280.76 68.977 280.189 68.195V68.195C279.316 67.001 278.747 65.852 278.482 64.747 278.213 63.638 278.192 62.585 278.418 61.591 278.653 60.597 279.125 59.653 279.834 58.757 280.552 57.862 281.446 57.023 282.517 56.241ZM292.286 59.625C292.016 59.256 291.676 59.015 291.266 58.904 290.86 58.798 290.424 58.797 289.957 58.9 289.49 59.003 289.013 59.171 288.526 59.403 288.033 59.64 287.578 59.899 287.159 60.18V60.18C287.602 60.752 288.05 61.181 288.504 61.465 288.953 61.753 289.387 61.937 289.807 62.016 290.225 62.105 290.616 62.106 290.981 62.021 291.34 61.939 291.637 61.812 291.873 61.64V61.64C292.242 61.37 292.463 61.048 292.536 60.675 292.612 60.307 292.529 59.957 292.286 59.625ZM301.271 77.681C301.149 77.446 300.949 77.221 300.673 77.005 300.4 76.796 300.064 76.631 299.664 76.509 299.259 76.391 298.803 76.355 298.296 76.402 297.79 76.448 297.245 76.623 296.663 76.925V76.925L288.443 81.196 285.797 76.102 294.175 71.749C295.464 71.079 296.487 70.431 297.246 69.806 297.999 69.183 298.582 68.614 298.995 68.101V68.101C299.461 67.53 299.795 66.986 299.997 66.47V66.47L303.415 69.896C303.286 70.18 303.133 70.491 302.958 70.829V70.829C302.793 71.102 302.574 71.421 302.301 71.787 302.024 72.147 301.678 72.503 301.263 72.853V72.853C302.571 72.854 303.644 73.107 304.483 73.613 305.321 74.119 306.004 74.879 306.53 75.891V75.891C306.765 76.344 306.936 76.767 307.043 77.16 307.15 77.553 307.221 77.89 307.255 78.171V78.171L301.707 79.383C301.716 79.184 301.691 78.943 301.633 78.659 301.581 78.372 301.461 78.046 301.271 77.681ZM310.942 86.804V86.804C311.254 87.672 311.468 88.504 311.585 89.3 311.701 90.091 311.77 90.802 311.793 91.436V91.436C311.806 92.178 311.787 92.869 311.735 93.508V93.508L307.289 93.171C307.312 92.959 307.341 92.688 307.377 92.357 307.411 92.021 307.438 91.663 307.456 91.282 307.474 90.902 307.462 90.516 307.419 90.122 307.38 89.72 307.299 89.348 307.176 89.004V89.004C307.046 88.642 306.855 88.366 306.603 88.174 306.357 87.981 306.062 87.946 305.719 88.069V88.069C305.357 88.199 305.082 88.563 304.895 89.159 304.705 89.748 304.591 90.491 304.554 91.385V91.385C304.477 92.956 304.178 94.252 303.657 95.271 303.138 96.296 302.216 97.047 300.893 97.523V97.523C300.169 97.783 299.423 97.904 298.655 97.884 297.886 97.864 297.161 97.688 296.477 97.356 295.788 97.026 295.157 96.527 294.585 95.858 294.005 95.186 293.535 94.35 293.176 93.352V93.352C292.889 92.553 292.68 91.786 292.55 91.05 292.41 90.311 292.321 89.621 292.281 88.98 292.247 88.336 292.232 87.757 292.237 87.24 292.248 86.722 292.269 86.302 292.301 85.98V85.98L296.873 86.345C296.87 86.473 296.839 86.71 296.78 87.055 296.725 87.392 296.684 87.78 296.659 88.219 296.638 88.65 296.641 89.1 296.669 89.569 296.694 90.032 296.777 90.457 296.916 90.844V90.844C297.089 91.325 297.321 91.685 297.612 91.926 297.903 92.167 298.229 92.222 298.591 92.092V92.092C299.028 91.935 299.351 91.607 299.559 91.109 299.762 90.614 299.872 90.028 299.889 89.352V89.352C299.955 87.397 300.281 85.894 300.869 84.844 301.459 83.8 302.394 83.048 303.674 82.588V82.588C304.404 82.325 305.124 82.221 305.835 82.276 306.549 82.322 307.228 82.526 307.872 82.886 308.517 83.246 309.103 83.751 309.633 84.399 310.162 85.048 310.598 85.849 310.942 86.804ZM97.034 176.521L88.952 176.379 87.223 172.088 92.665 166.59C92.823 166.448 93.108 166.179 93.52 165.784 93.933 165.389 94.405 164.945 94.936 164.452 95.472 163.956 96.019 163.45 96.576 162.932 97.138 162.412 97.656 161.939 98.127 161.513V161.513C97.531 161.754 96.842 162.031 96.061 162.346 95.285 162.659 94.498 162.976 93.698 163.299 92.892 163.623 92.133 163.922 91.421 164.195 90.709 164.468 90.141 164.675 89.719 164.817V164.817L84.983 166.533 82.878 161.31 106.666 153.318 108.631 158.191 97.412 168.945C97.065 169.272 96.572 169.717 95.934 170.281 95.294 170.84 94.588 171.421 93.816 172.026V172.026C94.767 171.936 95.668 171.873 96.519 171.837 97.369 171.802 98.049 171.785 98.558 171.787V171.787L114.099 171.755 116.022 176.525 93.342 187.267 91.196 181.943 95.783 179.857C96.21 179.657 96.774 179.408 97.477 179.11 98.179 178.813 98.927 178.504 99.721 178.184 100.508 177.867 101.298 177.555 102.09 177.25 102.889 176.943 103.574 176.673 104.146 176.443V176.443C103.586 176.454 102.961 176.474 102.271 176.501 101.575 176.532 100.894 176.545 100.228 176.542 99.564 176.545 98.945 176.544 98.371 176.54 97.795 176.529 97.349 176.523 97.034 176.521ZM98.774 195.782C98.002 194.608 97.683 193.459 97.819 192.338 97.952 191.211 98.572 190.284 99.68 189.555V189.555L111.834 181.564 115.048 186.452 104.291 193.525C103.814 193.838 103.543 194.12 103.477 194.369 103.405 194.623 103.464 194.894 103.654 195.182V195.182C103.763 195.348 103.886 195.505 104.023 195.653 104.166 195.798 104.261 195.882 104.309 195.906V195.906L101.525 198.355C101.494 198.344 101.39 198.282 101.212 198.168 101.031 198.049 100.805 197.888 100.536 197.684 100.263 197.474 99.969 197.207 99.653 196.884 99.337 196.56 99.044 196.193 98.774 195.782ZM120.941 179.172C121.51 180.036 121.686 180.865 121.469 181.659 121.253 182.452 120.751 183.107 119.964 183.625V183.625C119.16 184.153 118.339 184.359 117.501 184.244 116.658 184.132 115.932 183.613 115.323 182.687V182.687C114.755 181.823 114.581 180.985 114.801 180.173 115.021 179.361 115.492 178.718 116.212 178.245V178.245C117.038 177.702 117.879 177.49 118.736 177.61 119.594 177.72 120.329 178.241 120.941 179.172ZM114.202 213.999L110.322 209.568 119.014 201.96C119.662 201.392 120.117 200.853 120.376 200.344 120.64 199.84 120.584 199.373 120.208 198.944V198.944C119.754 198.425 118.993 198.24 117.925 198.39 116.858 198.54 115.713 199.15 114.49 200.221V200.221L107.498 206.341 103.645 201.939 110.884 195.603C111.997 194.628 112.85 193.74 113.444 192.939 114.042 192.142 114.484 191.438 114.769 190.827V190.827C115.091 190.148 115.29 189.529 115.365 188.97V188.97L119.572 191.541C119.532 191.867 119.466 192.22 119.375 192.6V192.6C119.297 192.923 119.157 193.297 118.955 193.721 118.753 194.145 118.489 194.583 118.162 195.036V195.036C119.455 194.751 120.678 194.853 121.829 195.343 122.972 195.833 123.982 196.579 124.86 197.582V197.582C126.127 199.029 126.59 200.444 126.249 201.827 125.903 203.214 124.997 204.55 123.529 205.834V205.834ZM133.143 227.636L128.529 225.917 128.507 225.572C128.486 225.362 128.495 225.071 128.534 224.697 128.573 224.324 128.657 223.898 128.787 223.418 128.912 222.935 129.116 222.43 129.401 221.904V221.904C128.358 222.562 127.322 222.886 126.296 222.876 125.265 222.871 124.224 222.458 123.173 221.638V221.638C122.221 220.896 121.526 220.072 121.088 219.167 120.655 218.266 120.448 217.318 120.467 216.323 120.495 215.327 120.746 214.295 121.219 213.225 121.695 212.15 122.358 211.069 123.206 209.981V209.981C124.071 208.872 125.055 207.983 126.159 207.312 127.262 206.642 128.406 206.21 129.592 206.016 130.774 205.827 131.963 205.888 133.159 206.199 134.355 206.509 135.497 207.089 136.585 207.937V207.937C136.763 208.076 136.948 208.233 137.139 208.408 137.327 208.588 137.52 208.772 137.718 208.96V208.96L142.68 202.598 146.692 206.951 136.289 220.287C135.396 221.432 134.729 222.46 134.289 223.369 133.848 224.279 133.539 225.047 133.361 225.674 133.184 226.301 133.106 226.779 133.127 227.107V227.107ZM126.571 218.851C126.864 219.079 127.241 219.167 127.702 219.115 128.16 219.068 128.655 218.908 129.188 218.634 129.716 218.356 130.249 217.98 130.786 217.508 131.328 217.039 131.842 216.493 132.327 215.871V215.871L134.964 212.49C134.873 212.326 134.725 212.123 134.52 211.879 134.316 211.644 134.126 211.457 133.948 211.319V211.319C133.482 210.955 133.013 210.754 132.54 210.713 132.073 210.676 131.604 210.765 131.134 210.979 130.67 211.197 130.2 211.529 129.726 211.975 129.256 212.416 128.793 212.929 128.336 213.515V213.515C127.912 214.059 127.516 214.587 127.149 215.1 126.783 215.614 126.501 216.104 126.304 216.573 126.108 217.051 126.016 217.48 126.03 217.861 126.04 218.248 126.221 218.578 126.571 218.851ZM153.837 209.701L149.267 218.212C150.098 218.011 150.947 217.993 151.815 218.157 152.679 218.313 153.515 218.608 154.321 219.041V219.041C156.016 219.951 156.95 221.107 157.122 222.51 157.292 223.918 156.909 225.493 155.974 227.235V227.235L150.109 238.156 144.92 235.369 150.385 225.193C150.793 224.433 151.032 223.771 151.102 223.207 151.166 222.639 150.947 222.22 150.444 221.95V221.95C150.164 221.799 149.827 221.739 149.435 221.769 149.042 221.799 148.63 221.928 148.199 222.156 147.768 222.384 147.339 222.714 146.911 223.147 146.486 223.573 146.104 224.102 145.765 224.733V224.733L141.143 233.341 135.989 230.573 148.208 207.819ZM167.889 234.109L170.643 225.276 176.228 227.018 173.353 236.24C172.912 237.652 172.64 238.859 172.536 239.862 172.434 240.858 172.423 241.682 172.505 242.333V242.333C172.573 243.097 172.737 243.729 172.998 244.227V244.227L168.065 244.241C167.923 243.961 167.796 243.623 167.683 243.226V243.226C167.58 242.909 167.498 242.515 167.437 242.045 167.375 241.574 167.368 241.051 167.415 240.475V240.475C166.464 241.387 165.371 241.929 164.137 242.1 162.909 242.272 161.671 242.164 160.424 241.775V241.775C159.505 241.489 158.769 241.1 158.214 240.607 157.654 240.106 157.251 239.529 157.003 238.875 156.757 238.215 156.663 237.48 156.721 236.671 156.779 235.862 156.955 234.986 157.249 234.043V234.043L160.927 222.246 166.55 224 163.103 235.055C162.846 235.878 162.74 236.575 162.785 237.145 162.823 237.712 163.114 238.081 163.659 238.251V238.251C164.317 238.456 165.066 238.207 165.904 237.502 166.744 236.792 167.405 235.661 167.889 234.109ZM177.102 245.065L180.147 220.28 186.076 219.996 184.875 229.772C185.98 228.665 187.329 228.209 188.922 228.405V228.405C190.067 228.545 191.051 228.89 191.872 229.439 192.687 229.987 193.332 230.691 193.808 231.551 194.283 232.418 194.593 233.432 194.737 234.592 194.881 235.759 194.867 237.041 194.696 238.436V238.436C194.524 239.832 194.139 241.094 193.539 242.223 192.939 243.353 192.184 244.302 191.274 245.073 190.357 245.849 189.306 246.411 188.12 246.76 186.934 247.109 185.654 247.199 184.278 247.029V247.029C183.521 246.936 182.737 246.79 181.926 246.59 181.121 246.398 180.377 246.196 179.695 245.985 179.013 245.774 178.431 245.586 177.95 245.42 177.477 245.248 177.194 245.13 177.102 245.065ZM187.254 232.52C186.865 232.472 186.485 232.599 186.114 232.901 185.736 233.202 185.397 233.622 185.098 234.159 184.798 234.691 184.533 235.33 184.301 236.076 184.076 236.817 183.914 237.592 183.814 238.402V238.402L183.331 242.332C183.471 242.396 183.691 242.48 183.992 242.584 184.288 242.68 184.557 242.744 184.801 242.773V242.773C185.393 242.846 185.9 242.778 186.319 242.569 186.746 242.361 187.102 242.044 187.389 241.618 187.675 241.192 187.906 240.672 188.081 240.059 188.257 239.446 188.39 238.774 188.479 238.043V238.043C188.564 237.359 188.632 236.695 188.684 236.054 188.743 235.413 188.733 234.84 188.654 234.336 188.583 233.826 188.441 233.411 188.226 233.09 188.019 232.764 187.695 232.574 187.254 232.52ZM208.703 247.2L205.034 222.419C205.251 222.387 205.693 222.315 206.36 222.202 207.034 222.089 207.771 221.973 208.571 221.855 209.378 221.735 210.162 221.613 210.921 221.487 211.673 221.362 212.243 221.271 212.63 221.214V221.214C215.734 220.754 218.159 220.989 219.905 221.917 221.652 222.845 222.671 224.296 222.964 226.271V226.271C223.148 227.518 222.914 228.676 222.261 229.745 221.608 230.813 220.548 231.718 219.082 232.458V232.458C220.992 232.725 222.47 233.304 223.513 234.196 224.557 235.087 225.184 236.241 225.394 237.659V237.659C226.081 242.297 222.92 245.135 215.913 246.173V246.173C215.572 246.223 215.054 246.3 214.358 246.403 213.663 246.506 212.937 246.607 212.18 246.705 211.424 246.804 210.721 246.901 210.071 246.997 209.428 247.093 208.972 247.16 208.703 247.2ZM213.176 235.766L214.15 242.35 215.951 242.084C216.437 242.012 216.886 241.895 217.298 241.734 217.709 241.572 218.059 241.353 218.347 241.075 218.628 240.799 218.83 240.444 218.953 240.01 219.078 239.583 219.095 239.064 219.004 238.454V238.454C218.935 237.988 218.807 237.551 218.619 237.143 218.438 236.734 218.176 236.387 217.832 236.103 217.488 235.819 217.065 235.613 216.564 235.486 216.056 235.36 215.46 235.348 214.778 235.449V235.449C214.437 235.499 214.126 235.552 213.846 235.607 213.566 235.662 213.342 235.715 213.176 235.766ZM211.651 225.472L212.606 231.918 214.299 231.668C215.053 231.556 215.694 231.223 216.223 230.669 216.752 230.121 216.926 229.237 216.745 228.017V228.017C216.594 226.993 216.239 226.228 215.681 225.72 215.118 225.22 214.288 225.052 213.192 225.214V225.214C212.871 225.261 212.572 225.306 212.297 225.346 212.015 225.388 211.799 225.43 211.651 225.472ZM235.517 227.579C235.259 227.665 235.003 227.831 234.749 228.076 234.487 228.317 234.266 228.629 234.085 229.01 233.901 229.4 233.789 229.853 233.751 230.369 233.722 230.889 233.812 231.464 234.021 232.093V232.093L237.003 241.052 231.453 242.899 228.414 233.771C227.947 232.368 227.459 231.237 226.949 230.379 226.446 229.519 225.968 228.839 225.515 228.34V228.34C225.014 227.78 224.521 227.357 224.034 227.072V227.072L228.034 224.188C228.294 224.36 228.581 224.562 228.896 224.792V224.792C229.145 224.996 229.43 225.265 229.751 225.598 230.068 225.94 230.371 226.346 230.66 226.816V226.816C230.872 225.501 231.3 224.464 231.942 223.705 232.59 222.944 233.465 222.38 234.566 222.013V222.013C235.057 221.85 235.508 221.745 235.919 221.699 236.33 221.653 236.68 221.635 236.97 221.643V221.643L237.298 227.416C237.103 227.376 236.857 227.361 236.559 227.369 236.261 227.377 235.914 227.447 235.517 227.579ZM243.376 217.662C246.01 216.36 248.299 216.164 250.244 217.075 252.195 217.982 253.827 219.765 255.141 222.423V222.423C255.764 223.683 256.18 224.928 256.388 226.157 256.598 227.392 256.574 228.562 256.314 229.667 256.048 230.775 255.533 231.799 254.769 232.739 254.012 233.676 252.979 234.468 251.671 235.114V235.114C250.345 235.77 249.105 236.142 247.95 236.232 246.796 236.322 245.735 236.151 244.767 235.719 243.799 235.288 242.908 234.622 242.093 233.723 241.27 232.82 240.536 231.718 239.892 230.416V230.416C239.269 229.155 238.849 227.902 238.632 226.655 238.419 225.414 238.445 224.239 238.711 223.131 238.977 222.023 239.489 221.001 240.246 220.064 241.007 219.118 242.05 218.317 243.376 217.662ZM245.035 221.758C244.637 221.955 244.361 222.236 244.208 222.6 244.055 222.964 244.009 223.387 244.069 223.867 244.129 224.348 244.269 224.878 244.489 225.458 244.703 226.04 244.968 226.652 245.286 227.294V227.294C245.612 227.954 245.959 228.567 246.327 229.132 246.687 229.695 247.06 230.157 247.447 230.521 247.825 230.882 248.235 231.112 248.676 231.212 249.112 231.315 249.561 231.251 250.025 231.022V231.022C250.424 230.825 250.693 230.54 250.834 230.167 250.981 229.791 251.025 229.363 250.965 228.882 250.905 228.401 250.768 227.87 250.554 227.287 250.334 226.708 250.071 226.109 249.765 225.49V225.49C249.427 224.807 249.08 224.187 248.724 223.63 248.367 223.074 247.997 222.617 247.613 222.259 247.229 221.902 246.819 221.671 246.384 221.569 245.948 221.466 245.499 221.529 245.035 221.758ZM253.53 217.823L251.044 214.329 253.516 212.57 251.811 209.094 255.304 205.252 258.16 209.264 261.718 206.731 263.629 210.634 260.647 212.757 265.435 219.485C266.062 220.365 266.838 220.477 267.762 219.819V219.819C268.264 219.461 268.713 219.069 269.109 218.641V218.641C269.3 218.406 269.496 218.173 269.697 217.941V217.941L272.787 220.565C272.487 220.99 272.04 221.541 271.446 222.216 270.856 222.896 270.047 223.602 269.02 224.333V224.333C267.513 225.406 266.111 225.936 264.815 225.922 263.515 225.903 262.336 225.15 261.279 223.664V223.664L255.913 216.126ZM261.537 195.356L268.183 202.367C268.253 201.515 268.502 200.703 268.931 199.931 269.35 199.159 269.892 198.458 270.557 197.828V197.828C271.953 196.505 273.344 195.982 274.73 196.258 276.12 196.54 277.495 197.398 278.855 198.832V198.832L287.382 207.83 283.107 211.881 275.162 203.498C274.569 202.872 274.015 202.437 273.501 202.193 272.982 201.954 272.515 202.031 272.101 202.423V202.423C271.87 202.642 271.707 202.943 271.613 203.325 271.518 203.707 271.511 204.139 271.592 204.619 271.673 205.1 271.851 205.611 272.128 206.154 272.4 206.691 272.782 207.22 273.275 207.74V207.74L279.995 214.831 275.749 218.855 257.983 200.109ZM283.107 199.032C281.774 198.057 280.739 197 280.003 195.862 279.261 194.719 278.798 193.555 278.614 192.368 278.425 191.178 278.485 189.994 278.796 188.816 279.107 187.638 279.656 186.511 280.443 185.435V185.435C281.129 184.498 281.827 183.785 282.539 183.295 283.251 182.805 283.963 182.5 284.675 182.38 285.393 182.264 286.097 182.307 286.788 182.508 287.479 182.709 288.143 183.043 288.78 183.509V183.509C289.497 184.034 290.043 184.708 290.418 185.533 290.793 186.358 290.981 187.28 290.982 188.3 290.98 189.326 290.793 190.43 290.421 191.612 290.048 192.785 289.475 194.006 288.704 195.274V195.274C289.405 195.574 290.071 195.674 290.701 195.577 291.341 195.478 291.939 195.048 292.495 194.288V194.288C292.812 193.854 293.104 193.353 293.372 192.785 293.635 192.213 293.86 191.675 294.047 191.171V191.171C294.272 190.571 294.47 189.964 294.641 189.349V189.349L298.4 190.731C298.265 191.454 298.067 192.209 297.804 192.994V192.994C297.564 193.649 297.255 194.38 296.877 195.189 296.5 195.997 296.021 196.797 295.441 197.59V197.59C294.553 198.805 293.614 199.717 292.627 200.326 291.634 200.93 290.619 201.273 289.582 201.353 288.537 201.434 287.471 201.267 286.386 200.852 285.298 200.442 284.205 199.835 283.107 199.032ZM283.389 188.502C283.111 188.882 282.984 189.287 283.008 189.715 283.031 190.143 283.164 190.569 283.405 190.992 283.646 191.415 283.954 191.825 284.329 192.222 284.709 192.624 285.102 192.985 285.508 193.307V193.307C285.927 192.701 286.207 192.133 286.348 191.603 286.485 191.079 286.527 190.6 286.474 190.167 286.43 189.732 286.312 189.354 286.12 189.033 285.928 188.711 285.711 188.463 285.47 188.286V188.286C285.09 188.008 284.711 187.892 284.334 187.936 283.951 187.976 283.636 188.165 283.389 188.502ZM294.167 173.255C294.041 173.496 293.972 173.793 293.961 174.146 293.94 174.501 293.998 174.879 294.133 175.279 294.272 175.688 294.507 176.09 294.839 176.487 295.18 176.882 295.644 177.232 296.232 177.538V177.538L304.607 181.899 301.905 187.088 293.372 182.644C292.06 181.961 290.922 181.489 289.96 181.227 289 180.959 288.184 180.803 287.511 180.759V180.759C286.761 180.705 286.112 180.745 285.564 180.878V180.878L286.432 176.025C286.738 175.967 287.085 175.912 287.471 175.859V175.859C287.792 175.832 288.184 175.826 288.646 175.843 289.112 175.868 289.612 175.949 290.146 176.086V176.086C289.384 174.993 288.97 173.951 288.903 172.959 288.839 171.961 289.075 170.948 289.611 169.918V169.918C289.85 169.459 290.102 169.07 290.365 168.751 290.628 168.432 290.867 168.175 291.081 167.98V167.98L295.333 171.899C295.165 172.006 294.977 172.166 294.768 172.379 294.56 172.592 294.36 172.884 294.167 173.255ZM292.802 161.44V161.44C293.12 160.56 293.491 159.77 293.913 159.07 294.342 158.371 294.752 157.765 295.142 157.25V157.25C295.616 156.66 296.082 156.133 296.538 155.671V155.671L299.811 158.822C299.65 158.975 299.448 159.17 299.208 159.407 298.964 159.651 298.71 159.915 298.445 160.2 298.186 160.487 297.943 160.798 297.716 161.132 297.488 161.473 297.31 161.818 297.184 162.167V162.167C297.051 162.535 297.019 162.876 297.089 163.191 297.159 163.505 297.368 163.725 297.717 163.851V163.851C298.085 163.985 298.536 163.879 299.069 163.536 299.604 163.187 300.176 162.678 300.785 162.009V162.009C301.868 160.828 302.945 160.004 304.016 159.538 305.094 159.074 306.303 159.084 307.644 159.569V159.569C308.386 159.838 309.052 160.23 309.641 160.746 310.23 161.262 310.687 161.872 311.011 162.574 311.327 163.281 311.496 164.083 311.517 164.979 311.53 165.879 311.352 166.841 310.982 167.864V167.864C310.689 168.675 310.359 169.412 309.992 170.077 309.616 170.745 309.235 171.341 308.849 171.864 308.46 172.393 308.093 172.86 307.75 173.265 307.408 173.663 307.118 173.978 306.879 174.209V174.209L303.531 170.947C303.622 170.852 303.801 170.688 304.069 170.453 304.335 170.225 304.619 169.947 304.921 169.619 305.221 169.297 305.511 168.943 305.791 168.558 306.078 168.175 306.292 167.787 306.434 167.394V167.394C306.61 166.907 306.661 166.474 306.586 166.095 306.512 165.715 306.291 165.459 305.923 165.326V165.326C305.48 165.166 305.015 165.213 304.528 165.467 304.047 165.724 303.579 166.112 303.123 166.631V166.631C301.802 168.121 300.568 169.086 299.422 169.525 298.282 169.966 297.06 169.951 295.757 169.48V169.48C295.015 169.211 294.382 168.824 293.86 168.318 293.335 167.818 292.936 167.215 292.662 166.51 292.395 165.806 292.262 165.032 292.264 164.186 292.269 163.335 292.448 162.419 292.802 161.44ZM76.775 127.306C76.775 121.611 81.392 116.995 87.086 116.995 92.78 116.995 97.397 121.611 97.397 127.306 97.397 133 92.78 137.617 87.086 137.617 81.392 137.617 76.775 133 76.775 127.306ZM298.123 127.306C298.123 121.611 302.74 116.995 308.434 116.995 314.128 116.995 318.745 121.611 318.745 127.306 318.745 133 314.128 137.617 308.434 137.617 302.74 137.617 298.123 133 298.123 127.306Z" fill="#000000" data-fill-palette-color="primary"></path></svg></g></svg></g></svg></g></svg></g></svg></g><defs></defs></svg><rect width="395.52" height="247.2" fill="none" stroke="none" visibility="hidden"></rect></g></svg></g></svg>